IntelOneMono-LightItalic.ufo
<glyph name="dollar" format="2">
  <advance width="614"/>
  <unicode hex="0024"/>
  <outline>
    <contour>
      <point x="213" y="-142" type="line"/>
      <point x="257" y="1" type="line"/>
      <point x="266" y="0"/>
      <point x="276" y="0"/>
      <point x="285" y="0" type="curve" smooth="yes"/>
      <point x="422" y="0"/>
      <point x="517" y="64"/>
      <point x="517" y="182" type="curve" smooth="yes"/>
      <point x="517" y="238"/>
      <point x="504" y="289"/>
      <point x="382" y="354" type="curve"/>
      <point x="463" y="601" type="line"/>
      <point x="507" y="595"/>
      <point x="550" y="581"/>
      <point x="594" y="562" type="curve"/>
      <point x="612" y="614" type="line"/>
      <point x="564" y="631"/>
      <point x="525" y="643"/>
      <point x="483" y="649" type="curve"/>
      <point x="530" y="797" type="line"/>
      <point x="477" y="797" type="line"/>
      <point x="432" y="654" type="line"/>
      <point x="422" y="655"/>
      <point x="411" y="655"/>
      <point x="400" y="655" type="curve" smooth="yes"/>
      <point x="257" y="655"/>
      <point x="183" y="575"/>
      <point x="183" y="492" type="curve" smooth="yes"/>
      <point x="183" y="434"/>
      <point x="208" y="381"/>
      <point x="315" y="327" type="curve"/>
      <point x="227" y="55" type="line"/>
      <point x="175" y="65"/>
      <point x="123" y="88"/>
      <point x="70" y="118" type="curve"/>
      <point x="44" y="69" type="line"/>
      <point x="99" y="38"/>
      <point x="150" y="17"/>
      <point x="206" y="7" type="curve"/>
      <point x="160" y="-142" type="line"/>
    </contour>
    <contour>
      <point x="244" y="496" type="curve" smooth="yes"/>
      <point x="244" y="557"/>
      <point x="293" y="606"/>
      <point x="400" y="606" type="curve" smooth="yes"/>
      <point x="406" y="606"/>
      <point x="413" y="606"/>
      <point x="419" y="606" type="curve"/>
      <point x="344" y="374" type="line"/>
      <point x="255" y="421"/>
      <point x="244" y="459"/>
    </contour>
    <contour>
      <point x="285" y="49" type="curve" smooth="yes"/>
      <point x="280" y="49"/>
      <point x="275" y="49"/>
      <point x="270" y="49" type="curve"/>
      <point x="353" y="308" type="line"/>
      <point x="445" y="259"/>
      <point x="456" y="215"/>
      <point x="456" y="180" type="curve" smooth="yes"/>
      <point x="456" y="100"/>
      <point x="394" y="49"/>
    </contour>
  </outline>
</glyph>
<glyph name="ampersand" format="2">
  <advance width="614"/>
  <unicode hex="0026"/>
  <outline>
    <contour>
      <point x="87" y="278" type="curve" smooth="yes"/>
      <point x="47" y="238"/>
      <point x="31" y="188"/>
      <point x="31" y="124" type="curve" smooth="yes"/>
      <point x="31" y="38"/>
      <point x="82" y="-5"/>
      <point x="168" y="-5" type="curve" smooth="yes"/>
      <point x="262" y="-5"/>
      <point x="311" y="28"/>
      <point x="392" y="139" type="curve"/>
      <point x="451" y="0" type="line"/>
      <point x="520" y="0" type="line"/>
      <point x="435" y="191" type="line"/>
      <point x="584" y="417" type="line"/>
      <point x="532" y="439" type="line"/>
      <point x="408" y="243" type="line"/>
      <point x="327" y="429" type="line" smooth="yes"/>
      <point x="310" y="468"/>
      <point x="305" y="493"/>
      <point x="305" y="515" type="curve" smooth="yes"/>
      <point x="305" y="576"/>
      <point x="353" y="618"/>
      <point x="418" y="618" type="curve" smooth="yes"/>
      <point x="455" y="618"/>
      <point x="495" y="613"/>
      <point x="566" y="596" type="curve"/>
      <point x="581" y="647" type="line"/>
      <point x="507" y="663"/>
      <point x="462" y="669"/>
      <point x="423" y="669" type="curve" smooth="yes"/>
      <point x="314" y="669"/>
      <point x="243" y="601"/>
      <point x="243" y="517" type="curve" smooth="yes"/>
      <point x="243" y="489"/>
      <point x="252" y="453"/>
      <point x="272" y="407" type="curve" smooth="yes"/>
      <point x="289" y="368" type="line"/>
      <point x="162" y="332"/>
      <point x="118" y="309"/>
    </contour>
    <contour>
      <point x="94" y="130" type="curve" smooth="yes"/>
      <point x="94" y="177"/>
      <point x="102" y="215"/>
      <point x="131" y="244" type="curve" smooth="yes"/>
      <point x="156" y="269"/>
      <point x="185" y="286"/>
      <point x="308" y="324" type="curve"/>
      <point x="364" y="194" type="line"/>
      <point x="283" y="74"/>
      <point x="245" y="47"/>
      <point x="177" y="47" type="curve" smooth="yes"/>
      <point x="127" y="47"/>
      <point x="94" y="72"/>
    </contour>
  </outline>
</glyph>
<glyph name="quotesingle" format="2">
  <advance width="614"/>
  <unicode hex="0027"/>
  <outline>
    <contour>
      <point x="326" y="426" type="line"/>
      <point x="384" y="426" type="line"/>
      <point x="487" y="710" type="line"/>
      <point x="387" y="710" type="line"/>
    </contour>
  </outline>
</glyph>
<glyph name="asterisk" format="2">
  <advance width="614"/>
  <unicode hex="002A"/>
  <guideline x="331" y="359" angle="180.0" identifier="YkQCsAMSsB"/>
  <outline>
    <contour>
      <point x="105" y="229" type="curve"/>
      <point x="163" y="163" type="line"/>
      <point x="220" y="213"/>
      <point x="282" y="300"/>
      <point x="343" y="354" type="curve"/>
      <point x="370" y="299"/>
      <point x="382" y="212"/>
      <point x="411" y="163" type="curve"/>
      <point x="497" y="220" type="line"/>
      <point x="468" y="269"/>
      <point x="405" y="321"/>
      <point x="373" y="371" type="curve"/>
      <point x="445" y="391"/>
      <point x="541" y="395"/>
      <point x="607" y="417" type="curve"/>
      <point x="594" y="508" type="line"/>
      <point x="528" y="486"/>
      <point x="442" y="429"/>
      <point x="372" y="403" type="curve"/>
      <point x="393" y="472"/>
      <point x="448" y="564"/>
      <point x="467" y="630" type="curve"/>
      <point x="372" y="630" type="line"/>
      <point x="353" y="564"/>
      <point x="358" y="473"/>
      <point x="339" y="403" type="curve"/>
      <point x="283" y="428"/>
      <point x="224" y="487"/>
      <point x="169" y="509" type="curve"/>
      <point x="114" y="422" type="line"/>
      <point x="169" y="400"/>
      <point x="261" y="397"/>
      <point x="322" y="376" type="curve"/>
      <point x="261" y="325"/>
      <point x="162" y="280"/>
    </contour>
  </outline>
</glyph>
<glyph name="comma" format="2">
  <advance width="614"/>
  <unicode hex="002C"/>
  <outline>
    <contour>
      <point x="71" y="-144" type="line"/>
      <point x="138" y="-144" type="line"/>
      <point x="292" y="-56"/>
      <point x="313" y="-21"/>
      <point x="346" y="120" type="curve"/>
      <point x="246" y="120" type="line"/>
      <point x="221" y="-3"/>
      <point x="206" y="-27"/>
      <point x="71" y="-142" type="curve"/>
    </contour>
  </outline>
</glyph>
<glyph name="period" format="2">
  <advance width="614"/>
  <unicode hex="002E"/>
  <outline>
    <contour>
      <point x="251" y="-15" type="curve" smooth="yes"/>
      <point x="307" y="-15"/>
      <point x="335" y="23"/>
      <point x="335" y="64" type="curve" smooth="yes"/>
      <point x="335" y="98"/>
      <point x="310" y="122"/>
      <point x="270" y="122" type="curve" smooth="yes"/>
      <point x="215" y="122"/>
      <point x="185" y="86"/>
      <point x="185" y="42" type="curve" smooth="yes"/>
      <point x="185" y="8"/>
      <point x="209" y="-15"/>
    </contour>
  </outline>
</glyph>
<glyph name="three" format="2">
  <advance width="614"/>
  <unicode hex="0033"/>
  <outline>
    <contour>
      <point x="178" y="604" type="line"/>
      <point x="499" y="604" type="line"/>
      <point x="499" y="602" type="line"/>
      <point x="224" y="364" type="line"/>
      <point x="224" y="336" type="line"/>
      <point x="419" y="332"/>
      <point x="459" y="293"/>
      <point x="459" y="223" type="curve" smooth="yes"/>
      <point x="459" y="141"/>
      <point x="388" y="66"/>
      <point x="167" y="51" type="curve" smooth="yes"/>
      <point x="35" y="42" type="line"/>
      <point x="25" y="-10" type="line"/>
      <point x="172" y="-1" type="line" smooth="yes"/>
      <point x="425" y="14"/>
      <point x="525" y="105"/>
      <point x="525" y="231" type="curve" smooth="yes"/>
      <point x="525" y="317"/>
      <point x="472" y="371"/>
      <point x="319" y="378" type="curve"/>
      <point x="319" y="381" type="line"/>
      <point x="604" y="618" type="line"/>
      <point x="604" y="655" type="line"/>
      <point x="193" y="655" type="line"/>
    </contour>
  </outline>
</glyph>
<glyph name="five" format="2">
  <advance width="614"/>
  <unicode hex="0035"/>
  <outline>
    <contour>
      <point x="538" y="272" type="curve" smooth="yes"/>
      <point x="538" y="372"/>
      <point x="465" y="420"/>
      <point x="372" y="420" type="curve" smooth="yes"/>
      <point x="323" y="420"/>
      <point x="268" y="407"/>
      <point x="208" y="374" type="curve"/>
      <point x="295" y="604" type="line"/>
      <point x="599" y="604" type="line"/>
      <point x="614" y="655" type="line"/>
      <point x="256" y="655" type="line"/>
      <point x="132" y="316" type="line"/>
      <point x="133" y="311" type="line"/>
      <point x="172" y="307" type="line"/>
      <point x="253" y="351"/>
      <point x="307" y="368"/>
      <point x="361" y="368" type="curve" smooth="yes"/>
      <point x="425" y="368"/>
      <point x="473" y="333"/>
      <point x="473" y="270" type="curve" smooth="yes"/>
      <point x="473" y="169"/>
      <point x="391" y="73"/>
      <point x="164" y="53" type="curve" smooth="yes"/>
      <point x="42" y="42" type="line"/>
      <point x="32" y="-10" type="line"/>
      <point x="179" y="2" type="line" smooth="yes"/>
      <point x="429" y="23"/>
      <point x="538" y="132"/>
    </contour>
  </outline>
</glyph>
<glyph name="six" format="2">
  <advance width="614"/>
  <unicode hex="0036"/>
  <outline>
    <contour>
      <point x="391" y="530" type="curve" smooth="yes"/>
      <point x="566" y="653" type="line"/>
      <point x="566" y="655" type="line"/>
      <point x="483" y="655" type="line"/>
      <point x="346" y="557" type="line" smooth="yes"/>
      <point x="151" y="417"/>
      <point x="75" y="286"/>
      <point x="75" y="165" type="curve" smooth="yes"/>
      <point x="75" y="42"/>
      <point x="154" y="-15"/>
      <point x="254" y="-15" type="curve" smooth="yes"/>
      <point x="404" y="-15"/>
      <point x="534" y="117"/>
      <point x="534" y="249" type="curve" smooth="yes"/>
      <point x="534" y="358"/>
      <point x="452" y="422"/>
      <point x="267" y="430" type="curve"/>
      <point x="301" y="462"/>
      <point x="342" y="495"/>
    </contour>
    <contour>
      <point x="135" y="162" type="curve" smooth="yes"/>
      <point x="135" y="238"/>
      <point x="160" y="312"/>
      <point x="230" y="391" type="curve"/>
      <point x="410" y="381"/>
      <point x="474" y="339"/>
      <point x="474" y="247" type="curve" smooth="yes"/>
      <point x="474" y="150"/>
      <point x="374" y="36"/>
      <point x="255" y="36" type="curve" smooth="yes"/>
      <point x="182" y="36"/>
      <point x="135" y="81"/>
    </contour>
  </outline>
</glyph>
<glyph name="nine" format="2">
  <advance width="614"/>
  <unicode hex="0039"/>
  <outline>
    <contour>
      <point x="287" y="124" type="curve" smooth="yes"/>
      <point x="112" y="1" type="line"/>
      <point x="112" y="-1" type="line"/>
      <point x="195" y="-1" type="line"/>
      <point x="332" y="97" type="line" smooth="yes"/>
      <point x="527" y="237"/>
      <point x="603" y="368"/>
      <point x="603" y="489" type="curve" smooth="yes"/>
      <point x="603" y="612"/>
      <point x="524" y="669"/>
      <point x="424" y="669" type="curve" smooth="yes"/>
      <point x="274" y="669"/>
      <point x="144" y="537"/>
      <point x="144" y="405" type="curve" smooth="yes"/>
      <point x="144" y="296"/>
      <point x="226" y="232"/>
      <point x="411" y="224" type="curve"/>
      <point x="377" y="192"/>
      <point x="336" y="159"/>
    </contour>
    <contour>
      <point x="204" y="407" type="curve" smooth="yes"/>
      <point x="204" y="504"/>
      <point x="304" y="618"/>
      <point x="423" y="618" type="curve" smooth="yes"/>
      <point x="496" y="618"/>
      <point x="543" y="573"/>
      <point x="543" y="492" type="curve" smooth="yes"/>
      <point x="543" y="416"/>
      <point x="518" y="342"/>
      <point x="448" y="263" type="curve"/>
      <point x="268" y="273"/>
      <point x="204" y="315"/>
    </contour>
  </outline>
</glyph>
<glyph name="colon" format="2">
  <advance width="614"/>
  <unicode hex="003A"/>
  <outline>
    <contour>
      <point x="346" y="335" type="curve" smooth="yes"/>
      <point x="403" y="335"/>
      <point x="432" y="378"/>
      <point x="432" y="421" type="curve" smooth="yes"/>
      <point x="432" y="453"/>
      <point x="411" y="472"/>
      <point x="367" y="472" type="curve" smooth="yes"/>
      <point x="310" y="472"/>
      <point x="282" y="426"/>
      <point x="282" y="388" type="curve" smooth="yes"/>
      <point x="282" y="352"/>
      <point x="309" y="335"/>
    </contour>
    <contour>
      <point x="246" y="-15" type="curve" smooth="yes"/>
      <point x="303" y="-15"/>
      <point x="332" y="28"/>
      <point x="332" y="71" type="curve" smooth="yes"/>
      <point x="332" y="103"/>
      <point x="311" y="122"/>
      <point x="267" y="122" type="curve" smooth="yes"/>
      <point x="215" y="122"/>
      <point x="182" y="80"/>
      <point x="182" y="38" type="curve" smooth="yes"/>
      <point x="182" y="2"/>
      <point x="209" y="-15"/>
    </contour>
  </outline>
</glyph>
<glyph name="A" format="2">
  <advance width="614"/>
  <unicode hex="0041"/>
  <anchor x="424" y="691" name="aboveUC"/>
  <anchor x="412" y="651" name="aboveUCx"/>
  <anchor x="466" y="-10" name="belowogonek"/>
  <anchor x="263" y="-30" name="below"/>
  <anchor x="272" y="0" name="belowx"/>
  <outline>
    <contour>
      <point x="47" y="0" type="line"/>
      <point x="171" y="201" type="line"/>
      <point x="432" y="201" type="line"/>
      <point x="442" y="0" type="line"/>
      <point x="502" y="0" type="line"/>
      <point x="467" y="655" type="line"/>
      <point x="393" y="655" type="line"/>
      <point x="-20" y="0" type="line"/>
    </contour>
    <contour>
      <point x="202" y="252" type="line"/>
      <point x="414" y="596" type="line"/>
      <point x="430" y="252" type="line"/>
    </contour>
  </outline>
</glyph>
<glyph name="D" format="2">
  <advance width="614"/>
  <unicode hex="0044"/>
  <anchor x="405" y="691" name="aboveUC"/>
  <anchor x="199" y="-35" name="below"/>
  <outline>
    <contour>
      <point x="222" y="655" type="line"/>
      <point x="34" y="0" type="line"/>
      <point x="117" y="0" type="line" smooth="yes"/>
      <point x="292" y="0"/>
      <point x="409" y="51"/>
      <point x="485" y="127" type="curve" smooth="yes"/>
      <point x="564" y="206"/>
      <point x="604" y="308"/>
      <point x="604" y="419" type="curve" smooth="yes"/>
      <point x="604" y="489"/>
      <point x="583" y="543"/>
      <point x="544" y="582" type="curve" smooth="yes"/>
      <point x="506" y="620"/>
      <point x="437" y="655"/>
      <point x="312" y="655" type="curve" smooth="yes"/>
    </contour>
    <contour>
      <point x="540" y="425" type="curve" smooth="yes"/>
      <point x="540" y="213"/>
      <point x="387" y="51"/>
      <point x="110" y="51" type="curve"/>
      <point x="268" y="604" type="line"/>
      <point x="320" y="604" type="line" smooth="yes"/>
      <point x="467" y="604"/>
      <point x="540" y="538"/>
    </contour>
  </outline>
</glyph>
<glyph name="E" format="2">
  <advance width="614"/>
  <unicode hex="0045"/>
  <anchor x="467" y="691" name="aboveUC"/>
  <anchor x="389" y="-10" name="belowogonek"/>
  <anchor x="260" y="-35" name="below"/>
  <outline>
    <contour>
      <point x="225" y="655" type="line"/>
      <point x="37" y="0" type="line"/>
      <point x="476" y="0" type="line"/>
      <point x="491" y="51" type="line"/>
      <point x="113" y="51" type="line"/>
      <point x="186" y="306" type="line"/>
      <point x="491" y="306" type="line"/>
      <point x="505" y="357" type="line"/>
      <point x="200" y="357" type="line"/>
      <point x="271" y="604" type="line"/>
      <point x="640" y="604" type="line"/>
      <point x="655" y="655" type="line"/>
    </contour>
  </outline>
</glyph>
<glyph name="H" format="2">
  <advance width="614"/>
  <unicode hex="0048"/>
  <anchor x="439" y="691" name="aboveUC"/>
  <anchor x="232" y="-35" name="below"/>
  <anchor x="64" y="-10" name="belowcedilla"/>
  <anchor x="242" y="0" name="belowx"/>
  <anchor x="429" y="656" name="aboveUCx"/>
  <outline>
    <contour>
      <point x="222" y="655" type="line"/>
      <point x="34" y="0" type="line"/>
      <point x="95" y="0" type="line"/>
      <point x="183" y="305" type="line"/>
      <point x="475" y="305" type="line"/>
      <point x="387" y="0" type="line"/>
      <point x="448" y="0" type="line"/>
      <point x="636" y="655" type="line"/>
      <point x="575" y="655" type="line"/>
      <point x="489" y="356" type="line"/>
      <point x="197" y="356" type="line"/>
      <point x="283" y="655" type="line"/>
    </contour>
  </outline>
</glyph>
<glyph name="I" format="2">
  <advance width="614"/>
  <unicode hex="0049"/>
  <anchor x="232" y="-35" name="below"/>
  <anchor x="239" y="-9" name="belowogonek"/>
  <anchor x="439" y="691" name="aboveUC"/>
  <anchor x="430" y="661" name="aboveUCx"/>
  <outline>
    <contour>
      <point x="81" y="26" type="line"/>
      <point x="73" y="0" type="line"/>
      <point x="409" y="0" type="line"/>
      <point x="416" y="26" type="line"/>
      <point x="280" y="47" type="line"/>
      <point x="452" y="606" type="line"/>
      <point x="589" y="629" type="line"/>
      <point x="597" y="655" type="line"/>
      <point x="261" y="655" type="line"/>
      <point x="253" y="629" type="line"/>
      <point x="391" y="608" type="line"/>
      <point x="219" y="49" type="line"/>
    </contour>
  </outline>
</glyph>
<glyph name="J" format="2">
  <advance width="614"/>
  <unicode hex="004A"/>
  <anchor x="604" y="691" name="aboveUC"/>
  <anchor x="592" y="651" name="aboveUCx"/>
  <outline>
    <contour>
      <point x="263" y="-10" type="curve" smooth="yes"/>
      <point x="392" y="-10"/>
      <point x="456" y="67"/>
      <point x="489" y="180" type="curve" smooth="yes"/>
      <point x="625" y="655" type="line"/>
      <point x="564" y="655" type="line"/>
      <point x="428" y="182" type="line" smooth="yes"/>
      <point x="401" y="87"/>
      <point x="347" y="40"/>
      <point x="266" y="40" type="curve" smooth="yes"/>
      <point x="212" y="40"/>
      <point x="167" y="56"/>
      <point x="82" y="175" type="curve"/>
      <point x="36" y="138" type="line"/>
      <point x="124" y="19"/>
      <point x="184" y="-10"/>
    </contour>
  </outline>
</glyph>
<glyph name="L" format="2">
  <advance width="614"/>
  <unicode hex="004C"/>
  <anchor x="270" y="691" name="aboveUC"/>
  <anchor x="262" y="-35" name="below"/>
  <anchor x="465" y="655" name="topright"/>
  <outline>
    <contour>
      <point x="225" y="655" type="line"/>
      <point x="37" y="0" type="line"/>
      <point x="473" y="0" type="line"/>
      <point x="487" y="50" type="line"/>
      <point x="112" y="50" type="line"/>
      <point x="286" y="655" type="line"/>
    </contour>
  </outline>
</glyph>
<glyph name="M" format="2">
  <advance width="614"/>
  <unicode hex="004D"/>
  <anchor x="433" y="691" name="aboveUC"/>
  <anchor x="423" y="656" name="aboveUCx"/>
  <anchor x="248" y="-35" name="below"/>
  <anchor x="258" y="0" name="belowx"/>
  <outline>
    <contour>
      <point x="644" y="655" type="line"/>
      <point x="559" y="655" type="line"/>
      <point x="323" y="299" type="line"/>
      <point x="287" y="655" type="line"/>
      <point x="214" y="655" type="line"/>
      <point x="1" y="0" type="line"/>
      <point x="60" y="0" type="line"/>
      <point x="244" y="581" type="line"/>
      <point x="284" y="185" type="line"/>
      <point x="305" y="185" type="line"/>
      <point x="574" y="593" type="line"/>
      <point x="422" y="0" type="line"/>
      <point x="481" y="0" type="line"/>
    </contour>
  </outline>
</glyph>
<glyph name="N" format="2">
  <advance width="614"/>
  <unicode hex="004E"/>
  <anchor x="445" y="691" name="aboveUC"/>
  <anchor x="435" y="656" name="aboveUCx"/>
  <anchor x="232" y="-35" name="below"/>
  <anchor x="242" y="0" name="belowx"/>
  <outline>
    <contour>
      <point x="89" y="0" type="line"/>
      <point x="261" y="616" type="line"/>
      <point x="369" y="0" type="line"/>
      <point x="451" y="0" type="line"/>
      <point x="639" y="655" type="line"/>
      <point x="581" y="655" type="line"/>
      <point x="413" y="55" type="line"/>
      <point x="309" y="655" type="line"/>
      <point x="219" y="655" type="line"/>
      <point x="31" y="0" type="line"/>
    </contour>
  </outline>
</glyph>
<glyph name="O" format="2">
  <advance width="614"/>
  <unicode hex="004F"/>
  <anchor x="426" y="696" name="aboveUC"/>
  <anchor x="416" y="661" name="aboveUCx"/>
  <anchor x="248" y="-40" name="below"/>
  <anchor x="245" y="-15" name="belowogonek"/>
  <outline>
    <contour>
      <point x="407" y="670" type="curve" smooth="yes"/>
      <point x="254" y="670"/>
      <point x="132" y="532"/>
      <point x="84" y="366" type="curve" smooth="yes"/>
      <point x="68" y="311"/>
      <point x="61" y="251"/>
      <point x="61" y="206" type="curve" smooth="yes"/>
      <point x="61" y="55"/>
      <point x="141" y="-15"/>
      <point x="260" y="-15" type="curve" smooth="yes"/>
      <point x="413" y="-15"/>
      <point x="535" y="123"/>
      <point x="583" y="289" type="curve" smooth="yes"/>
      <point x="599" y="344"/>
      <point x="606" y="404"/>
      <point x="606" y="449" type="curve" smooth="yes"/>
      <point x="606" y="600"/>
      <point x="526" y="670"/>
    </contour>
    <contour>
      <point x="263" y="36" type="curve" smooth="yes"/>
      <point x="180" y="36"/>
      <point x="124" y="88"/>
      <point x="124" y="203" type="curve" smooth="yes"/>
      <point x="124" y="247"/>
      <point x="131" y="306"/>
      <point x="148" y="365" type="curve" smooth="yes"/>
      <point x="187" y="500"/>
      <point x="280" y="619"/>
      <point x="404" y="619" type="curve" smooth="yes"/>
      <point x="487" y="619"/>
      <point x="543" y="567"/>
      <point x="543" y="452" type="curve" smooth="yes"/>
      <point x="543" y="408"/>
      <point x="536" y="349"/>
      <point x="519" y="290" type="curve" smooth="yes"/>
      <point x="480" y="155"/>
      <point x="387" y="36"/>
    </contour>
  </outline>
</glyph>
<glyph name="P" format="2">
  <advance width="614"/>
  <unicode hex="0050"/>
  <anchor x="456" y="691" name="aboveUC"/>
  <outline>
    <contour>
      <point x="225" y="655" type="line"/>
      <point x="37" y="0" type="line"/>
      <point x="98" y="0" type="line"/>
      <point x="166" y="236" type="line"/>
      <point x="306" y="236" type="line" smooth="yes"/>
      <point x="423" y="236"/>
      <point x="500" y="255"/>
      <point x="558" y="313" type="curve" smooth="yes"/>
      <point x="605" y="360"/>
      <point x="630" y="422"/>
      <point x="630" y="490" type="curve" smooth="yes"/>
      <point x="630" y="590"/>
      <point x="561" y="655"/>
      <point x="440" y="655" type="curve" smooth="yes"/>
    </contour>
    <contour>
      <point x="427" y="604" type="line" smooth="yes"/>
      <point x="521" y="604"/>
      <point x="564" y="564"/>
      <point x="564" y="498" type="curve" smooth="yes"/>
      <point x="564" y="365"/>
      <point x="474" y="286"/>
      <point x="316" y="286" type="curve" smooth="yes"/>
      <point x="180" y="286" type="line"/>
      <point x="271" y="604" type="line"/>
    </contour>
  </outline>
</glyph>
<glyph name="Q" format="2">
  <advance width="614"/>
  <unicode hex="0051"/>
  <outline>
    <contour>
      <point x="497" y="-108" type="line"/>
      <point x="420" y="40" type="line"/>
      <point x="496" y="95"/>
      <point x="553" y="187"/>
      <point x="583" y="289" type="curve" smooth="yes"/>
      <point x="599" y="344"/>
      <point x="606" y="404"/>
      <point x="606" y="449" type="curve" smooth="yes"/>
      <point x="606" y="600"/>
      <point x="526" y="670"/>
      <point x="407" y="670" type="curve" smooth="yes"/>
      <point x="254" y="670"/>
      <point x="132" y="532"/>
      <point x="84" y="366" type="curve" smooth="yes"/>
      <point x="68" y="311"/>
      <point x="61" y="251"/>
      <point x="61" y="206" type="curve" smooth="yes"/>
      <point x="61" y="55"/>
      <point x="141" y="-15"/>
      <point x="260" y="-15" type="curve" smooth="yes"/>
      <point x="301" y="-15"/>
      <point x="339" y="-5"/>
      <point x="375" y="12" type="curve"/>
      <point x="448" y="-137" type="line"/>
    </contour>
    <contour>
      <point x="263" y="36" type="curve" smooth="yes"/>
      <point x="180" y="36"/>
      <point x="124" y="88"/>
      <point x="124" y="203" type="curve" smooth="yes"/>
      <point x="124" y="247"/>
      <point x="131" y="306"/>
      <point x="148" y="365" type="curve" smooth="yes"/>
      <point x="187" y="500"/>
      <point x="280" y="619"/>
      <point x="404" y="619" type="curve" smooth="yes"/>
      <point x="487" y="619"/>
      <point x="543" y="567"/>
      <point x="543" y="452" type="curve" smooth="yes"/>
      <point x="543" y="408"/>
      <point x="536" y="349"/>
      <point x="519" y="290" type="curve" smooth="yes"/>
      <point x="496" y="209"/>
      <point x="453" y="134"/>
      <point x="396" y="87" type="curve"/>
      <point x="323" y="231" type="line"/>
      <point x="278" y="206" type="line"/>
      <point x="352" y="58" type="line"/>
      <point x="325" y="44"/>
      <point x="295" y="36"/>
    </contour>
  </outline>
</glyph>
<glyph name="R" format="2">
  <advance width="614"/>
  <unicode hex="0052"/>
  <guideline x="280" y="289" angle="10.330611753662753" identifier="x4OsohAdMW"/>
  <anchor x="451" y="691" name="aboveUC"/>
  <anchor x="256" y="-35" name="below"/>
  <anchor x="266" y="0" name="belowx"/>
  <outline>
    <contour>
      <point x="507" y="4" type="line"/>
      <point x="399" y="183" type="line" smooth="yes"/>
      <point x="364" y="241"/>
      <point x="343" y="261"/>
      <point x="308" y="282" type="curve"/>
      <point x="308" y="287" type="line"/>
      <point x="530" y="301"/>
      <point x="614" y="382"/>
      <point x="614" y="515" type="curve" smooth="yes"/>
      <point x="614" y="596"/>
      <point x="554" y="655"/>
      <point x="441" y="655" type="curve" smooth="yes"/>
      <point x="225" y="655" type="line"/>
      <point x="37" y="0" type="line"/>
      <point x="98" y="0" type="line"/>
      <point x="177" y="277" type="line"/>
      <point x="261" y="275"/>
      <point x="286" y="260"/>
      <point x="335" y="174" type="curve" smooth="yes"/>
      <point x="436" y="0" type="line"/>
      <point x="506" y="0" type="line"/>
    </contour>
    <contour>
      <point x="432" y="605" type="line" smooth="yes"/>
      <point x="512" y="605"/>
      <point x="550" y="571"/>
      <point x="550" y="516" type="curve" smooth="yes"/>
      <point x="550" y="410"/>
      <point x="481" y="337"/>
      <point x="284" y="329" type="curve" smooth="yes"/>
      <point x="191" y="326" type="line"/>
      <point x="272" y="605" type="line"/>
    </contour>
  </outline>
</glyph>
<glyph name="T" format="2">
  <advance width="614"/>
  <unicode hex="0054"/>
  <anchor x="429" y="691" name="aboveUC"/>
  <anchor x="232" y="-35" name="below"/>
  <anchor x="239" y="-10" name="belowcedilla"/>
  <outline>
    <contour>
      <point x="160" y="604" type="line"/>
      <point x="381" y="604" type="line"/>
      <point x="208" y="0" type="line"/>
      <point x="269" y="0" type="line"/>
      <point x="442" y="604" type="line"/>
      <point x="662" y="604" type="line"/>
      <point x="677" y="655" type="line"/>
      <point x="175" y="655" type="line"/>
    </contour>
  </outline>
</glyph>
<glyph name="U" format="2">
  <advance width="614"/>
  <unicode hex="0055"/>
  <anchor x="439" y="691" name="aboveUC"/>
  <anchor x="429" y="656" name="aboveUCx"/>
  <anchor x="230" y="-40" name="below"/>
  <anchor x="256" y="-15" name="belowogonek"/>
  <outline>
    <contour>
      <point x="466" y="211" type="line" smooth="yes"/>
      <point x="431" y="89"/>
      <point x="369" y="36"/>
      <point x="275" y="36" type="curve" smooth="yes"/>
      <point x="177" y="36"/>
      <point x="133" y="85"/>
      <point x="133" y="159" type="curve" smooth="yes"/>
      <point x="133" y="181"/>
      <point x="138" y="213"/>
      <point x="155" y="273" type="curve" smooth="yes"/>
      <point x="265" y="655" type="line"/>
      <point x="204" y="655" type="line"/>
      <point x="96" y="281" type="line" smooth="yes"/>
      <point x="78" y="218"/>
      <point x="74" y="188"/>
      <point x="74" y="162" type="curve" smooth="yes"/>
      <point x="74" y="40"/>
      <point x="152" y="-15"/>
      <point x="267" y="-15" type="curve" smooth="yes"/>
      <point x="403" y="-15"/>
      <point x="480" y="52"/>
      <point x="524" y="205" type="curve" smooth="yes"/>
      <point x="654" y="655" type="line"/>
      <point x="594" y="655" type="line"/>
    </contour>
  </outline>
</glyph>
<glyph name="X" format="2">
  <advance width="614"/>
  <unicode hex="0058"/>
  <anchor x="439" y="691" name="aboveUC"/>
  <anchor x="429" y="656" name="aboveUCx"/>
  <anchor x="232" y="-35" name="below"/>
  <anchor x="242" y="0" name="belowx"/>
  <outline>
    <contour>
      <point x="-8" y="0" type="line"/>
      <point x="66" y="0" type="line"/>
      <point x="324" y="290" type="line"/>
      <point x="422" y="0" type="line"/>
      <point x="492" y="0" type="line"/>
      <point x="368" y="333" type="line"/>
      <point x="659" y="655" type="line"/>
      <point x="581" y="655" type="line"/>
      <point x="347" y="386" type="line"/>
      <point x="260" y="655" type="line"/>
      <point x="192" y="655" type="line"/>
      <point x="304" y="343" type="line"/>
    </contour>
  </outline>
</glyph>
<glyph name="b" format="2">
  <advance width="614"/>
  <unicode hex="0062"/>
  <anchor x="231" y="-35" name="below"/>
  <outline>
    <contour>
      <point x="298" y="710" type="line"/>
      <point x="239" y="710" type="line"/>
      <point x="44" y="34" type="line"/>
      <point x="92" y="9"/>
      <point x="168" y="-8"/>
      <point x="226" y="-8" type="curve" smooth="yes"/>
      <point x="433" y="-8"/>
      <point x="558" y="133"/>
      <point x="558" y="300" type="curve" smooth="yes"/>
      <point x="558" y="402"/>
      <point x="493" y="468"/>
      <point x="397" y="468" type="curve" smooth="yes"/>
      <point x="332" y="468"/>
      <point x="275" y="441"/>
      <point x="199" y="365" type="curve"/>
    </contour>
    <contour>
      <point x="391" y="418" type="curve" smooth="yes"/>
      <point x="451" y="418"/>
      <point x="496" y="372"/>
      <point x="496" y="297" type="curve" smooth="yes"/>
      <point x="496" y="182"/>
      <point x="413" y="42"/>
      <point x="227" y="42" type="curve" smooth="yes"/>
      <point x="180" y="42"/>
      <point x="143" y="49"/>
      <point x="112" y="63" type="curve"/>
      <point x="179" y="296" type="line"/>
      <point x="291" y="400"/>
      <point x="334" y="418"/>
    </contour>
  </outline>
</glyph>
<glyph name="d" format="2">
  <advance width="614"/>
  <unicode hex="0064"/>
  <anchor x="225" y="-35" name="below"/>
  <anchor x="779" y="787" name="topright"/>
  <outline>
    <contour>
      <point x="399" y="0" type="line"/>
      <point x="448" y="0" type="line"/>
      <point x="652" y="710" type="line"/>
      <point x="593" y="710" type="line"/>
      <point x="517" y="446" type="line"/>
      <point x="476" y="462"/>
      <point x="435" y="468"/>
      <point x="396" y="468" type="curve" smooth="yes"/>
      <point x="184" y="468"/>
      <point x="56" y="327"/>
      <point x="56" y="160" type="curve" smooth="yes"/>
      <point x="56" y="58"/>
      <point x="119" y="-8"/>
      <point x="212" y="-8" type="curve" smooth="yes"/>
      <point x="279" y="-8"/>
      <point x="339" y="19"/>
      <point x="417" y="95" type="curve"/>
    </contour>
    <contour>
      <point x="118" y="163" type="curve" smooth="yes"/>
      <point x="118" y="278"/>
      <point x="205" y="418"/>
      <point x="399" y="418" type="curve" smooth="yes"/>
      <point x="435" y="418"/>
      <point x="469" y="412"/>
      <point x="503" y="398" type="curve"/>
      <point x="436" y="163" type="line"/>
      <point x="322" y="58"/>
      <point x="276" y="42"/>
      <point x="218" y="42" type="curve" smooth="yes"/>
      <point x="161" y="42"/>
      <point x="118" y="88"/>
    </contour>
  </outline>
</glyph>
<glyph name="e" format="2">
  <advance width="614"/>
  <unicode hex="0065"/>
  <anchor x="244" y="-35" name="below"/>
  <anchor x="315" y="-10" name="belowogonek"/>
  <anchor x="387" y="472" name="aboveLCx"/>
  <anchor x="397" y="507" name="aboveLC"/>
  <outline>
    <contour>
      <point x="409" y="44" type="line"/>
      <point x="202" y="44"/>
      <point x="136" y="71"/>
      <point x="136" y="159" type="curve" smooth="yes"/>
      <point x="136" y="169"/>
      <point x="137" y="179"/>
      <point x="138" y="189" type="curve"/>
      <point x="307" y="204" type="line" smooth="yes"/>
      <point x="524" y="224"/>
      <point x="567" y="282"/>
      <point x="567" y="358" type="curve" smooth="yes"/>
      <point x="567" y="426"/>
      <point x="510" y="475"/>
      <point x="408" y="475" type="curve" smooth="yes"/>
      <point x="221" y="475"/>
      <point x="74" y="320"/>
      <point x="74" y="158" type="curve" smooth="yes"/>
      <point x="74" y="39"/>
      <point x="141" y="-5"/>
      <point x="393" y="-5" type="curve"/>
    </contour>
    <contour>
      <point x="408" y="425" type="curve" smooth="yes"/>
      <point x="471" y="425"/>
      <point x="505" y="394"/>
      <point x="505" y="358" type="curve" smooth="yes"/>
      <point x="505" y="312"/>
      <point x="468" y="264"/>
      <point x="304" y="248" type="curve" smooth="yes"/>
      <point x="148" y="233" type="line"/>
      <point x="182" y="341"/>
      <point x="290" y="425"/>
    </contour>
  </outline>
</glyph>
<glyph name="f" format="2">
  <advance width="614"/>
  <unicode hex="0066"/>
  <guideline x="655" y="714" angle="106.0" identifier="KdhEjVeBcn"/>
  <outline>
    <contour>
      <point x="128" y="410" type="line"/>
      <point x="289" y="410" type="line"/>
      <point x="171" y="0" type="line"/>
      <point x="230" y="0" type="line"/>
      <point x="348" y="410" type="line"/>
      <point x="555" y="410" type="line"/>
      <point x="569" y="460" type="line"/>
      <point x="362" y="460" type="line"/>
      <point x="383" y="534" type="line" smooth="yes"/>
      <point x="407" y="617"/>
      <point x="445" y="653"/>
      <point x="543" y="659" type="curve" smooth="yes"/>
      <point x="667" y="667" type="line"/>
      <point x="667" y="719" type="line"/>
      <point x="551" y="711" type="line" smooth="yes"/>
      <point x="410" y="701"/>
      <point x="359" y="658"/>
      <point x="325" y="537" type="curve" smooth="yes"/>
      <point x="303" y="460" type="line"/>
      <point x="142" y="460" type="line"/>
    </contour>
  </outline>
</glyph>
<glyph name="g" format="2">
  <advance width="614"/>
  <unicode hex="0067"/>
  <anchor x="384" y="502" name="aboveLC"/>
  <anchor x="374" y="467" name="aboveLCx"/>
  <outline>
    <contour>
      <point x="397" y="29" type="line" smooth="yes"/>
      <point x="349" y="-136"/>
      <point x="294" y="-173"/>
      <point x="126" y="-182" type="curve" smooth="yes"/>
      <point x="17" y="-188" type="line"/>
      <point x="17" y="-239" type="line"/>
      <point x="132" y="-232" type="line" smooth="yes"/>
      <point x="341" y="-219"/>
      <point x="399" y="-175"/>
      <point x="458" y="32" type="curve" smooth="yes"/>
      <point x="570" y="426" type="line"/>
      <point x="510" y="454"/>
      <point x="451" y="468"/>
      <point x="395" y="468" type="curve" smooth="yes"/>
      <point x="183" y="468"/>
      <point x="54" y="337"/>
      <point x="54" y="184" type="curve" smooth="yes"/>
      <point x="54" y="82"/>
      <point x="119" y="16"/>
      <point x="214" y="16" type="curve" smooth="yes"/>
      <point x="283" y="16"/>
      <point x="344" y="44"/>
      <point x="424" y="124" type="curve"/>
    </contour>
    <contour>
      <point x="116" y="187" type="curve" smooth="yes"/>
      <point x="116" y="292"/>
      <point x="204" y="418"/>
      <point x="399" y="418" type="curve" smooth="yes"/>
      <point x="435" y="418"/>
      <point x="469" y="412"/>
      <point x="503" y="398" type="curve"/>
      <point x="444" y="193" type="line"/>
      <point x="326" y="83"/>
      <point x="279" y="66"/>
      <point x="220" y="66" type="curve" smooth="yes"/>
      <point x="161" y="66"/>
      <point x="116" y="112"/>
    </contour>
  </outline>
</glyph>
<glyph name="i" format="2">
  <advance width="614"/>
  <unicode hex="0069"/>
  <anchor x="245" y="-35" name="below"/>
  <anchor x="253" y="-10" name="belowogonek"/>
  <outline>
    <contour>
      <point x="408" y="614" type="curve" smooth="yes"/>
      <point x="449" y="614"/>
      <point x="478" y="642"/>
      <point x="478" y="675" type="curve" smooth="yes"/>
      <point x="478" y="704"/>
      <point x="459" y="721"/>
      <point x="421" y="721" type="curve" smooth="yes"/>
      <point x="376" y="721"/>
      <point x="351" y="690"/>
      <point x="351" y="661" type="curve" smooth="yes"/>
      <point x="351" y="630"/>
      <point x="375" y="614"/>
    </contour>
    <contour>
      <point x="71" y="50" type="line"/>
      <point x="57" y="0" type="line"/>
      <point x="456" y="0" type="line"/>
      <point x="470" y="50" type="line"/>
      <point x="291" y="50" type="line"/>
      <point x="430" y="460" type="line"/>
      <point x="209" y="460" type="line"/>
      <point x="195" y="410" type="line"/>
      <point x="354" y="410" type="line"/>
      <point x="232" y="50" type="line"/>
    </contour>
  </outline>
</glyph>
<glyph name="j" format="2">
  <advance width="614"/>
  <unicode hex="006A"/>
  <outline>
    <contour>
      <point x="461" y="614" type="curve" smooth="yes"/>
      <point x="502" y="614"/>
      <point x="531" y="642"/>
      <point x="531" y="675" type="curve" smooth="yes"/>
      <point x="531" y="704"/>
      <point x="512" y="721"/>
      <point x="474" y="721" type="curve" smooth="yes"/>
      <point x="429" y="721"/>
      <point x="404" y="690"/>
      <point x="404" y="661" type="curve" smooth="yes"/>
      <point x="404" y="630"/>
      <point x="428" y="614"/>
    </contour>
    <contour>
      <point x="334" y="8" type="curve" smooth="yes"/>
      <point x="464" y="460" type="line"/>
      <point x="194" y="460" type="line"/>
      <point x="180" y="410" type="line"/>
      <point x="391" y="410" type="line"/>
      <point x="277" y="13" type="line" smooth="yes"/>
      <point x="236" y="-130"/>
      <point x="199" y="-174"/>
      <point x="33" y="-184" type="curve" smooth="yes"/>
      <point x="-32" y="-188" type="line"/>
      <point x="-32" y="-239" type="line"/>
      <point x="36" y="-234" type="line" smooth="yes"/>
      <point x="245" y="-219"/>
      <point x="281" y="-176"/>
    </contour>
  </outline>
</glyph>
<glyph name="m" format="2">
  <advance width="614"/>
  <unicode hex="006D"/>
  <anchor x="387" y="502" name="aboveLC"/>
  <anchor x="234" y="-35" name="below"/>
  <outline>
    <contour>
      <point x="173" y="460" type="line"/>
      <point x="124" y="460" type="line"/>
      <point x="-8" y="0" type="line"/>
      <point x="50" y="0" type="line"/>
      <point x="121" y="249" type="line"/>
      <point x="240" y="397"/>
      <point x="270" y="415"/>
      <point x="295" y="415" type="curve" smooth="yes"/>
      <point x="311" y="415"/>
      <point x="321" y="408"/>
      <point x="321" y="391" type="curve" smooth="yes"/>
      <point x="321" y="382"/>
      <point x="318" y="371"/>
      <point x="313" y="354" type="curve" smooth="yes"/>
      <point x="212" y="0" type="line"/>
      <point x="270" y="0" type="line"/>
      <point x="342" y="249" type="line"/>
      <point x="460" y="397"/>
      <point x="490" y="415"/>
      <point x="515" y="415" type="curve" smooth="yes"/>
      <point x="531" y="415"/>
      <point x="541" y="408"/>
      <point x="541" y="391" type="curve" smooth="yes"/>
      <point x="541" y="382"/>
      <point x="538" y="371"/>
      <point x="533" y="354" type="curve" smooth="yes"/>
      <point x="432" y="0" type="line"/>
      <point x="490" y="0" type="line"/>
      <point x="597" y="372" type="line" smooth="yes"/>
      <point x="600" y="383"/>
      <point x="602" y="393"/>
      <point x="602" y="403" type="curve" smooth="yes"/>
      <point x="602" y="440"/>
      <point x="577" y="465"/>
      <point x="535" y="465" type="curve" smooth="yes"/>
      <point x="493" y="465"/>
      <point x="446" y="436"/>
      <point x="367" y="330" type="curve"/>
      <point x="365" y="330" type="line"/>
      <point x="377" y="372" type="line" smooth="yes"/>
      <point x="380" y="383"/>
      <point x="382" y="393"/>
      <point x="382" y="403" type="curve" smooth="yes"/>
      <point x="382" y="440"/>
      <point x="357" y="465"/>
      <point x="315" y="465" type="curve" smooth="yes"/>
      <point x="273" y="465"/>
      <point x="223" y="435"/>
      <point x="144" y="325" type="curve"/>
      <point x="142" y="325" type="line"/>
    </contour>
  </outline>
</glyph>
<glyph name="n" format="2">
  <advance width="614"/>
  <unicode hex="006E"/>
  <anchor x="383" y="502" name="aboveLC"/>
  <anchor x="239" y="-35" name="below"/>
  <anchor x="249" y="0" name="belowx"/>
  <outline>
    <contour>
      <point x="228" y="460" type="line"/>
      <point x="169" y="460" type="line"/>
      <point x="37" y="0" type="line"/>
      <point x="96" y="0" type="line"/>
      <point x="159" y="220" type="line"/>
      <point x="329" y="392"/>
      <point x="368" y="413"/>
      <point x="422" y="413" type="curve" smooth="yes"/>
      <point x="460" y="413"/>
      <point x="485" y="395"/>
      <point x="485" y="360" type="curve" smooth="yes"/>
      <point x="485" y="347"/>
      <point x="483" y="331"/>
      <point x="472" y="292" type="curve" smooth="yes"/>
      <point x="388" y="0" type="line"/>
      <point x="447" y="0" type="line"/>
      <point x="529" y="284" type="line" smooth="yes"/>
      <point x="542" y="331"/>
      <point x="546" y="354"/>
      <point x="546" y="369" type="curve" smooth="yes"/>
      <point x="546" y="428"/>
      <point x="500" y="465"/>
      <point x="437" y="465" type="curve" smooth="yes"/>
      <point x="366" y="465"/>
      <point x="319" y="443"/>
      <point x="183" y="304" type="curve"/>
    </contour>
  </outline>
</glyph>
<glyph name="o" format="2">
  <advance width="614"/>
  <unicode hex="006F"/>
  <anchor x="376" y="507" name="aboveLC"/>
  <anchor x="366" y="472" name="aboveLCx"/>
  <anchor x="244" y="-40" name="below"/>
  <anchor x="245" y="-15" name="belowogonek"/>
  <outline>
    <contour>
      <point x="356" y="475" type="curve" smooth="yes"/>
      <point x="177" y="475"/>
      <point x="58" y="329"/>
      <point x="58" y="187" type="curve" smooth="yes"/>
      <point x="58" y="75"/>
      <point x="132" y="-15"/>
      <point x="258" y="-15" type="curve" smooth="yes"/>
      <point x="437" y="-15"/>
      <point x="556" y="131"/>
      <point x="556" y="273" type="curve" smooth="yes"/>
      <point x="556" y="385"/>
      <point x="482" y="475"/>
    </contour>
    <contour>
      <point x="263" y="34" type="curve" smooth="yes"/>
      <point x="180" y="34"/>
      <point x="118" y="97"/>
      <point x="118" y="185" type="curve" smooth="yes"/>
      <point x="118" y="312"/>
      <point x="226" y="426"/>
      <point x="351" y="426" type="curve" smooth="yes"/>
      <point x="434" y="426"/>
      <point x="496" y="363"/>
      <point x="496" y="275" type="curve" smooth="yes"/>
      <point x="496" y="148"/>
      <point x="388" y="34"/>
    </contour>
  </outline>
</glyph>
<glyph name="p" format="2">
  <advance width="614"/>
  <unicode hex="0070"/>
  <anchor x="406" y="502" name="aboveLC"/>
  <outline>
    <contour>
      <point x="-32" y="-230" type="line"/>
      <point x="27" y="-230" type="line"/>
      <point x="97" y="16" type="line"/>
      <point x="132" y="2"/>
      <point x="174" y="-8"/>
      <point x="221" y="-8" type="curve" smooth="yes"/>
      <point x="430" y="-8"/>
      <point x="557" y="133"/>
      <point x="557" y="300" type="curve" smooth="yes"/>
      <point x="557" y="404"/>
      <point x="495" y="468"/>
      <point x="394" y="468" type="curve" smooth="yes"/>
      <point x="329" y="468"/>
      <point x="271" y="439"/>
      <point x="195" y="363" type="curve"/>
      <point x="215" y="460" type="line"/>
      <point x="166" y="460" type="line"/>
    </contour>
    <contour>
      <point x="388" y="418" type="curve" smooth="yes"/>
      <point x="449" y="418"/>
      <point x="495" y="372"/>
      <point x="495" y="297" type="curve" smooth="yes"/>
      <point x="495" y="182"/>
      <point x="410" y="42"/>
      <point x="222" y="42" type="curve" smooth="yes"/>
      <point x="177" y="42"/>
      <point x="141" y="51"/>
      <point x="112" y="66" type="curve"/>
      <point x="178" y="297" type="line"/>
      <point x="289" y="401"/>
      <point x="332" y="418"/>
    </contour>
  </outline>
</glyph>
<glyph name="q" format="2">
  <advance width="614"/>
  <unicode hex="0071"/>
  <outline>
    <contour>
      <point x="323" y="-230" type="line"/>
      <point x="382" y="-230" type="line"/>
      <point x="570" y="426" type="line"/>
      <point x="510" y="454"/>
      <point x="451" y="468"/>
      <point x="396" y="468" type="curve" smooth="yes"/>
      <point x="184" y="468"/>
      <point x="56" y="327"/>
      <point x="56" y="160" type="curve" smooth="yes"/>
      <point x="56" y="58"/>
      <point x="119" y="-8"/>
      <point x="212" y="-8" type="curve" smooth="yes"/>
      <point x="279" y="-8"/>
      <point x="338" y="18"/>
      <point x="416" y="93" type="curve"/>
    </contour>
    <contour>
      <point x="118" y="163" type="curve" smooth="yes"/>
      <point x="118" y="278"/>
      <point x="205" y="418"/>
      <point x="399" y="418" type="curve" smooth="yes"/>
      <point x="435" y="418"/>
      <point x="469" y="412"/>
      <point x="503" y="398" type="curve"/>
      <point x="436" y="163" type="line"/>
      <point x="322" y="58"/>
      <point x="276" y="42"/>
      <point x="218" y="42" type="curve" smooth="yes"/>
      <point x="161" y="42"/>
      <point x="118" y="88"/>
    </contour>
  </outline>
</glyph>
<glyph name="r" format="2">
  <advance width="614"/>
  <unicode hex="0072"/>
  <guideline x="42" y="0" angle="106.0" identifier="CLmzBqbu6e"/>
  <anchor x="371" y="502" name="aboveLC"/>
  <anchor x="160" y="-35" name="below"/>
  <outline>
    <contour>
      <point x="2" y="50" type="line"/>
      <point x="-13" y="0" type="line"/>
      <point x="336" y="0" type="line"/>
      <point x="351" y="50" type="line"/>
      <point x="190" y="50" type="line"/>
      <point x="239" y="219" type="line"/>
      <point x="410" y="382"/>
      <point x="425" y="388"/>
      <point x="513" y="396" type="curve" smooth="yes"/>
      <point x="593" y="403" type="line"/>
      <point x="593" y="463" type="line"/>
      <point x="524" y="459" type="line" smooth="yes"/>
      <point x="429" y="453"/>
      <point x="401" y="437"/>
      <point x="257" y="286" type="curve"/>
      <point x="303" y="460" type="line"/>
      <point x="139" y="460" type="line"/>
      <point x="125" y="410" type="line"/>
      <point x="235" y="410" type="line"/>
      <point x="131" y="50" type="line"/>
    </contour>
  </outline>
</glyph>
<glyph name="t" format="2">
  <advance width="614"/>
  <unicode hex="0074"/>
  <anchor x="577" y="787" name="topright"/>
  <anchor x="259" y="-35" name="below"/>
  <anchor x="254" y="-10" name="belowcedilla"/>
  <outline>
    <contour>
      <point x="276" y="220" type="curve" smooth="yes"/>
      <point x="346" y="410" type="line"/>
      <point x="551" y="410" type="line"/>
      <point x="565" y="460" type="line"/>
      <point x="364" y="460" type="line"/>
      <point x="429" y="637" type="line"/>
      <point x="370" y="637" type="line"/>
      <point x="305" y="460" type="line"/>
      <point x="130" y="460" type="line"/>
      <point x="116" y="410" type="line"/>
      <point x="286" y="410" type="line"/>
      <point x="221" y="232" type="line" smooth="yes"/>
      <point x="198" y="168"/>
      <point x="193" y="135"/>
      <point x="193" y="116" type="curve" smooth="yes"/>
      <point x="193" y="38"/>
      <point x="247" y="0"/>
      <point x="348" y="-4" type="curve" smooth="yes"/>
      <point x="453" y="-8" type="line"/>
      <point x="467" y="43" type="line"/>
      <point x="342" y="50" type="line" smooth="yes"/>
      <point x="283" y="53"/>
      <point x="253" y="74"/>
      <point x="253" y="121" type="curve" smooth="yes"/>
      <point x="253" y="137"/>
      <point x="256" y="164"/>
    </contour>
  </outline>
</glyph>
<glyph name="u" format="2">
  <advance width="614"/>
  <unicode hex="0075"/>
  <anchor x="384" y="502" name="aboveLC"/>
  <anchor x="221" y="-35" name="below"/>
  <anchor x="415" y="-10" name="belowogonek"/>
  <anchor x="373" y="461" name="aboveLCx"/>
  <outline>
    <contour>
      <point x="386" y="0" type="line"/>
      <point x="445" y="0" type="line"/>
      <point x="577" y="460" type="line"/>
      <point x="518" y="460" type="line"/>
      <point x="455" y="240" type="line"/>
      <point x="285" y="68"/>
      <point x="246" y="47"/>
      <point x="192" y="47" type="curve" smooth="yes"/>
      <point x="154" y="47"/>
      <point x="129" y="65"/>
      <point x="129" y="100" type="curve" smooth="yes"/>
      <point x="129" y="113"/>
      <point x="131" y="129"/>
      <point x="142" y="168" type="curve" smooth="yes"/>
      <point x="226" y="460" type="line"/>
      <point x="167" y="460" type="line"/>
      <point x="85" y="176" type="line" smooth="yes"/>
      <point x="72" y="129"/>
      <point x="68" y="106"/>
      <point x="68" y="91" type="curve" smooth="yes"/>
      <point x="68" y="32"/>
      <point x="114" y="-5"/>
      <point x="177" y="-5" type="curve" smooth="yes"/>
      <point x="248" y="-5"/>
      <point x="295" y="17"/>
      <point x="431" y="156" type="curve"/>
    </contour>
  </outline>
</glyph>
<glyph name="y" format="2">
  <advance width="614"/>
  <unicode hex="0079"/>
  <anchor x="390" y="502" name="aboveLC"/>
  <anchor x="389" y="-35" name="below"/>
  <anchor x="380" y="467" name="aboveLCx"/>
  <outline>
    <contour>
      <point x="195" y="-130" type="curve" smooth="yes"/>
      <point x="611" y="460" type="line"/>
      <point x="538" y="460" type="line"/>
      <point x="251" y="42" type="line"/>
      <point x="186" y="460" type="line"/>
      <point x="127" y="460" type="line"/>
      <point x="209" y="-18" type="line"/>
      <point x="147" y="-103" type="line" smooth="yes"/>
      <point x="96" y="-173"/>
      <point x="89" y="-177"/>
      <point x="18" y="-179" type="curve" smooth="yes"/>
      <point x="-77" y="-182" type="line"/>
      <point x="-76" y="-233" type="line"/>
      <point x="19" y="-230" type="line" smooth="yes"/>
      <point x="126" y="-227"/>
      <point x="133" y="-219"/>
    </contour>
  </outline>
</glyph>
<glyph name="z" format="2">
  <advance width="614"/>
  <unicode hex="007A"/>
  <anchor x="387" y="502" name="aboveLC"/>
  <anchor x="249" y="-35" name="below"/>
  <anchor x="256" y="-10" name="belowcedilla"/>
  <outline>
    <contour>
      <point x="33" y="0" type="line"/>
      <point x="473" y="0" type="line"/>
      <point x="488" y="51" type="line"/>
      <point x="141" y="51" type="line"/>
      <point x="141" y="53" type="line"/>
      <point x="581" y="431" type="line"/>
      <point x="581" y="460" type="line"/>
      <point x="155" y="460" type="line"/>
      <point x="141" y="410" type="line"/>
      <point x="477" y="410" type="line"/>
      <point x="477" y="407" type="line"/>
      <point x="33" y="29" type="line"/>
    </contour>
  </outline>
</glyph>
<glyph name="braceleft" format="2">
  <advance width="614"/>
  <unicode hex="007B"/>
  <guideline x="429" y="700" angle="0.0" identifier="fcsuI7zwOk"/>
  <outline>
    <contour>
      <point x="129" y="-42" type="curve" smooth="yes"/>
      <point x="129" y="-72"/>
      <point x="150" y="-96"/>
      <point x="204" y="-104" type="curve" smooth="yes"/>
      <point x="425" y="-135" type="line"/>
      <point x="439" y="-87" type="line"/>
      <point x="225" y="-56" type="line" smooth="yes"/>
      <point x="198" y="-52"/>
      <point x="190" y="-43"/>
      <point x="190" y="-31" type="curve" smooth="yes"/>
      <point x="190" y="-17"/>
      <point x="195" y="-9"/>
      <point x="243" y="33" type="curve" smooth="yes"/>
      <point x="308" y="90" type="line" smooth="yes"/>
      <point x="384" y="157"/>
      <point x="395" y="178"/>
      <point x="395" y="202" type="curve" smooth="yes"/>
      <point x="395" y="245"/>
      <point x="371" y="262"/>
      <point x="177" y="324" type="curve"/>
      <point x="177" y="327" type="line"/>
      <point x="462" y="400"/>
      <point x="476" y="441"/>
      <point x="476" y="484" type="curve" smooth="yes"/>
      <point x="476" y="507"/>
      <point x="467" y="527"/>
      <point x="443" y="568" type="curve" smooth="yes"/>
      <point x="410" y="625" type="line" smooth="yes"/>
      <point x="395" y="651"/>
      <point x="391" y="665"/>
      <point x="391" y="675" type="curve" smooth="yes"/>
      <point x="391" y="692"/>
      <point x="401" y="710"/>
      <point x="447" y="716" type="curve" smooth="yes"/>
      <point x="678" y="747" type="line"/>
      <point x="692" y="797" type="line"/>
      <point x="454" y="766" type="line" smooth="yes"/>
      <point x="357" y="753"/>
      <point x="332" y="713"/>
      <point x="332" y="671" type="curve" smooth="yes"/>
      <point x="332" y="651"/>
      <point x="342" y="628"/>
      <point x="361" y="594" type="curve" smooth="yes"/>
      <point x="393" y="537" type="line" smooth="yes"/>
      <point x="409" y="509"/>
      <point x="413" y="495"/>
      <point x="413" y="485" type="curve" smooth="yes"/>
      <point x="413" y="451"/>
      <point x="395" y="430"/>
      <point x="117" y="361" type="curve"/>
      <point x="99" y="301" type="line"/>
      <point x="302" y="243"/>
      <point x="332" y="219"/>
      <point x="332" y="198" type="curve" smooth="yes"/>
      <point x="332" y="180"/>
      <point x="328" y="173"/>
      <point x="275" y="127" type="curve" smooth="yes"/>
      <point x="210" y="70" type="line" smooth="yes"/>
      <point x="143" y="12"/>
      <point x="129" y="-11"/>
    </contour>
  </outline>
</glyph>
<glyph name="braceright" format="2">
  <advance width="614"/>
  <unicode hex="007D"/>
  <outline>
    <contour>
      <point x="340" y="-9" type="curve" smooth="yes"/>
      <point x="340" y="11"/>
      <point x="330" y="34"/>
      <point x="311" y="68" type="curve" smooth="yes"/>
      <point x="279" y="125" type="line" smooth="yes"/>
      <point x="263" y="153"/>
      <point x="259" y="167"/>
      <point x="259" y="177" type="curve" smooth="yes"/>
      <point x="259" y="211"/>
      <point x="277" y="232"/>
      <point x="555" y="301" type="curve"/>
      <point x="573" y="361" type="line"/>
      <point x="370" y="419"/>
      <point x="340" y="443"/>
      <point x="340" y="464" type="curve" smooth="yes"/>
      <point x="340" y="482"/>
      <point x="344" y="489"/>
      <point x="397" y="535" type="curve" smooth="yes"/>
      <point x="462" y="592" type="line" smooth="yes"/>
      <point x="529" y="650"/>
      <point x="543" y="673"/>
      <point x="543" y="704" type="curve" smooth="yes"/>
      <point x="543" y="734"/>
      <point x="522" y="758"/>
      <point x="468" y="766" type="curve" smooth="yes"/>
      <point x="247" y="797" type="line"/>
      <point x="233" y="749" type="line"/>
      <point x="447" y="718" type="line" smooth="yes"/>
      <point x="474" y="714"/>
      <point x="482" y="705"/>
      <point x="482" y="693" type="curve" smooth="yes"/>
      <point x="482" y="679"/>
      <point x="477" y="671"/>
      <point x="429" y="629" type="curve" smooth="yes"/>
      <point x="364" y="572" type="line" smooth="yes"/>
      <point x="288" y="505"/>
      <point x="277" y="484"/>
      <point x="277" y="460" type="curve" smooth="yes"/>
      <point x="277" y="417"/>
      <point x="300" y="400"/>
      <point x="494" y="338" type="curve"/>
      <point x="494" y="335" type="line"/>
      <point x="209" y="262"/>
      <point x="196" y="221"/>
      <point x="196" y="178" type="curve" smooth="yes"/>
      <point x="196" y="155"/>
      <point x="205" y="135"/>
      <point x="229" y="94" type="curve" smooth="yes"/>
      <point x="262" y="37" type="line" smooth="yes"/>
      <point x="277" y="11"/>
      <point x="281" y="-3"/>
      <point x="281" y="-13" type="curve" smooth="yes"/>
      <point x="281" y="-30"/>
      <point x="271" y="-48"/>
      <point x="225" y="-54" type="curve" smooth="yes"/>
      <point x="-6" y="-85" type="line"/>
      <point x="-20" y="-135" type="line"/>
      <point x="218" y="-104" type="line" smooth="yes"/>
      <point x="315" y="-91"/>
      <point x="340" y="-51"/>
    </contour>
  </outline>
</glyph>
<glyph name="asciitilde" format="2">
  <advance width="614"/>
  <unicode hex="007E"/>
  <outline>
    <contour>
      <point x="340" y="365" type="curve" smooth="yes"/>
      <point x="267" y="424"/>
      <point x="246" y="432"/>
      <point x="222" y="432" type="curve" smooth="yes"/>
      <point x="180" y="432"/>
      <point x="156" y="419"/>
      <point x="55" y="253" type="curve"/>
      <point x="103" y="224" type="line"/>
      <point x="179" y="346"/>
      <point x="196" y="371"/>
      <point x="222" y="371" type="curve" smooth="yes"/>
      <point x="237" y="371"/>
      <point x="247" y="366"/>
      <point x="323" y="304" type="curve" smooth="yes"/>
      <point x="396" y="245"/>
      <point x="417" y="237"/>
      <point x="441" y="237" type="curve" smooth="yes"/>
      <point x="483" y="237"/>
      <point x="507" y="250"/>
      <point x="608" y="416" type="curve"/>
      <point x="560" y="445" type="line"/>
      <point x="484" y="323"/>
      <point x="467" y="298"/>
      <point x="441" y="298" type="curve" smooth="yes"/>
      <point x="426" y="298"/>
      <point x="416" y="303"/>
    </contour>
  </outline>
</glyph>
<glyph name="cent" format="2">
  <advance width="614"/>
  <unicode hex="00A2"/>
  <outline>
    <contour>
      <point x="177" y="-142" type="line"/>
      <point x="234" y="-142" type="line"/>
      <point x="283" y="1" type="line"/>
      <point x="340" y="4"/>
      <point x="404" y="17"/>
      <point x="502" y="66" type="curve"/>
      <point x="479" y="113" type="line"/>
      <point x="394" y="73"/>
      <point x="339" y="56"/>
      <point x="295" y="51" type="curve"/>
      <point x="424" y="435" type="line"/>
      <point x="458" y="427"/>
      <point x="495" y="408"/>
      <point x="549" y="372" type="curve"/>
      <point x="582" y="421" type="line"/>
      <point x="530" y="454"/>
      <point x="489" y="474"/>
      <point x="446" y="483" type="curve"/>
      <point x="497" y="632" type="line"/>
      <point x="440" y="632" type="line"/>
      <point x="391" y="490" type="line"/>
      <point x="386" y="490"/>
      <point x="380" y="490"/>
      <point x="375" y="490" type="curve" smooth="yes"/>
      <point x="298" y="490"/>
      <point x="220" y="455"/>
      <point x="164" y="399" type="curve" smooth="yes"/>
      <point x="97" y="332"/>
      <point x="72" y="252"/>
      <point x="72" y="176" type="curve" smooth="yes"/>
      <point x="72" y="73"/>
      <point x="133" y="11"/>
      <point x="226" y="1" type="curve"/>
    </contour>
    <contour>
      <point x="136" y="182" type="curve" smooth="yes"/>
      <point x="136" y="244"/>
      <point x="166" y="319"/>
      <point x="215" y="368" type="curve" smooth="yes"/>
      <point x="259" y="412"/>
      <point x="319" y="439"/>
      <point x="381" y="440" type="curve"/>
      <point x="250" y="51" type="line"/>
      <point x="178" y="58"/>
      <point x="136" y="109"/>
    </contour>
  </outline>
</glyph>
<glyph name="sterling" format="2">
  <advance width="614"/>
  <unicode hex="00A3"/>
  <outline>
    <contour>
      <point x="10" y="0" type="line"/>
      <point x="485" y="0" type="line"/>
      <point x="500" y="51" type="line"/>
      <point x="107" y="51" type="line"/>
      <point x="248" y="160"/>
      <point x="292" y="209"/>
      <point x="306" y="248" type="curve"/>
      <point x="517" y="248" type="line"/>
      <point x="530" y="296" type="line"/>
      <point x="312" y="296" type="line"/>
      <point x="312" y="362"/>
      <point x="247" y="409"/>
      <point x="247" y="483" type="curve" smooth="yes"/>
      <point x="247" y="554"/>
      <point x="309" y="619"/>
      <point x="418" y="619" type="curve" smooth="yes"/>
      <point x="502" y="619"/>
      <point x="546" y="580"/>
      <point x="576" y="508" type="curve"/>
      <point x="632" y="534" type="line"/>
      <point x="591" y="623"/>
      <point x="534" y="670"/>
      <point x="421" y="670" type="curve" smooth="yes"/>
      <point x="268" y="670"/>
      <point x="183" y="580"/>
      <point x="183" y="482" type="curve" smooth="yes"/>
      <point x="183" y="388"/>
      <point x="242" y="350"/>
      <point x="249" y="296" type="curve"/>
      <point x="106" y="296" type="line"/>
      <point x="93" y="248" type="line"/>
      <point x="240" y="248" type="line"/>
      <point x="220" y="209"/>
      <point x="162" y="150"/>
      <point x="10" y="37" type="curve"/>
    </contour>
  </outline>
</glyph>
<glyph name="section" format="2">
  <advance width="614"/>
  <unicode hex="00A7"/>
  <outline>
    <contour>
      <point x="51" y="194" type="curve" smooth="yes"/>
      <point x="51" y="141"/>
      <point x="70" y="110"/>
      <point x="179" y="41" type="curve" smooth="yes"/>
      <point x="266" y="-14" type="line" smooth="yes"/>
      <point x="342" y="-62"/>
      <point x="349" y="-80"/>
      <point x="349" y="-111" type="curve" smooth="yes"/>
      <point x="349" y="-159"/>
      <point x="314" y="-189"/>
      <point x="183" y="-189" type="curve" smooth="yes"/>
      <point x="122" y="-189"/>
      <point x="68" y="-182"/>
      <point x="14" y="-168" type="curve"/>
      <point x="0" y="-221" type="line"/>
      <point x="52" y="-232"/>
      <point x="121" y="-240"/>
      <point x="183" y="-240" type="curve" smooth="yes"/>
      <point x="346" y="-240"/>
      <point x="409" y="-187"/>
      <point x="409" y="-105" type="curve" smooth="yes"/>
      <point x="409" y="-56"/>
      <point x="393" y="-23"/>
      <point x="309" y="30" type="curve"/>
      <point x="530" y="126"/>
      <point x="554" y="171"/>
      <point x="554" y="236" type="curve" smooth="yes"/>
      <point x="554" y="289"/>
      <point x="535" y="320"/>
      <point x="426" y="389" type="curve" smooth="yes"/>
      <point x="339" y="444" type="line" smooth="yes"/>
      <point x="263" y="492"/>
      <point x="256" y="510"/>
      <point x="256" y="541" type="curve" smooth="yes"/>
      <point x="256" y="589"/>
      <point x="291" y="619"/>
      <point x="422" y="619" type="curve" smooth="yes"/>
      <point x="483" y="619"/>
      <point x="537" y="612"/>
      <point x="591" y="598" type="curve"/>
      <point x="605" y="651" type="line"/>
      <point x="553" y="662"/>
      <point x="484" y="670"/>
      <point x="422" y="670" type="curve" smooth="yes"/>
      <point x="259" y="670"/>
      <point x="196" y="617"/>
      <point x="196" y="535" type="curve" smooth="yes"/>
      <point x="196" y="486"/>
      <point x="211" y="455"/>
      <point x="296" y="400" type="curve"/>
      <point x="75" y="304"/>
      <point x="51" y="259"/>
    </contour>
    <contour>
      <point x="232" y="79" type="line" smooth="yes"/>
      <point x="126" y="147"/>
      <point x="113" y="165"/>
      <point x="113" y="200" type="curve" smooth="yes"/>
      <point x="113" y="245"/>
      <point x="124" y="269"/>
      <point x="339" y="373" type="curve"/>
      <point x="373" y="351" type="line" smooth="yes"/>
      <point x="479" y="283"/>
      <point x="492" y="265"/>
      <point x="492" y="230" type="curve" smooth="yes"/>
      <point x="492" y="185"/>
      <point x="481" y="161"/>
      <point x="266" y="57" type="curve"/>
    </contour>
  </outline>
</glyph>
<glyph name="copyright" format="2">
  <advance width="614"/>
  <unicode hex="00A9"/>
  <outline>
    <contour>
      <point x="581" y="308" type="curve" smooth="yes"/>
      <point x="609" y="407"/>
      <point x="623" y="486"/>
      <point x="623" y="546" type="curve" smooth="yes"/>
      <point x="623" y="679"/>
      <point x="554" y="725"/>
      <point x="440" y="725" type="curve" smooth="yes"/>
      <point x="293" y="725"/>
      <point x="172" y="636"/>
      <point x="89" y="348" type="curve" smooth="yes"/>
      <point x="61" y="250"/>
      <point x="48" y="172"/>
      <point x="48" y="112" type="curve" smooth="yes"/>
      <point x="48" y="-23"/>
      <point x="116" y="-70"/>
      <point x="230" y="-70" type="curve" smooth="yes"/>
      <point x="378" y="-70"/>
      <point x="498" y="20"/>
    </contour>
    <contour>
      <point x="134" y="328" type="curve" smooth="yes"/>
      <point x="214" y="606"/>
      <point x="314" y="680"/>
      <point x="437" y="680" type="curve" smooth="yes"/>
      <point x="523" y="680"/>
      <point x="575" y="647"/>
      <point x="575" y="546" type="curve" smooth="yes"/>
      <point x="575" y="493"/>
      <point x="563" y="422"/>
      <point x="536" y="328" type="curve" smooth="yes"/>
      <point x="456" y="50"/>
      <point x="357" y="-25"/>
      <point x="233" y="-25" type="curve" smooth="yes"/>
      <point x="147" y="-25"/>
      <point x="95" y="8"/>
      <point x="95" y="113" type="curve" smooth="yes"/>
      <point x="95" y="166"/>
      <point x="108" y="236"/>
    </contour>
    <contour>
      <point x="280" y="97" type="curve" smooth="yes"/>
      <point x="320" y="97"/>
      <point x="354" y="107"/>
      <point x="419" y="172" type="curve"/>
      <point x="389" y="202" type="line"/>
      <point x="334" y="147"/>
      <point x="310" y="140"/>
      <point x="288" y="140" type="curve" smooth="yes"/>
      <point x="259" y="140"/>
      <point x="243" y="163"/>
      <point x="243" y="212" type="curve" smooth="yes"/>
      <point x="243" y="321"/>
      <point x="321" y="515"/>
      <point x="399" y="515" type="curve" smooth="yes"/>
      <point x="424" y="515"/>
      <point x="439" y="505"/>
      <point x="472" y="456" type="curve"/>
      <point x="508" y="484" type="line"/>
      <point x="467" y="547"/>
      <point x="442" y="558"/>
      <point x="403" y="558" type="curve" smooth="yes"/>
      <point x="284" y="558"/>
      <point x="192" y="347"/>
      <point x="192" y="210" type="curve" smooth="yes"/>
      <point x="192" y="136"/>
      <point x="220" y="97"/>
    </contour>
  </outline>
</glyph>
<glyph name="ordfeminine" format="2">
  <advance width="614"/>
  <unicode hex="00AA"/>
  <outline>
    <contour>
      <point x="492" y="409" type="curve" smooth="yes"/>
      <point x="546" y="578" type="line" smooth="yes"/>
      <point x="551" y="593"/>
      <point x="553" y="605"/>
      <point x="553" y="617" type="curve" smooth="yes"/>
      <point x="553" y="666"/>
      <point x="511" y="692"/>
      <point x="419" y="692" type="curve" smooth="yes"/>
      <point x="361" y="692"/>
      <point x="318" y="687"/>
      <point x="266" y="679" type="curve"/>
      <point x="253" y="632" type="line"/>
      <point x="319" y="644"/>
      <point x="375" y="648"/>
      <point x="405" y="648" type="curve" smooth="yes"/>
      <point x="475" y="648"/>
      <point x="500" y="634"/>
      <point x="500" y="607" type="curve" smooth="yes"/>
      <point x="500" y="599"/>
      <point x="498" y="591"/>
      <point x="495" y="580" type="curve" smooth="yes"/>
      <point x="485" y="547" type="line"/>
      <point x="367" y="537" type="line" smooth="yes"/>
      <point x="263" y="528"/>
      <point x="225" y="517"/>
      <point x="199" y="491" type="curve" smooth="yes"/>
      <point x="175" y="467"/>
      <point x="162" y="431"/>
      <point x="162" y="395" type="curve" smooth="yes"/>
      <point x="162" y="357"/>
      <point x="182" y="325"/>
      <point x="251" y="325" type="curve" smooth="yes"/>
      <point x="309" y="325"/>
      <point x="359" y="342"/>
      <point x="431" y="384" type="curve"/>
      <point x="435" y="384" type="line"/>
      <point x="440" y="352"/>
      <point x="455" y="335"/>
      <point x="494" y="331" type="curve" smooth="yes"/>
      <point x="537" y="327" type="line"/>
      <point x="548" y="363" type="line"/>
      <point x="514" y="368" type="line" smooth="yes"/>
      <point x="496" y="371"/>
      <point x="488" y="374"/>
      <point x="488" y="387" type="curve" smooth="yes"/>
      <point x="488" y="392"/>
      <point x="489" y="399"/>
    </contour>
    <contour>
      <point x="269" y="370" type="curve" smooth="yes"/>
      <point x="226" y="370"/>
      <point x="216" y="384"/>
      <point x="216" y="408" type="curve" smooth="yes"/>
      <point x="216" y="427"/>
      <point x="225" y="454"/>
      <point x="240" y="469" type="curve" smooth="yes"/>
      <point x="257" y="486"/>
      <point x="302" y="492"/>
      <point x="375" y="499" type="curve" smooth="yes"/>
      <point x="473" y="508" type="line"/>
      <point x="448" y="428" type="line"/>
      <point x="378" y="384"/>
      <point x="318" y="370"/>
    </contour>
    <contour>
      <point x="127" y="234" type="line"/>
      <point x="114" y="187" type="line"/>
      <point x="493" y="187" type="line"/>
      <point x="506" y="234" type="line"/>
    </contour>
  </outline>
</glyph>
<glyph name="registered" format="2">
  <advance width="614"/>
  <unicode hex="00AE"/>
  <outline>
    <contour>
      <point x="320" y="208" type="curve" smooth="yes"/>
      <point x="516" y="208"/>
      <point x="629" y="389"/>
      <point x="629" y="537" type="curve" smooth="yes"/>
      <point x="629" y="655"/>
      <point x="556" y="725"/>
      <point x="427" y="725" type="curve" smooth="yes"/>
      <point x="233" y="725"/>
      <point x="121" y="544"/>
      <point x="121" y="396" type="curve" smooth="yes"/>
      <point x="121" y="278"/>
      <point x="193" y="208"/>
    </contour>
    <contour>
      <point x="426" y="689" type="curve" smooth="yes"/>
      <point x="530" y="689"/>
      <point x="588" y="633"/>
      <point x="588" y="536" type="curve" smooth="yes"/>
      <point x="588" y="414"/>
      <point x="491" y="243"/>
      <point x="320" y="243" type="curve" smooth="yes"/>
      <point x="219" y="243"/>
      <point x="162" y="300"/>
      <point x="162" y="397" type="curve" smooth="yes"/>
      <point x="162" y="519"/>
      <point x="258" y="689"/>
    </contour>
    <contour>
      <point x="472" y="345" type="line"/>
      <point x="430" y="416" type="line" smooth="yes"/>
      <point x="416" y="439"/>
      <point x="408" y="448"/>
      <point x="393" y="456" type="curve"/>
      <point x="393" y="458" type="line"/>
      <point x="481" y="463"/>
      <point x="515" y="493"/>
      <point x="515" y="542" type="curve" smooth="yes"/>
      <point x="515" y="579"/>
      <point x="487" y="604"/>
      <point x="436" y="604" type="curve" smooth="yes"/>
      <point x="324" y="604" type="line"/>
      <point x="249" y="343" type="line"/>
      <point x="291" y="343" type="line"/>
      <point x="323" y="454" type="line"/>
      <point x="353" y="453"/>
      <point x="362" y="445"/>
      <point x="381" y="412" type="curve" smooth="yes"/>
      <point x="421" y="343" type="line"/>
      <point x="472" y="343" type="line"/>
    </contour>
    <contour>
      <point x="424" y="567" type="line" smooth="yes"/>
      <point x="456" y="567"/>
      <point x="471" y="554"/>
      <point x="471" y="535" type="curve" smooth="yes"/>
      <point x="471" y="506"/>
      <point x="444" y="486"/>
      <point x="365" y="484" type="curve" smooth="yes"/>
      <point x="331" y="483" type="line"/>
      <point x="355" y="567" type="line"/>
    </contour>
  </outline>
</glyph>
<glyph name="degree" format="2">
  <advance width="614"/>
  <unicode hex="00B0"/>
  <outline>
    <contour>
      <point x="354" y="293" type="curve" smooth="yes"/>
      <point x="493" y="293"/>
      <point x="592" y="408"/>
      <point x="592" y="532" type="curve" smooth="yes"/>
      <point x="592" y="625"/>
      <point x="524" y="692"/>
      <point x="411" y="692" type="curve" smooth="yes"/>
      <point x="272" y="692"/>
      <point x="173" y="577"/>
      <point x="173" y="453" type="curve" smooth="yes"/>
      <point x="173" y="360"/>
      <point x="241" y="293"/>
    </contour>
    <contour>
      <point x="414" y="649" type="curve" smooth="yes"/>
      <point x="493" y="649"/>
      <point x="540" y="602"/>
      <point x="540" y="534" type="curve" smooth="yes"/>
      <point x="540" y="433"/>
      <point x="458" y="336"/>
      <point x="351" y="336" type="curve" smooth="yes"/>
      <point x="272" y="336"/>
      <point x="225" y="383"/>
      <point x="225" y="451" type="curve" smooth="yes"/>
      <point x="225" y="552"/>
      <point x="307" y="649"/>
    </contour>
  </outline>
</glyph>
<glyph name="mu" format="2">
  <advance width="614"/>
  <unicode hex="00B5"/>
  <outline>
    <contour>
      <point x="183" y="-6" type="curve" smooth="yes"/>
      <point x="253" y="-6"/>
      <point x="296" y="18"/>
      <point x="431" y="156" type="curve"/>
      <point x="386" y="0" type="line"/>
      <point x="445" y="0" type="line"/>
      <point x="577" y="460" type="line"/>
      <point x="518" y="460" type="line"/>
      <point x="455" y="239" type="line"/>
      <point x="289" y="71"/>
      <point x="252" y="47"/>
      <point x="200" y="47" type="curve" smooth="yes"/>
      <point x="151" y="47"/>
      <point x="129" y="66"/>
      <point x="129" y="103" type="curve" smooth="yes"/>
      <point x="129" y="116"/>
      <point x="131" y="130"/>
      <point x="136" y="147" type="curve" smooth="yes"/>
      <point x="226" y="460" type="line"/>
      <point x="167" y="460" type="line"/>
      <point x="-31" y="-230" type="line"/>
      <point x="28" y="-230" type="line"/>
      <point x="32" y="-217" type="line"/>
      <point x="98" y="48" type="line"/>
      <point x="111" y="9"/>
      <point x="146" y="-6"/>
    </contour>
  </outline>
</glyph>
<glyph name="paragraph" format="2">
  <advance width="614"/>
  <unicode hex="00B6"/>
  <outline>
    <contour>
      <point x="363" y="298" type="line"/>
      <point x="453" y="609" type="line"/>
      <point x="560" y="609" type="line"/>
      <point x="385" y="0" type="line"/>
      <point x="443" y="0" type="line"/>
      <point x="631" y="655" type="line"/>
      <point x="433" y="655" type="line" smooth="yes"/>
      <point x="229" y="655"/>
      <point x="150" y="558"/>
      <point x="150" y="433" type="curve" smooth="yes"/>
      <point x="150" y="344"/>
      <point x="219" y="298"/>
      <point x="359" y="298" type="curve" smooth="yes"/>
    </contour>
  </outline>
</glyph>
<glyph name="ordmasculine" format="2">
  <advance width="614"/>
  <unicode hex="00BA"/>
  <outline>
    <contour>
      <point x="417" y="692" type="curve" smooth="yes"/>
      <point x="302" y="692"/>
      <point x="192" y="597"/>
      <point x="192" y="471" type="curve" smooth="yes"/>
      <point x="192" y="377"/>
      <point x="265" y="322"/>
      <point x="357" y="322" type="curve" smooth="yes"/>
      <point x="472" y="322"/>
      <point x="582" y="417"/>
      <point x="582" y="543" type="curve" smooth="yes"/>
      <point x="582" y="637"/>
      <point x="509" y="692"/>
    </contour>
    <contour>
      <point x="357" y="367" type="curve" smooth="yes"/>
      <point x="282" y="367"/>
      <point x="242" y="415"/>
      <point x="242" y="474" type="curve" smooth="yes"/>
      <point x="242" y="574"/>
      <point x="331" y="647"/>
      <point x="417" y="647" type="curve" smooth="yes"/>
      <point x="492" y="647"/>
      <point x="532" y="599"/>
      <point x="532" y="540" type="curve" smooth="yes"/>
      <point x="532" y="440"/>
      <point x="443" y="367"/>
    </contour>
    <contour>
      <point x="127" y="234" type="line"/>
      <point x="114" y="187" type="line"/>
      <point x="479" y="187" type="line"/>
      <point x="492" y="234" type="line"/>
    </contour>
  </outline>
</glyph>
<glyph name="Aring" format="2">
  <advance width="614"/>
  <unicode hex="00C5"/>
  <outline>
    <contour>
      <point x="47" y="0" type="line"/>
      <point x="171" y="201" type="line"/>
      <point x="432" y="201" type="line"/>
      <point x="442" y="0" type="line"/>
      <point x="502" y="0" type="line"/>
      <point x="469" y="611" type="line"/>
      <point x="564" y="623"/>
      <point x="599" y="683"/>
      <point x="599" y="737" type="curve" smooth="yes"/>
      <point x="599" y="801"/>
      <point x="537" y="834"/>
      <point x="461" y="834" type="curve" smooth="yes"/>
      <point x="339" y="834"/>
      <point x="295" y="766"/>
      <point x="295" y="706" type="curve" smooth="yes"/>
      <point x="295" y="661"/>
      <point x="325" y="632"/>
      <point x="370" y="618" type="curve"/>
      <point x="-20" y="0" type="line"/>
    </contour>
    <contour>
      <point x="451" y="790" type="curve" smooth="yes"/>
      <point x="516" y="790"/>
      <point x="550" y="770"/>
      <point x="550" y="735" type="curve" smooth="yes"/>
      <point x="550" y="696"/>
      <point x="516" y="653"/>
      <point x="443" y="653" type="curve" smooth="yes"/>
      <point x="378" y="653"/>
      <point x="344" y="673"/>
      <point x="344" y="708" type="curve" smooth="yes"/>
      <point x="344" y="747"/>
      <point x="378" y="790"/>
    </contour>
    <contour>
      <point x="202" y="252" type="line"/>
      <point x="414" y="596" type="line"/>
      <point x="430" y="252" type="line"/>
    </contour>
  </outline>
</glyph>
<glyph name="Ccedilla" format="2">
  <advance width="614"/>
  <unicode hex="00C7"/>
  <outline>
    <contour>
      <point x="376" y="-151" type="curve" smooth="yes"/>
      <point x="376" y="-107"/>
      <point x="359" y="-85"/>
      <point x="242" y="-66" type="curve"/>
      <point x="274" y="-15" type="line"/>
      <point x="352" y="-14"/>
      <point x="415" y="9"/>
      <point x="524" y="81" type="curve"/>
      <point x="492" y="127" type="line"/>
      <point x="387" y="59"/>
      <point x="328" y="36"/>
      <point x="265" y="36" type="curve" smooth="yes"/>
      <point x="189" y="36"/>
      <point x="133" y="89"/>
      <point x="133" y="195" type="curve" smooth="yes"/>
      <point x="133" y="404"/>
      <point x="255" y="619"/>
      <point x="441" y="619" type="curve" smooth="yes"/>
      <point x="496" y="619"/>
      <point x="540" y="606"/>
      <point x="616" y="532" type="curve"/>
      <point x="656" y="576" type="line"/>
      <point x="574" y="651"/>
      <point x="523" y="670"/>
      <point x="443" y="670" type="curve" smooth="yes"/>
      <point x="219" y="670"/>
      <point x="69" y="431"/>
      <point x="69" y="193" type="curve" smooth="yes"/>
      <point x="69" y="70"/>
      <point x="126" y="-1"/>
      <point x="231" y="-13" type="curve"/>
      <point x="176" y="-98" type="line"/>
      <point x="179" y="-108" type="line"/>
      <point x="291" y="-120"/>
      <point x="312" y="-131"/>
      <point x="312" y="-155" type="curve" smooth="yes"/>
      <point x="312" y="-186"/>
      <point x="291" y="-202"/>
      <point x="85" y="-221" type="curve"/>
      <point x="85" y="-270" type="line"/>
      <point x="357" y="-245"/>
      <point x="376" y="-206"/>
    </contour>
  </outline>
</glyph>
<glyph name="Eth" format="2">
  <advance width="614"/>
  <unicode hex="00D0"/>
  <outline>
    <contour>
      <point x="56" y="308" type="line"/>
      <point x="142" y="308" type="line"/>
      <point x="54" y="0" type="line"/>
      <point x="137" y="0" type="line" smooth="yes"/>
      <point x="303" y="0"/>
      <point x="413" y="53"/>
      <point x="487" y="127" type="curve" smooth="yes"/>
      <point x="566" y="206"/>
      <point x="606" y="308"/>
      <point x="606" y="419" type="curve" smooth="yes"/>
      <point x="606" y="489"/>
      <point x="586" y="544"/>
      <point x="547" y="583" type="curve" smooth="yes"/>
      <point x="497" y="633"/>
      <point x="423" y="655"/>
      <point x="323" y="655" type="curve" smooth="yes"/>
      <point x="242" y="655" type="line"/>
      <point x="155" y="352" type="line"/>
      <point x="69" y="352" type="line"/>
    </contour>
    <contour>
      <point x="343" y="308" type="line"/>
      <point x="356" y="352" type="line"/>
      <point x="216" y="352" type="line"/>
      <point x="288" y="604" type="line"/>
      <point x="340" y="604" type="line" smooth="yes"/>
      <point x="475" y="604"/>
      <point x="542" y="538"/>
      <point x="542" y="425" type="curve" smooth="yes"/>
      <point x="542" y="220"/>
      <point x="399" y="51"/>
      <point x="130" y="51" type="curve"/>
      <point x="203" y="308" type="line"/>
    </contour>
  </outline>
</glyph>
<glyph name="Oslash" format="2">
  <advance width="614"/>
  <unicode hex="00D8"/>
  <outline>
    <contour>
      <point x="407" y="670" type="curve" smooth="yes"/>
      <point x="254" y="670"/>
      <point x="132" y="532"/>
      <point x="84" y="366" type="curve" smooth="yes"/>
      <point x="68" y="311"/>
      <point x="61" y="251"/>
      <point x="61" y="206" type="curve" smooth="yes"/>
      <point x="61" y="156"/>
      <point x="71" y="114"/>
      <point x="89" y="81" type="curve"/>
      <point x="-56" y="-71" type="line"/>
      <point x="14" y="-71" type="line"/>
      <point x="113" y="47" type="line"/>
      <point x="149" y="6"/>
      <point x="201" y="-15"/>
      <point x="260" y="-15" type="curve" smooth="yes"/>
      <point x="413" y="-15"/>
      <point x="535" y="123"/>
      <point x="583" y="289" type="curve" smooth="yes"/>
      <point x="599" y="344"/>
      <point x="606" y="404"/>
      <point x="606" y="449" type="curve" smooth="yes"/>
      <point x="606" y="498"/>
      <point x="596" y="539"/>
      <point x="579" y="572" type="curve"/>
      <point x="726" y="726" type="line"/>
      <point x="656" y="726" type="line"/>
      <point x="555" y="607" type="line"/>
      <point x="519" y="649"/>
      <point x="467" y="670"/>
    </contour>
    <contour>
      <point x="124" y="203" type="curve" smooth="yes"/>
      <point x="124" y="247"/>
      <point x="131" y="306"/>
      <point x="148" y="365" type="curve" smooth="yes"/>
      <point x="187" y="500"/>
      <point x="280" y="619"/>
      <point x="404" y="619" type="curve" smooth="yes"/>
      <point x="452" y="619"/>
      <point x="491" y="602"/>
      <point x="515" y="565" type="curve"/>
      <point x="134" y="128" type="line"/>
      <point x="128" y="149"/>
      <point x="124" y="174"/>
    </contour>
    <contour>
      <point x="263" y="36" type="curve" smooth="yes"/>
      <point x="216" y="36"/>
      <point x="177" y="53"/>
      <point x="153" y="89" type="curve"/>
      <point x="534" y="524" type="line"/>
      <point x="540" y="504"/>
      <point x="543" y="480"/>
      <point x="543" y="452" type="curve" smooth="yes"/>
      <point x="543" y="408"/>
      <point x="536" y="349"/>
      <point x="519" y="290" type="curve" smooth="yes"/>
      <point x="480" y="155"/>
      <point x="387" y="36"/>
    </contour>
  </outline>
</glyph>
<glyph name="ae" format="2">
  <advance width="614"/>
  <unicode hex="00E6"/>
  <outline>
    <contour>
      <point x="318" y="148" type="curve" smooth="yes"/>
      <point x="318" y="169"/>
      <point x="322" y="193"/>
      <point x="328" y="217" type="curve"/>
      <point x="565" y="240"/>
      <point x="603" y="302"/>
      <point x="603" y="374" type="curve" smooth="yes"/>
      <point x="603" y="436"/>
      <point x="561" y="470"/>
      <point x="500" y="470" type="curve" smooth="yes"/>
      <point x="455" y="470"/>
      <point x="403" y="445"/>
      <point x="360" y="388" type="curve"/>
      <point x="356" y="446"/>
      <point x="333" y="470"/>
      <point x="258" y="470" type="curve" smooth="yes"/>
      <point x="217" y="470"/>
      <point x="176" y="465"/>
      <point x="134" y="456" type="curve"/>
      <point x="119" y="405" type="line"/>
      <point x="181" y="416"/>
      <point x="218" y="420"/>
      <point x="259" y="420" type="curve" smooth="yes"/>
      <point x="293" y="420"/>
      <point x="308" y="408"/>
      <point x="308" y="376" type="curve" smooth="yes"/>
      <point x="308" y="364"/>
      <point x="305" y="348"/>
      <point x="279" y="257" type="curve"/>
      <point x="117" y="245"/>
      <point x="73" y="229"/>
      <point x="43" y="199" type="curve" smooth="yes"/>
      <point x="13" y="169"/>
      <point x="-1" y="124"/>
      <point x="-1" y="84" type="curve" smooth="yes"/>
      <point x="-1" y="36"/>
      <point x="22" y="-5"/>
      <point x="101" y="-5" type="curve" smooth="yes"/>
      <point x="146" y="-5"/>
      <point x="179" y="4"/>
      <point x="263" y="59" type="curve"/>
      <point x="272" y="59" type="line"/>
      <point x="295" y="13"/>
      <point x="348" y="-5"/>
      <point x="452" y="-5" type="curve"/>
      <point x="468" y="44" type="line"/>
      <point x="354" y="44"/>
      <point x="318" y="68"/>
    </contour>
    <contour>
      <point x="491" y="420" type="curve" smooth="yes"/>
      <point x="522" y="420"/>
      <point x="541" y="405"/>
      <point x="541" y="373" type="curve" smooth="yes"/>
      <point x="541" y="331"/>
      <point x="508" y="280"/>
      <point x="343" y="262" type="curve"/>
      <point x="375" y="344"/>
      <point x="435" y="420"/>
    </contour>
    <contour>
      <point x="124" y="45" type="curve" smooth="yes"/>
      <point x="75" y="45"/>
      <point x="62" y="63"/>
      <point x="62" y="94" type="curve" smooth="yes"/>
      <point x="62" y="122"/>
      <point x="71" y="149"/>
      <point x="89" y="167" type="curve" smooth="yes"/>
      <point x="108" y="186"/>
      <point x="129" y="198"/>
      <point x="267" y="212" type="curve"/>
      <point x="259" y="186"/>
      <point x="256" y="166"/>
      <point x="256" y="147" type="curve" smooth="yes"/>
      <point x="256" y="131"/>
      <point x="257" y="116"/>
      <point x="259" y="103" type="curve"/>
      <point x="190" y="58"/>
      <point x="154" y="45"/>
    </contour>
  </outline>
</glyph>
<glyph name="ccedilla" format="2">
  <advance width="614"/>
  <unicode hex="00E7"/>
  <outline>
    <contour>
      <point x="375" y="425" type="curve" smooth="yes"/>
      <point x="424" y="425"/>
      <point x="465" y="407"/>
      <point x="541" y="357" type="curve"/>
      <point x="574" y="406" type="line"/>
      <point x="496" y="456"/>
      <point x="443" y="475"/>
      <point x="367" y="475" type="curve" smooth="yes"/>
      <point x="290" y="475"/>
      <point x="212" y="440"/>
      <point x="156" y="384" type="curve" smooth="yes"/>
      <point x="89" y="317"/>
      <point x="64" y="237"/>
      <point x="64" y="161" type="curve" smooth="yes"/>
      <point x="64" y="59"/>
      <point x="123" y="-2"/>
      <point x="214" y="-13" type="curve"/>
      <point x="159" y="-98" type="line"/>
      <point x="162" y="-108" type="line"/>
      <point x="274" y="-120"/>
      <point x="295" y="-131"/>
      <point x="295" y="-155" type="curve" smooth="yes"/>
      <point x="295" y="-186"/>
      <point x="274" y="-202"/>
      <point x="68" y="-221" type="curve"/>
      <point x="68" y="-270" type="line"/>
      <point x="340" y="-245"/>
      <point x="359" y="-206"/>
      <point x="359" y="-151" type="curve" smooth="yes"/>
      <point x="359" y="-107"/>
      <point x="342" y="-85"/>
      <point x="225" y="-66" type="curve"/>
      <point x="257" y="-15" type="line"/>
      <point x="319" y="-14"/>
      <point x="386" y="-3"/>
      <point x="494" y="51" type="curve"/>
      <point x="471" y="98" type="line"/>
      <point x="367" y="49"/>
      <point x="309" y="35"/>
      <point x="259" y="35" type="curve" smooth="yes"/>
      <point x="177" y="35"/>
      <point x="128" y="88"/>
      <point x="128" y="167" type="curve" smooth="yes"/>
      <point x="128" y="229"/>
      <point x="158" y="304"/>
      <point x="207" y="353" type="curve" smooth="yes"/>
      <point x="251" y="397"/>
      <point x="312" y="425"/>
    </contour>
  </outline>
</glyph>
<glyph name="eth" format="2">
  <advance width="614"/>
  <unicode hex="00F0"/>
  <guideline x="342" y="741" angle="180.0" identifier="G57mRtmwhU"/>
  <outline>
    <contour>
      <point x="602" y="739" type="line"/>
      <point x="485" y="658" type="line"/>
      <point x="446" y="689"/>
      <point x="397" y="712"/>
      <point x="338" y="725" type="curve"/>
      <point x="315" y="684" type="line"/>
      <point x="368" y="671"/>
      <point x="408" y="651"/>
      <point x="439" y="627" type="curve"/>
      <point x="298" y="530" type="line"/>
      <point x="324" y="491" type="line"/>
      <point x="473" y="594" type="line"/>
      <point x="511" y="548"/>
      <point x="525" y="494"/>
      <point x="525" y="447" type="curve" smooth="yes"/>
      <point x="525" y="423"/>
      <point x="523" y="397"/>
      <point x="518" y="369" type="curve"/>
      <point x="453" y="412"/>
      <point x="399" y="426"/>
      <point x="336" y="426" type="curve" smooth="yes"/>
      <point x="146" y="426"/>
      <point x="55" y="284"/>
      <point x="55" y="153" type="curve" smooth="yes"/>
      <point x="55" y="46"/>
      <point x="126" y="-15"/>
      <point x="246" y="-15" type="curve" smooth="yes"/>
      <point x="319" y="-15"/>
      <point x="391" y="18"/>
      <point x="449" y="76" type="curve" smooth="yes"/>
      <point x="545" y="172"/>
      <point x="584" y="330"/>
      <point x="584" y="442" type="curve" smooth="yes"/>
      <point x="584" y="515"/>
      <point x="562" y="577"/>
      <point x="519" y="626" type="curve"/>
      <point x="627" y="701" type="line"/>
    </contour>
    <contour>
      <point x="116" y="157" type="curve" smooth="yes"/>
      <point x="116" y="268"/>
      <point x="203" y="376"/>
      <point x="345" y="376" type="curve" smooth="yes"/>
      <point x="395" y="376"/>
      <point x="439" y="367"/>
      <point x="508" y="320" type="curve"/>
      <point x="489" y="241"/>
      <point x="452" y="160"/>
      <point x="400" y="108" type="curve" smooth="yes"/>
      <point x="353" y="61"/>
      <point x="297" y="35"/>
      <point x="242" y="35" type="curve" smooth="yes"/>
      <point x="164" y="35"/>
      <point x="116" y="81"/>
    </contour>
  </outline>
</glyph>
<glyph name="oslash" format="2">
  <advance width="614"/>
  <unicode hex="00F8"/>
  <outline>
    <contour>
      <point x="356" y="475" type="curve" smooth="yes"/>
      <point x="177" y="475"/>
      <point x="58" y="329"/>
      <point x="58" y="187" type="curve" smooth="yes"/>
      <point x="58" y="140"/>
      <point x="72" y="97"/>
      <point x="98" y="62" type="curve"/>
      <point x="-43" y="-71" type="line"/>
      <point x="32" y="-71" type="line"/>
      <point x="129" y="29" type="line"/>
      <point x="163" y="1"/>
      <point x="206" y="-15"/>
      <point x="258" y="-15" type="curve" smooth="yes"/>
      <point x="437" y="-15"/>
      <point x="556" y="131"/>
      <point x="556" y="273" type="curve" smooth="yes"/>
      <point x="556" y="319"/>
      <point x="542" y="363"/>
      <point x="516" y="398" type="curve"/>
      <point x="657" y="531" type="line"/>
      <point x="582" y="531" type="line"/>
      <point x="484" y="432" type="line"/>
      <point x="451" y="459"/>
      <point x="407" y="475"/>
    </contour>
    <contour>
      <point x="118" y="185" type="curve" smooth="yes"/>
      <point x="118" y="312"/>
      <point x="226" y="426"/>
      <point x="351" y="426" type="curve" smooth="yes"/>
      <point x="387" y="426"/>
      <point x="419" y="414"/>
      <point x="443" y="394" type="curve"/>
      <point x="140" y="102" type="line"/>
      <point x="126" y="125"/>
      <point x="118" y="153"/>
    </contour>
    <contour>
      <point x="263" y="34" type="curve" smooth="yes"/>
      <point x="227" y="34"/>
      <point x="195" y="46"/>
      <point x="170" y="67" type="curve"/>
      <point x="474" y="359" type="line"/>
      <point x="488" y="335"/>
      <point x="496" y="307"/>
      <point x="496" y="275" type="curve" smooth="yes"/>
      <point x="496" y="148"/>
      <point x="388" y="34"/>
    </contour>
  </outline>
</glyph>
<glyph name="thorn" format="2">
  <advance width="614"/>
  <unicode hex="00FE"/>
  <outline>
    <contour>
      <point x="-32" y="-230" type="line"/>
      <point x="27" y="-230" type="line"/>
      <point x="98" y="16" type="line"/>
      <point x="133" y="2"/>
      <point x="174" y="-8"/>
      <point x="221" y="-8" type="curve" smooth="yes"/>
      <point x="430" y="-8"/>
      <point x="557" y="133"/>
      <point x="557" y="300" type="curve" smooth="yes"/>
      <point x="557" y="404"/>
      <point x="495" y="468"/>
      <point x="394" y="468" type="curve" smooth="yes"/>
      <point x="330" y="468"/>
      <point x="273" y="440"/>
      <point x="199" y="367" type="curve"/>
      <point x="297" y="710" type="line"/>
      <point x="238" y="710" type="line"/>
    </contour>
    <contour>
      <point x="388" y="418" type="curve" smooth="yes"/>
      <point x="449" y="418"/>
      <point x="495" y="372"/>
      <point x="495" y="297" type="curve" smooth="yes"/>
      <point x="495" y="182"/>
      <point x="410" y="42"/>
      <point x="222" y="42" type="curve" smooth="yes"/>
      <point x="177" y="42"/>
      <point x="141" y="51"/>
      <point x="112" y="66" type="curve"/>
      <point x="178" y="297" type="line"/>
      <point x="289" y="401"/>
      <point x="332" y="418"/>
    </contour>
  </outline>
</glyph>
<glyph name="Aogonek" format="2">
  <advance width="614"/>
  <unicode hex="0104"/>
  <outline>
    <contour>
      <point x="47" y="0" type="line"/>
      <point x="171" y="201" type="line"/>
      <point x="432" y="201" type="line"/>
      <point x="442" y="0" type="line"/>
      <point x="447" y="0" type="line"/>
      <point x="333" y="-101"/>
      <point x="318" y="-133"/>
      <point x="318" y="-170" type="curve" smooth="yes"/>
      <point x="318" y="-208"/>
      <point x="337" y="-227"/>
      <point x="410" y="-231" type="curve" smooth="yes"/>
      <point x="485" y="-235" type="line"/>
      <point x="501" y="-192" type="line"/>
      <point x="436" y="-188" type="line" smooth="yes"/>
      <point x="390" y="-185"/>
      <point x="380" y="-176"/>
      <point x="380" y="-158" type="curve" smooth="yes"/>
      <point x="380" y="-136"/>
      <point x="387" y="-103"/>
      <point x="488" y="0" type="curve"/>
      <point x="502" y="0" type="line"/>
      <point x="467" y="655" type="line"/>
      <point x="393" y="655" type="line"/>
      <point x="-20" y="0" type="line"/>
    </contour>
    <contour>
      <point x="202" y="252" type="line"/>
      <point x="414" y="596" type="line"/>
      <point x="430" y="252" type="line"/>
    </contour>
  </outline>
</glyph>
<glyph name="aogonek" format="2">
  <advance width="614"/>
  <unicode hex="0105"/>
  <outline>
    <contour>
      <point x="256" y="-170" type="curve" smooth="yes"/>
      <point x="256" y="-208"/>
      <point x="275" y="-227"/>
      <point x="348" y="-231" type="curve" smooth="yes"/>
      <point x="423" y="-235" type="line"/>
      <point x="439" y="-192" type="line"/>
      <point x="374" y="-188" type="line" smooth="yes"/>
      <point x="328" y="-185"/>
      <point x="318" y="-176"/>
      <point x="318" y="-158" type="curve" smooth="yes"/>
      <point x="318" y="-135"/>
      <point x="325" y="-102"/>
      <point x="431" y="5" type="curve"/>
      <point x="442" y="3"/>
      <point x="465" y="0"/>
      <point x="499" y="-3" type="curve"/>
      <point x="513" y="44" type="line"/>
      <point x="469" y="50" type="line" smooth="yes"/>
      <point x="443" y="54"/>
      <point x="431" y="58"/>
      <point x="431" y="74" type="curve" smooth="yes"/>
      <point x="431" y="81"/>
      <point x="433" y="90"/>
      <point x="437" y="102" type="curve" smooth="yes"/>
      <point x="514" y="319" type="line" smooth="yes"/>
      <point x="521" y="338"/>
      <point x="523" y="354"/>
      <point x="523" y="369" type="curve" smooth="yes"/>
      <point x="523" y="432"/>
      <point x="474" y="465"/>
      <point x="363" y="465" type="curve" smooth="yes"/>
      <point x="293" y="465"/>
      <point x="240" y="459"/>
      <point x="176" y="448" type="curve"/>
      <point x="161" y="395" type="line"/>
      <point x="241" y="408"/>
      <point x="310" y="415"/>
      <point x="347" y="415" type="curve" smooth="yes"/>
      <point x="431" y="415"/>
      <point x="462" y="395"/>
      <point x="462" y="356" type="curve" smooth="yes"/>
      <point x="462" y="346"/>
      <point x="460" y="335"/>
      <point x="456" y="322" type="curve" smooth="yes"/>
      <point x="442" y="280" type="line"/>
      <point x="290" y="266" type="line" smooth="yes"/>
      <point x="163" y="254"/>
      <point x="122" y="238"/>
      <point x="90" y="206" type="curve" smooth="yes"/>
      <point x="55" y="171"/>
      <point x="39" y="125"/>
      <point x="39" y="84" type="curve" smooth="yes"/>
      <point x="39" y="36"/>
      <point x="62" y="-5"/>
      <point x="141" y="-5" type="curve" smooth="yes"/>
      <point x="213" y="-5"/>
      <point x="275" y="17"/>
      <point x="364" y="70" type="curve"/>
      <point x="370" y="70" type="line"/>
      <point x="374" y="45"/>
      <point x="383" y="27"/>
      <point x="402" y="16" type="curve"/>
      <point x="273" y="-98"/>
      <point x="256" y="-131"/>
    </contour>
    <contour>
      <point x="164" y="45" type="curve" smooth="yes"/>
      <point x="115" y="45"/>
      <point x="102" y="63"/>
      <point x="102" y="94" type="curve" smooth="yes"/>
      <point x="102" y="123"/>
      <point x="112" y="150"/>
      <point x="136" y="174" type="curve" smooth="yes"/>
      <point x="158" y="196"/>
      <point x="190" y="211"/>
      <point x="300" y="222" type="curve" smooth="yes"/>
      <point x="425" y="234" type="line"/>
      <point x="390" y="132" type="line"/>
      <point x="297" y="71"/>
      <point x="226" y="45"/>
    </contour>
  </outline>
</glyph>
<glyph name="dcroat" format="2">
  <advance width="614"/>
  <unicode hex="0111"/>
  <outline>
    <contour>
      <point x="379" y="0" type="line"/>
      <point x="428" y="0" type="line"/>
      <point x="582" y="535" type="line"/>
      <point x="667" y="535" type="line"/>
      <point x="681" y="583" type="line"/>
      <point x="596" y="583" type="line"/>
      <point x="632" y="710" type="line"/>
      <point x="573" y="710" type="line"/>
      <point x="537" y="583" type="line"/>
      <point x="336" y="583" type="line"/>
      <point x="322" y="535" type="line"/>
      <point x="523" y="535" type="line"/>
      <point x="486" y="406" type="line"/>
      <point x="451" y="421"/>
      <point x="417" y="428"/>
      <point x="384" y="428" type="curve" smooth="yes"/>
      <point x="179" y="428"/>
      <point x="56" y="301"/>
      <point x="56" y="150" type="curve" smooth="yes"/>
      <point x="56" y="54"/>
      <point x="119" y="-8"/>
      <point x="212" y="-8" type="curve" smooth="yes"/>
      <point x="274" y="-8"/>
      <point x="325" y="21"/>
      <point x="397" y="94" type="curve"/>
    </contour>
    <contour>
      <point x="118" y="153" type="curve" smooth="yes"/>
      <point x="118" y="255"/>
      <point x="201" y="378"/>
      <point x="387" y="378" type="curve" smooth="yes"/>
      <point x="417" y="378"/>
      <point x="444" y="371"/>
      <point x="472" y="358" type="curve"/>
      <point x="416" y="163" type="line"/>
      <point x="309" y="62"/>
      <point x="271" y="42"/>
      <point x="218" y="42" type="curve" smooth="yes"/>
      <point x="161" y="42"/>
      <point x="118" y="84"/>
    </contour>
  </outline>
</glyph>
<glyph name="Eogonek" format="2">
  <advance width="614"/>
  <unicode hex="0118"/>
  <outline>
    <contour>
      <point x="241" y="-170" type="curve" smooth="yes"/>
      <point x="241" y="-208"/>
      <point x="260" y="-227"/>
      <point x="333" y="-231" type="curve" smooth="yes"/>
      <point x="408" y="-235" type="line"/>
      <point x="424" y="-192" type="line"/>
      <point x="359" y="-188" type="line" smooth="yes"/>
      <point x="313" y="-185"/>
      <point x="303" y="-176"/>
      <point x="303" y="-158" type="curve" smooth="yes"/>
      <point x="303" y="-136"/>
      <point x="310" y="-103"/>
      <point x="411" y="0" type="curve"/>
      <point x="476" y="0" type="line"/>
      <point x="491" y="51" type="line"/>
      <point x="113" y="51" type="line"/>
      <point x="186" y="306" type="line"/>
      <point x="491" y="306" type="line"/>
      <point x="505" y="357" type="line"/>
      <point x="200" y="357" type="line"/>
      <point x="271" y="604" type="line"/>
      <point x="640" y="604" type="line"/>
      <point x="655" y="655" type="line"/>
      <point x="225" y="655" type="line"/>
      <point x="37" y="0" type="line"/>
      <point x="370" y="0" type="line"/>
      <point x="256" y="-101"/>
      <point x="241" y="-133"/>
    </contour>
  </outline>
</glyph>
<glyph name="hbar" format="2">
  <advance width="614"/>
  <unicode hex="0127"/>
  <outline>
    <contour>
      <point x="466" y="535" type="line"/>
      <point x="480" y="583" type="line"/>
      <point x="281" y="583" type="line"/>
      <point x="317" y="710" type="line"/>
      <point x="258" y="710" type="line"/>
      <point x="222" y="583" type="line"/>
      <point x="135" y="583" type="line"/>
      <point x="121" y="535" type="line"/>
      <point x="208" y="535" type="line"/>
      <point x="54" y="0" type="line"/>
      <point x="113" y="0" type="line"/>
      <point x="166" y="186" type="line"/>
      <point x="332" y="353"/>
      <point x="368" y="376"/>
      <point x="421" y="376" type="curve" smooth="yes"/>
      <point x="453" y="376"/>
      <point x="474" y="358"/>
      <point x="474" y="323" type="curve" smooth="yes"/>
      <point x="474" y="310"/>
      <point x="472" y="295"/>
      <point x="461" y="255" type="curve" smooth="yes"/>
      <point x="389" y="0" type="line"/>
      <point x="448" y="0" type="line"/>
      <point x="518" y="247" type="line" smooth="yes"/>
      <point x="531" y="294"/>
      <point x="535" y="317"/>
      <point x="535" y="332" type="curve" smooth="yes"/>
      <point x="535" y="391"/>
      <point x="493" y="428"/>
      <point x="436" y="428" type="curve" smooth="yes"/>
      <point x="368" y="428"/>
      <point x="322" y="404"/>
      <point x="190" y="269" type="curve"/>
      <point x="267" y="535" type="line"/>
    </contour>
  </outline>
</glyph>
<glyph name="Iogonek" format="2">
  <advance width="614"/>
  <unicode hex="012E"/>
  <outline>
    <contour>
      <point x="81" y="26" type="line"/>
      <point x="73" y="0" type="line"/>
      <point x="218" y="0" type="line"/>
      <point x="106" y="-100"/>
      <point x="91" y="-132"/>
      <point x="91" y="-169" type="curve" smooth="yes"/>
      <point x="91" y="-207"/>
      <point x="110" y="-226"/>
      <point x="183" y="-230" type="curve" smooth="yes"/>
      <point x="258" y="-234" type="line"/>
      <point x="274" y="-191" type="line"/>
      <point x="209" y="-187" type="line" smooth="yes"/>
      <point x="163" y="-184"/>
      <point x="153" y="-175"/>
      <point x="153" y="-157" type="curve" smooth="yes"/>
      <point x="153" y="-135"/>
      <point x="159" y="-103"/>
      <point x="260" y="0" type="curve"/>
      <point x="409" y="0" type="line"/>
      <point x="416" y="26" type="line"/>
      <point x="280" y="47" type="line"/>
      <point x="452" y="606" type="line"/>
      <point x="589" y="629" type="line"/>
      <point x="597" y="655" type="line"/>
      <point x="261" y="655" type="line"/>
      <point x="253" y="629" type="line"/>
      <point x="391" y="608" type="line"/>
      <point x="219" y="49" type="line"/>
    </contour>
  </outline>
</glyph>
<glyph name="iogonek" format="2">
  <advance width="614"/>
  <unicode hex="012F"/>
  <outline>
    <contour>
      <point x="408" y="614" type="curve" smooth="yes"/>
      <point x="449" y="614"/>
      <point x="478" y="642"/>
      <point x="478" y="675" type="curve" smooth="yes"/>
      <point x="478" y="704"/>
      <point x="459" y="721"/>
      <point x="421" y="721" type="curve" smooth="yes"/>
      <point x="376" y="721"/>
      <point x="351" y="690"/>
      <point x="351" y="661" type="curve" smooth="yes"/>
      <point x="351" y="630"/>
      <point x="375" y="614"/>
    </contour>
    <contour>
      <point x="71" y="50" type="line"/>
      <point x="57" y="0" type="line"/>
      <point x="234" y="0" type="line"/>
      <point x="120" y="-101"/>
      <point x="105" y="-133"/>
      <point x="105" y="-170" type="curve" smooth="yes"/>
      <point x="105" y="-208"/>
      <point x="124" y="-227"/>
      <point x="197" y="-231" type="curve" smooth="yes"/>
      <point x="272" y="-235" type="line"/>
      <point x="288" y="-192" type="line"/>
      <point x="223" y="-188" type="line" smooth="yes"/>
      <point x="177" y="-185"/>
      <point x="167" y="-176"/>
      <point x="167" y="-158" type="curve" smooth="yes"/>
      <point x="167" y="-136"/>
      <point x="174" y="-103"/>
      <point x="275" y="0" type="curve"/>
      <point x="456" y="0" type="line"/>
      <point x="470" y="50" type="line"/>
      <point x="291" y="50" type="line"/>
      <point x="430" y="460" type="line"/>
      <point x="209" y="460" type="line"/>
      <point x="195" y="410" type="line"/>
      <point x="354" y="410" type="line"/>
      <point x="232" y="50" type="line"/>
    </contour>
  </outline>
</glyph>
<glyph name="lslash" format="2">
  <advance width="614"/>
  <unicode hex="0142"/>
  <outline>
    <contour>
      <point x="99" y="262" type="line"/>
      <point x="267" y="335" type="line"/>
      <point x="234" y="244" type="line" smooth="yes"/>
      <point x="213" y="186"/>
      <point x="206" y="151"/>
      <point x="206" y="119" type="curve" smooth="yes"/>
      <point x="206" y="38"/>
      <point x="251" y="-1"/>
      <point x="345" y="-4" type="curve" smooth="yes"/>
      <point x="453" y="-7" type="line"/>
      <point x="468" y="44" type="line"/>
      <point x="352" y="48" type="line" smooth="yes"/>
      <point x="293" y="50"/>
      <point x="267" y="70"/>
      <point x="267" y="127" type="curve" smooth="yes"/>
      <point x="267" y="157"/>
      <point x="272" y="184"/>
      <point x="291" y="236" type="curve" smooth="yes"/>
      <point x="334" y="356" type="line"/>
      <point x="521" y="437" type="line"/>
      <point x="537" y="492" type="line"/>
      <point x="355" y="413" type="line"/>
      <point x="463" y="710" type="line"/>
      <point x="202" y="710" type="line"/>
      <point x="187" y="660" type="line"/>
      <point x="386" y="660" type="line"/>
      <point x="288" y="392" type="line"/>
      <point x="115" y="317" type="line"/>
    </contour>
  </outline>
</glyph>
<glyph name="Eng" format="2">
  <advance width="614"/>
  <unicode hex="014A"/>
  <outline>
    <contour>
      <point x="89" y="0" type="line"/>
      <point x="261" y="616" type="line"/>
      <point x="380" y="-63" type="line"/>
      <point x="353" y="-146"/>
      <point x="311" y="-172"/>
      <point x="233" y="-178" type="curve" smooth="yes"/>
      <point x="89" y="-188" type="line"/>
      <point x="89" y="-239" type="line"/>
      <point x="221" y="-230" type="line" smooth="yes"/>
      <point x="341" y="-222"/>
      <point x="402" y="-174"/>
      <point x="430" y="-74" type="curve" smooth="yes"/>
      <point x="639" y="655" type="line"/>
      <point x="581" y="655" type="line"/>
      <point x="413" y="55" type="line"/>
      <point x="309" y="655" type="line"/>
      <point x="219" y="655" type="line"/>
      <point x="31" y="0" type="line"/>
    </contour>
  </outline>
</glyph>
<glyph name="OE" format="2">
  <advance width="614"/>
  <unicode hex="0152"/>
  <outline>
    <contour>
      <point x="226" y="0" type="curve" smooth="yes"/>
      <point x="527" y="0" type="line"/>
      <point x="542" y="51" type="line"/>
      <point x="314" y="51" type="line"/>
      <point x="387" y="306" type="line"/>
      <point x="587" y="306" type="line"/>
      <point x="601" y="357" type="line"/>
      <point x="401" y="357" type="line"/>
      <point x="472" y="604" type="line"/>
      <point x="700" y="604" type="line"/>
      <point x="715" y="655" type="line"/>
      <point x="441" y="655" type="line" smooth="yes"/>
      <point x="317" y="655"/>
      <point x="245" y="633"/>
      <point x="169" y="557" type="curve" smooth="yes"/>
      <point x="89" y="477"/>
      <point x="29" y="303"/>
      <point x="29" y="179" type="curve" smooth="yes"/>
      <point x="29" y="63"/>
      <point x="90" y="0"/>
    </contour>
    <contour>
      <point x="92" y="185" type="curve" smooth="yes"/>
      <point x="92" y="287"/>
      <point x="138" y="444"/>
      <point x="217" y="523" type="curve" smooth="yes"/>
      <point x="271" y="577"/>
      <point x="331" y="603"/>
      <point x="411" y="604" type="curve"/>
      <point x="252" y="51" type="line"/>
      <point x="228" y="51" type="line" smooth="yes"/>
      <point x="132" y="51"/>
      <point x="92" y="96"/>
    </contour>
  </outline>
</glyph>
<glyph name="oe" format="2">
  <advance width="614"/>
  <unicode hex="0153"/>
  <outline>
    <contour>
      <point x="118" y="-15" type="curve" smooth="yes"/>
      <point x="182" y="-15"/>
      <point x="236" y="30"/>
      <point x="276" y="94" type="curve"/>
      <point x="290" y="23"/>
      <point x="338" y="-5"/>
      <point x="459" y="-5" type="curve"/>
      <point x="475" y="44" type="line"/>
      <point x="361" y="44"/>
      <point x="325" y="68"/>
      <point x="325" y="148" type="curve" smooth="yes"/>
      <point x="325" y="170"/>
      <point x="328" y="193"/>
      <point x="335" y="217" type="curve"/>
      <point x="572" y="240"/>
      <point x="610" y="302"/>
      <point x="610" y="374" type="curve" smooth="yes"/>
      <point x="610" y="439"/>
      <point x="568" y="475"/>
      <point x="507" y="475" type="curve" smooth="yes"/>
      <point x="455" y="475"/>
      <point x="395" y="441"/>
      <point x="347" y="362" type="curve"/>
      <point x="342" y="436"/>
      <point x="307" y="475"/>
      <point x="250" y="475" type="curve" smooth="yes"/>
      <point x="203" y="475"/>
      <point x="162" y="453"/>
      <point x="127" y="418" type="curve" smooth="yes"/>
      <point x="56" y="347"/>
      <point x="14" y="226"/>
      <point x="14" y="126" type="curve" smooth="yes"/>
      <point x="14" y="38"/>
      <point x="53" y="-15"/>
    </contour>
    <contour>
      <point x="498" y="425" type="curve" smooth="yes"/>
      <point x="529" y="425"/>
      <point x="548" y="408"/>
      <point x="548" y="373" type="curve" smooth="yes"/>
      <point x="548" y="331"/>
      <point x="515" y="280"/>
      <point x="349" y="262" type="curve"/>
      <point x="381" y="346"/>
      <point x="442" y="425"/>
    </contour>
    <contour>
      <point x="75" y="125" type="curve" smooth="yes"/>
      <point x="75" y="214"/>
      <point x="119" y="332"/>
      <point x="175" y="388" type="curve" smooth="yes"/>
      <point x="198" y="411"/>
      <point x="222" y="425"/>
      <point x="246" y="425" type="curve" smooth="yes"/>
      <point x="284" y="425"/>
      <point x="304" y="389"/>
      <point x="304" y="333" type="curve" smooth="yes"/>
      <point x="304" y="242"/>
      <point x="260" y="127"/>
      <point x="203" y="70" type="curve" smooth="yes"/>
      <point x="181" y="48"/>
      <point x="158" y="35"/>
      <point x="134" y="35" type="curve" smooth="yes"/>
      <point x="96" y="35"/>
      <point x="75" y="69"/>
    </contour>
  </outline>
</glyph>
<glyph name="Scedilla" format="2">
  <advance width="614"/>
  <unicode hex="015E"/>
  <outline>
    <contour>
      <point x="284" y="38" type="curve" smooth="yes"/>
      <point x="208" y="38"/>
      <point x="136" y="67"/>
      <point x="60" y="110" type="curve"/>
      <point x="33" y="59" type="line"/>
      <point x="96" y="24"/>
      <point x="153" y="1"/>
      <point x="218" y="-9" type="curve"/>
      <point x="160" y="-98" type="line"/>
      <point x="163" y="-108" type="line"/>
      <point x="275" y="-120"/>
      <point x="296" y="-131"/>
      <point x="296" y="-155" type="curve" smooth="yes"/>
      <point x="296" y="-186"/>
      <point x="275" y="-202"/>
      <point x="69" y="-221" type="curve"/>
      <point x="69" y="-270" type="line"/>
      <point x="341" y="-245"/>
      <point x="360" y="-206"/>
      <point x="360" y="-151" type="curve" smooth="yes"/>
      <point x="360" y="-107"/>
      <point x="343" y="-85"/>
      <point x="226" y="-66" type="curve"/>
      <point x="259" y="-12" type="line"/>
      <point x="267" y="-13"/>
      <point x="276" y="-13"/>
      <point x="284" y="-13" type="curve" smooth="yes"/>
      <point x="425" y="-13"/>
      <point x="524" y="54"/>
      <point x="524" y="177" type="curve" smooth="yes"/>
      <point x="524" y="238"/>
      <point x="508" y="284"/>
      <point x="408" y="341" type="curve" smooth="yes"/>
      <point x="318" y="392" type="line" smooth="yes"/>
      <point x="255" y="428"/>
      <point x="241" y="462"/>
      <point x="241" y="503" type="curve" smooth="yes"/>
      <point x="241" y="566"/>
      <point x="292" y="617"/>
      <point x="403" y="617" type="curve" smooth="yes"/>
      <point x="473" y="617"/>
      <point x="537" y="600"/>
      <point x="605" y="571" type="curve"/>
      <point x="623" y="625" type="line"/>
      <point x="543" y="654"/>
      <point x="485" y="668"/>
      <point x="403" y="668" type="curve" smooth="yes"/>
      <point x="254" y="668"/>
      <point x="178" y="584"/>
      <point x="178" y="499" type="curve" smooth="yes"/>
      <point x="178" y="435"/>
      <point x="209" y="387"/>
      <point x="284" y="345" type="curve" smooth="yes"/>
      <point x="374" y="295" type="line" smooth="yes"/>
      <point x="445" y="255"/>
      <point x="461" y="214"/>
      <point x="461" y="175" type="curve" smooth="yes"/>
      <point x="461" y="91"/>
      <point x="397" y="38"/>
    </contour>
  </outline>
</glyph>
<glyph name="scedilla" format="2">
  <advance width="614"/>
  <unicode hex="015F"/>
  <outline>
    <contour>
      <point x="480" y="118" type="curve" smooth="yes"/>
      <point x="480" y="175"/>
      <point x="460" y="197"/>
      <point x="355" y="248" type="curve" smooth="yes"/>
      <point x="289" y="280" type="line" smooth="yes"/>
      <point x="223" y="312"/>
      <point x="211" y="326"/>
      <point x="211" y="358" type="curve" smooth="yes"/>
      <point x="211" y="391"/>
      <point x="239" y="417"/>
      <point x="340" y="417" type="curve" smooth="yes"/>
      <point x="394" y="417"/>
      <point x="462" y="408"/>
      <point x="539" y="383" type="curve"/>
      <point x="554" y="435" type="line"/>
      <point x="480" y="456"/>
      <point x="397" y="468"/>
      <point x="340" y="468" type="curve" smooth="yes"/>
      <point x="205" y="468"/>
      <point x="151" y="421"/>
      <point x="151" y="352" type="curve" smooth="yes"/>
      <point x="151" y="306"/>
      <point x="169" y="274"/>
      <point x="277" y="223" type="curve" smooth="yes"/>
      <point x="343" y="192" type="line" smooth="yes"/>
      <point x="407" y="162"/>
      <point x="420" y="144"/>
      <point x="420" y="112" type="curve" smooth="yes"/>
      <point x="420" y="73"/>
      <point x="386" y="42"/>
      <point x="286" y="42" type="curve" smooth="yes"/>
      <point x="219" y="42"/>
      <point x="147" y="52"/>
      <point x="63" y="79" type="curve"/>
      <point x="46" y="26" type="line"/>
      <point x="113" y="8"/>
      <point x="165" y="-2"/>
      <point x="214" y="-6" type="curve"/>
      <point x="154" y="-98" type="line"/>
      <point x="157" y="-108" type="line"/>
      <point x="269" y="-120"/>
      <point x="290" y="-131"/>
      <point x="290" y="-155" type="curve" smooth="yes"/>
      <point x="290" y="-186"/>
      <point x="269" y="-202"/>
      <point x="63" y="-221" type="curve"/>
      <point x="63" y="-270" type="line"/>
      <point x="335" y="-245"/>
      <point x="354" y="-206"/>
      <point x="354" y="-151" type="curve" smooth="yes"/>
      <point x="354" y="-107"/>
      <point x="337" y="-85"/>
      <point x="220" y="-66" type="curve"/>
      <point x="256" y="-9" type="line"/>
      <point x="265" y="-9"/>
      <point x="274" y="-9"/>
      <point x="283" y="-9" type="curve" smooth="yes"/>
      <point x="424" y="-9"/>
      <point x="480" y="43"/>
    </contour>
  </outline>
</glyph>
<glyph name="Tcedilla" format="2">
  <advance width="614"/>
  <unicode hex="0162"/>
  <outline>
    <contour>
      <point x="160" y="604" type="line"/>
      <point x="381" y="604" type="line"/>
      <point x="208" y="0" type="line"/>
      <point x="217" y="0" type="line"/>
      <point x="157" y="-93" type="line"/>
      <point x="160" y="-103" type="line"/>
      <point x="272" y="-115"/>
      <point x="293" y="-126"/>
      <point x="293" y="-150" type="curve" smooth="yes"/>
      <point x="293" y="-181"/>
      <point x="272" y="-197"/>
      <point x="66" y="-216" type="curve"/>
      <point x="66" y="-265" type="line"/>
      <point x="338" y="-240"/>
      <point x="357" y="-201"/>
      <point x="357" y="-146" type="curve" smooth="yes"/>
      <point x="357" y="-102"/>
      <point x="340" y="-80"/>
      <point x="223" y="-61" type="curve"/>
      <point x="261" y="0" type="line"/>
      <point x="269" y="0" type="line"/>
      <point x="442" y="604" type="line"/>
      <point x="662" y="604" type="line"/>
      <point x="677" y="655" type="line"/>
      <point x="175" y="655" type="line"/>
    </contour>
  </outline>
</glyph>
<glyph name="tcedilla" format="2">
  <advance width="614"/>
  <unicode hex="0163"/>
  <outline>
    <contour>
      <point x="248" y="19" type="curve"/>
      <point x="175" y="-93" type="line"/>
      <point x="178" y="-103" type="line"/>
      <point x="290" y="-115"/>
      <point x="311" y="-126"/>
      <point x="311" y="-150" type="curve" smooth="yes"/>
      <point x="311" y="-181"/>
      <point x="290" y="-197"/>
      <point x="84" y="-216" type="curve"/>
      <point x="84" y="-265" type="line"/>
      <point x="356" y="-240"/>
      <point x="375" y="-201"/>
      <point x="375" y="-146" type="curve" smooth="yes"/>
      <point x="375" y="-102"/>
      <point x="358" y="-80"/>
      <point x="241" y="-61" type="curve"/>
      <point x="282" y="5" type="line"/>
      <point x="301" y="0"/>
      <point x="323" y="-3"/>
      <point x="348" y="-4" type="curve" smooth="yes"/>
      <point x="453" y="-8" type="line"/>
      <point x="467" y="43" type="line"/>
      <point x="342" y="50" type="line" smooth="yes"/>
      <point x="283" y="53"/>
      <point x="253" y="74"/>
      <point x="253" y="121" type="curve" smooth="yes"/>
      <point x="253" y="137"/>
      <point x="256" y="164"/>
      <point x="276" y="220" type="curve" smooth="yes"/>
      <point x="346" y="410" type="line"/>
      <point x="551" y="410" type="line"/>
      <point x="565" y="460" type="line"/>
      <point x="364" y="460" type="line"/>
      <point x="429" y="637" type="line"/>
      <point x="370" y="637" type="line"/>
      <point x="305" y="460" type="line"/>
      <point x="130" y="460" type="line"/>
      <point x="116" y="410" type="line"/>
      <point x="286" y="410" type="line"/>
      <point x="221" y="232" type="line" smooth="yes"/>
      <point x="198" y="168"/>
      <point x="193" y="135"/>
      <point x="193" y="116" type="curve" smooth="yes"/>
      <point x="193" y="70"/>
      <point x="212" y="38"/>
    </contour>
  </outline>
</glyph>
<glyph name="tbar" format="2">
  <advance width="614"/>
  <unicode hex="0167"/>
  <outline>
    <contour>
      <point x="101" y="222" type="line"/>
      <point x="217" y="222" type="line"/>
      <point x="197" y="165"/>
      <point x="193" y="134"/>
      <point x="193" y="116" type="curve" smooth="yes"/>
      <point x="193" y="38"/>
      <point x="247" y="0"/>
      <point x="348" y="-4" type="curve" smooth="yes"/>
      <point x="453" y="-8" type="line"/>
      <point x="467" y="43" type="line"/>
      <point x="342" y="50" type="line" smooth="yes"/>
      <point x="283" y="53"/>
      <point x="253" y="74"/>
      <point x="253" y="121" type="curve" smooth="yes"/>
      <point x="253" y="135"/>
      <point x="257" y="165"/>
      <point x="277" y="222" type="curve"/>
      <point x="459" y="222" type="line"/>
      <point x="472" y="270" type="line"/>
      <point x="294" y="270" type="line"/>
      <point x="346" y="410" type="line"/>
      <point x="551" y="410" type="line"/>
      <point x="565" y="460" type="line"/>
      <point x="364" y="460" type="line"/>
      <point x="429" y="637" type="line"/>
      <point x="370" y="637" type="line"/>
      <point x="305" y="460" type="line"/>
      <point x="130" y="460" type="line"/>
      <point x="116" y="410" type="line"/>
      <point x="286" y="410" type="line"/>
      <point x="235" y="270" type="line"/>
      <point x="114" y="270" type="line"/>
    </contour>
  </outline>
</glyph>
<glyph name="Uogonek" format="2">
  <advance width="614"/>
  <unicode hex="0172"/>
  <outline>
    <contour>
      <point x="108" y="-175" type="curve" smooth="yes"/>
      <point x="108" y="-213"/>
      <point x="127" y="-232"/>
      <point x="200" y="-236" type="curve" smooth="yes"/>
      <point x="275" y="-240" type="line"/>
      <point x="291" y="-197" type="line"/>
      <point x="226" y="-193" type="line" smooth="yes"/>
      <point x="180" y="-190"/>
      <point x="170" y="-181"/>
      <point x="170" y="-163" type="curve" smooth="yes"/>
      <point x="170" y="-142"/>
      <point x="176" y="-111"/>
      <point x="268" y="-15" type="curve"/>
      <point x="403" y="-15"/>
      <point x="480" y="52"/>
      <point x="524" y="205" type="curve" smooth="yes"/>
      <point x="654" y="655" type="line"/>
      <point x="594" y="655" type="line"/>
      <point x="466" y="211" type="line" smooth="yes"/>
      <point x="431" y="89"/>
      <point x="369" y="36"/>
      <point x="275" y="36" type="curve" smooth="yes"/>
      <point x="177" y="36"/>
      <point x="133" y="85"/>
      <point x="133" y="159" type="curve" smooth="yes"/>
      <point x="133" y="181"/>
      <point x="138" y="213"/>
      <point x="155" y="273" type="curve" smooth="yes"/>
      <point x="265" y="655" type="line"/>
      <point x="204" y="655" type="line"/>
      <point x="96" y="281" type="line" smooth="yes"/>
      <point x="78" y="218"/>
      <point x="74" y="188"/>
      <point x="74" y="162" type="curve" smooth="yes"/>
      <point x="74" y="54"/>
      <point x="135" y="-1"/>
      <point x="228" y="-13" type="curve"/>
      <point x="123" y="-108"/>
      <point x="108" y="-139"/>
    </contour>
  </outline>
</glyph>
<glyph name="uogonek" format="2">
  <advance width="614"/>
  <unicode hex="0173"/>
  <outline>
    <contour>
      <point x="266" y="-170" type="curve" smooth="yes"/>
      <point x="266" y="-208"/>
      <point x="285" y="-227"/>
      <point x="358" y="-231" type="curve" smooth="yes"/>
      <point x="433" y="-235" type="line"/>
      <point x="449" y="-192" type="line"/>
      <point x="384" y="-188" type="line" smooth="yes"/>
      <point x="338" y="-185"/>
      <point x="328" y="-176"/>
      <point x="328" y="-158" type="curve" smooth="yes"/>
      <point x="328" y="-136"/>
      <point x="335" y="-103"/>
      <point x="436" y="0" type="curve"/>
      <point x="445" y="0" type="line"/>
      <point x="577" y="460" type="line"/>
      <point x="518" y="460" type="line"/>
      <point x="455" y="240" type="line"/>
      <point x="285" y="68"/>
      <point x="246" y="47"/>
      <point x="192" y="47" type="curve" smooth="yes"/>
      <point x="154" y="47"/>
      <point x="129" y="65"/>
      <point x="129" y="100" type="curve" smooth="yes"/>
      <point x="129" y="113"/>
      <point x="131" y="129"/>
      <point x="142" y="168" type="curve" smooth="yes"/>
      <point x="226" y="460" type="line"/>
      <point x="167" y="460" type="line"/>
      <point x="85" y="176" type="line" smooth="yes"/>
      <point x="72" y="129"/>
      <point x="68" y="106"/>
      <point x="68" y="91" type="curve" smooth="yes"/>
      <point x="68" y="32"/>
      <point x="114" y="-5"/>
      <point x="177" y="-5" type="curve" smooth="yes"/>
      <point x="248" y="-5"/>
      <point x="295" y="17"/>
      <point x="431" y="156" type="curve"/>
      <point x="386" y="0" type="line"/>
      <point x="395" y="0" type="line"/>
      <point x="281" y="-101"/>
      <point x="266" y="-133"/>
    </contour>
  </outline>
</glyph>
<glyph name="Schwa" format="2">
  <advance width="614"/>
  <unicode hex="018F"/>
  <outline>
    <contour>
      <point x="569" y="302" type="curve" smooth="yes"/>
      <point x="590" y="375"/>
      <point x="599" y="432"/>
      <point x="599" y="480" type="curve" smooth="yes"/>
      <point x="599" y="616"/>
      <point x="519" y="664"/>
      <point x="383" y="664" type="curve" smooth="yes"/>
      <point x="342" y="664"/>
      <point x="312" y="660"/>
      <point x="277" y="653" type="curve"/>
      <point x="254" y="598" type="line"/>
      <point x="300" y="608"/>
      <point x="345" y="613"/>
      <point x="380" y="613" type="curve" smooth="yes"/>
      <point x="481" y="613"/>
      <point x="537" y="584"/>
      <point x="537" y="482" type="curve" smooth="yes"/>
      <point x="537" y="452"/>
      <point x="532" y="414"/>
      <point x="522" y="369" type="curve"/>
      <point x="110" y="369" type="line"/>
      <point x="76" y="275"/>
      <point x="64" y="202"/>
      <point x="64" y="147" type="curve" smooth="yes"/>
      <point x="64" y="36"/>
      <point x="134" y="-15"/>
      <point x="243" y="-15" type="curve" smooth="yes"/>
      <point x="382" y="-15"/>
      <point x="501" y="65"/>
    </contour>
    <contour>
      <point x="126" y="154" type="curve" smooth="yes"/>
      <point x="126" y="205"/>
      <point x="136" y="261"/>
      <point x="154" y="318" type="curve"/>
      <point x="508" y="318" type="line"/>
      <point x="443" y="99"/>
      <point x="355" y="36"/>
      <point x="243" y="36" type="curve" smooth="yes"/>
      <point x="171" y="36"/>
      <point x="126" y="63"/>
    </contour>
  </outline>
</glyph>
<glyph name="Uhorn" format="2">
  <advance width="614"/>
  <unicode hex="01AF"/>
  <outline>
    <contour>
      <point x="466" y="211" type="line" smooth="yes"/>
      <point x="431" y="89"/>
      <point x="369" y="36"/>
      <point x="275" y="36" type="curve" smooth="yes"/>
      <point x="177" y="36"/>
      <point x="133" y="85"/>
      <point x="133" y="159" type="curve" smooth="yes"/>
      <point x="133" y="181"/>
      <point x="138" y="213"/>
      <point x="155" y="273" type="curve" smooth="yes"/>
      <point x="265" y="655" type="line"/>
      <point x="204" y="655" type="line"/>
      <point x="96" y="281" type="line" smooth="yes"/>
      <point x="78" y="218"/>
      <point x="74" y="188"/>
      <point x="74" y="162" type="curve" smooth="yes"/>
      <point x="74" y="40"/>
      <point x="152" y="-15"/>
      <point x="267" y="-15" type="curve" smooth="yes"/>
      <point x="403" y="-15"/>
      <point x="480" y="52"/>
      <point x="524" y="205" type="curve" smooth="yes"/>
      <point x="641" y="610" type="line"/>
      <point x="748" y="610"/>
      <point x="799" y="637"/>
      <point x="836" y="768" type="curve"/>
      <point x="776" y="768" type="line"/>
      <point x="744" y="672"/>
      <point x="724" y="655"/>
      <point x="631" y="655" type="curve" smooth="yes"/>
      <point x="594" y="655" type="line"/>
    </contour>
  </outline>
</glyph>
<glyph name="uhorn" format="2">
  <advance width="614"/>
  <unicode hex="01B0"/>
  <anchor x="384" y="502" name="aboveLC"/>
  <anchor x="221" y="-35" name="below"/>
  <anchor x="373" y="461" name="aboveLCx"/>
  <outline>
    <contour>
      <point x="386" y="0" type="line"/>
      <point x="445" y="0" type="line"/>
      <point x="565" y="419" type="line"/>
      <point x="660" y="422"/>
      <point x="701" y="449"/>
      <point x="737" y="572" type="curve"/>
      <point x="679" y="572" type="line"/>
      <point x="647" y="476"/>
      <point x="627" y="460"/>
      <point x="537" y="460" type="curve" smooth="yes"/>
      <point x="518" y="460" type="line"/>
      <point x="455" y="240" type="line"/>
      <point x="285" y="68"/>
      <point x="246" y="47"/>
      <point x="192" y="47" type="curve" smooth="yes"/>
      <point x="154" y="47"/>
      <point x="129" y="65"/>
      <point x="129" y="100" type="curve" smooth="yes"/>
      <point x="129" y="113"/>
      <point x="131" y="129"/>
      <point x="142" y="168" type="curve" smooth="yes"/>
      <point x="226" y="460" type="line"/>
      <point x="167" y="460" type="line"/>
      <point x="85" y="176" type="line" smooth="yes"/>
      <point x="72" y="129"/>
      <point x="68" y="106"/>
      <point x="68" y="91" type="curve" smooth="yes"/>
      <point x="68" y="32"/>
      <point x="114" y="-5"/>
      <point x="177" y="-5" type="curve" smooth="yes"/>
      <point x="248" y="-5"/>
      <point x="295" y="17"/>
      <point x="431" y="156" type="curve"/>
    </contour>
  </outline>
</glyph>
<glyph name="Oogonek" format="2">
  <advance width="614"/>
  <unicode hex="01EA"/>
  <outline>
    <contour>
      <point x="97" y="-175" type="curve" smooth="yes"/>
      <point x="97" y="-213"/>
      <point x="116" y="-232"/>
      <point x="189" y="-236" type="curve" smooth="yes"/>
      <point x="264" y="-240" type="line"/>
      <point x="280" y="-197" type="line"/>
      <point x="215" y="-193" type="line" smooth="yes"/>
      <point x="169" y="-190"/>
      <point x="159" y="-181"/>
      <point x="159" y="-163" type="curve" smooth="yes"/>
      <point x="159" y="-142"/>
      <point x="165" y="-111"/>
      <point x="257" y="-15" type="curve"/>
      <point x="413" y="-15"/>
      <point x="535" y="123"/>
      <point x="583" y="289" type="curve" smooth="yes"/>
      <point x="599" y="344"/>
      <point x="606" y="404"/>
      <point x="606" y="449" type="curve" smooth="yes"/>
      <point x="606" y="600"/>
      <point x="526" y="670"/>
      <point x="407" y="670" type="curve" smooth="yes"/>
      <point x="254" y="670"/>
      <point x="132" y="532"/>
      <point x="84" y="366" type="curve" smooth="yes"/>
      <point x="68" y="311"/>
      <point x="61" y="251"/>
      <point x="61" y="206" type="curve" smooth="yes"/>
      <point x="61" y="74"/>
      <point x="123" y="3"/>
      <point x="218" y="-12" type="curve"/>
      <point x="112" y="-108"/>
      <point x="97" y="-139"/>
    </contour>
    <contour>
      <point x="263" y="36" type="curve" smooth="yes"/>
      <point x="180" y="36"/>
      <point x="124" y="88"/>
      <point x="124" y="203" type="curve" smooth="yes"/>
      <point x="124" y="247"/>
      <point x="131" y="306"/>
      <point x="148" y="365" type="curve" smooth="yes"/>
      <point x="187" y="500"/>
      <point x="280" y="619"/>
      <point x="404" y="619" type="curve" smooth="yes"/>
      <point x="487" y="619"/>
      <point x="543" y="567"/>
      <point x="543" y="452" type="curve" smooth="yes"/>
      <point x="543" y="408"/>
      <point x="536" y="349"/>
      <point x="519" y="290" type="curve" smooth="yes"/>
      <point x="480" y="155"/>
      <point x="387" y="36"/>
    </contour>
  </outline>
</glyph>
<glyph name="oogonek" format="2">
  <advance width="614"/>
  <unicode hex="01EB"/>
  <outline>
    <contour>
      <point x="97" y="-175" type="curve" smooth="yes"/>
      <point x="97" y="-213"/>
      <point x="116" y="-232"/>
      <point x="189" y="-236" type="curve" smooth="yes"/>
      <point x="264" y="-240" type="line"/>
      <point x="280" y="-197" type="line"/>
      <point x="215" y="-193" type="line" smooth="yes"/>
      <point x="169" y="-190"/>
      <point x="159" y="-181"/>
      <point x="159" y="-163" type="curve" smooth="yes"/>
      <point x="159" y="-142"/>
      <point x="165" y="-111"/>
      <point x="257" y="-15" type="curve"/>
      <point x="437.0" y="-15.0"/>
      <point x="556" y="131"/>
      <point x="556" y="273" type="curve" smooth="yes"/>
      <point x="556" y="385"/>
      <point x="482" y="475"/>
      <point x="356" y="475" type="curve" smooth="yes"/>
      <point x="177" y="475"/>
      <point x="58" y="329"/>
      <point x="58" y="187" type="curve" smooth="yes"/>
      <point x="58" y="87"/>
      <point x="116" y="5"/>
      <point x="218" y="-12" type="curve"/>
      <point x="112" y="-108"/>
      <point x="97" y="-139"/>
    </contour>
    <contour>
      <point x="263" y="34" type="curve" smooth="yes"/>
      <point x="180" y="34"/>
      <point x="118" y="97"/>
      <point x="118" y="185" type="curve" smooth="yes"/>
      <point x="118" y="312"/>
      <point x="226" y="426"/>
      <point x="351" y="426" type="curve" smooth="yes"/>
      <point x="434" y="426"/>
      <point x="496" y="363"/>
      <point x="496" y="275" type="curve" smooth="yes"/>
      <point x="496" y="148"/>
      <point x="388" y="34"/>
    </contour>
  </outline>
</glyph>
<glyph name="schwa" format="2">
  <advance width="614"/>
  <unicode hex="0259"/>
  <outline>
    <contour>
      <point x="537" y="302" type="curve" smooth="yes"/>
      <point x="537" y="421"/>
      <point x="470" y="465"/>
      <point x="218" y="465" type="curve"/>
      <point x="202" y="416" type="line"/>
      <point x="409" y="416"/>
      <point x="475" y="389"/>
      <point x="475" y="301" type="curve" smooth="yes"/>
      <point x="475" y="291"/>
      <point x="474" y="281"/>
      <point x="473" y="271" type="curve"/>
      <point x="304" y="256" type="line" smooth="yes"/>
      <point x="87" y="236"/>
      <point x="44" y="178"/>
      <point x="44" y="102" type="curve" smooth="yes"/>
      <point x="44" y="34"/>
      <point x="101" y="-15"/>
      <point x="203" y="-15" type="curve" smooth="yes"/>
      <point x="390" y="-15"/>
      <point x="537" y="140"/>
    </contour>
    <contour>
      <point x="203" y="35" type="curve" smooth="yes"/>
      <point x="140" y="35"/>
      <point x="106" y="66"/>
      <point x="106" y="102" type="curve" smooth="yes"/>
      <point x="106" y="148"/>
      <point x="143" y="196"/>
      <point x="307" y="212" type="curve" smooth="yes"/>
      <point x="463" y="227" type="line"/>
      <point x="429" y="119"/>
      <point x="321" y="35"/>
    </contour>
  </outline>
</glyph>
<glyph name="gravecmb" format="2">
  <unicode hex="0300"/>
  <anchor x="78" y="502" name="_aboveLC"/>
  <anchor x="69" y="472" name="_aboveLCx"/>
  <outline>
    <contour>
      <point x="172" y="563" type="line"/>
      <point x="21" y="734" type="line"/>
      <point x="-24" y="694" type="line"/>
      <point x="141" y="535" type="line"/>
    </contour>
  </outline>
</glyph>
<glyph name="acutecmb" format="2">
  <unicode hex="0301"/>
  <anchor x="78" y="502" name="_aboveLC"/>
  <anchor x="69" y="472" name="_aboveLCx"/>
  <outline>
    <contour>
      <point x="10" y="570" type="line"/>
      <point x="34" y="536" type="line"/>
      <point x="290" y="695" type="line"/>
      <point x="259" y="741" type="line"/>
    </contour>
  </outline>
</glyph>
<glyph name="circumflexcmb" format="2">
  <unicode hex="0302"/>
  <anchor x="78" y="502" name="_aboveLC"/>
  <anchor x="69" y="472" name="_aboveLCx"/>
  <outline>
    <contour>
      <point x="-89" y="567" type="line"/>
      <point x="-65" y="536" type="line"/>
      <point x="129" y="682" type="line"/>
      <point x="241" y="536" type="line"/>
      <point x="276" y="558" type="line"/>
      <point x="159" y="741" type="line"/>
      <point x="123" y="741" type="line"/>
    </contour>
  </outline>
</glyph>
<glyph name="macroncmb" format="2">
  <unicode hex="0304"/>
  <anchor x="78" y="502" name="_aboveLC"/>
  <anchor x="69" y="472" name="_aboveLCx"/>
  <outline>
    <contour>
      <point x="-65" y="576" type="line"/>
      <point x="263" y="576" type="line"/>
      <point x="278" y="626" type="line"/>
      <point x="-50" y="626" type="line"/>
    </contour>
  </outline>
</glyph>
<glyph name="brevecmb" format="2">
  <unicode hex="0306"/>
  <anchor x="78" y="502" name="_aboveLC"/>
  <anchor x="69" y="472" name="_aboveLCx"/>
  <outline>
    <contour>
      <point x="102" y="586" type="curve" smooth="yes"/>
      <point x="36" y="586"/>
      <point x="12" y="631"/>
      <point x="6" y="730" type="curve"/>
      <point x="-35" y="720" type="line"/>
      <point x="-35" y="589"/>
      <point x="1" y="536"/>
      <point x="97" y="536" type="curve" smooth="yes"/>
      <point x="193" y="536"/>
      <point x="253" y="589"/>
      <point x="324" y="716" type="curve"/>
      <point x="280" y="730" type="line"/>
      <point x="218" y="631"/>
      <point x="168" y="586"/>
    </contour>
  </outline>
</glyph>
<glyph name="dotaccentcmb" format="2">
  <unicode hex="0307"/>
  <anchor x="78" y="502" name="_aboveLC"/>
  <anchor x="69" y="472" name="_aboveLCx"/>
  <outline>
    <contour>
      <point x="98" y="556" type="curve" smooth="yes"/>
      <point x="136" y="556"/>
      <point x="165" y="581"/>
      <point x="165" y="623" type="curve" smooth="yes"/>
      <point x="165" y="648"/>
      <point x="147" y="659"/>
      <point x="118" y="659" type="curve" smooth="yes"/>
      <point x="78" y="659"/>
      <point x="51" y="626"/>
      <point x="51" y="592" type="curve" smooth="yes"/>
      <point x="51" y="566"/>
      <point x="72" y="556"/>
    </contour>
  </outline>
</glyph>
<glyph name="dieresiscmb" format="2">
  <unicode hex="0308"/>
  <anchor x="78" y="502" name="_aboveLC"/>
  <anchor x="69" y="472" name="_aboveLCx"/>
  <outline>
    <contour>
      <point x="-21" y="556" type="curve" smooth="yes"/>
      <point x="24" y="556"/>
      <point x="44" y="589"/>
      <point x="44" y="620" type="curve" smooth="yes"/>
      <point x="44" y="645"/>
      <point x="25" y="655"/>
      <point x="-1" y="655" type="curve" smooth="yes"/>
      <point x="-37" y="655"/>
      <point x="-66" y="625"/>
      <point x="-66" y="591" type="curve" smooth="yes"/>
      <point x="-66" y="570"/>
      <point x="-52" y="556"/>
    </contour>
    <contour>
      <point x="215" y="556" type="curve" smooth="yes"/>
      <point x="254" y="556"/>
      <point x="280" y="582"/>
      <point x="280" y="620" type="curve" smooth="yes"/>
      <point x="280" y="641"/>
      <point x="265" y="655"/>
      <point x="236" y="655" type="curve" smooth="yes"/>
      <point x="200" y="655"/>
      <point x="171" y="626"/>
      <point x="171" y="591" type="curve" smooth="yes"/>
      <point x="171" y="570"/>
      <point x="185" y="556"/>
    </contour>
  </outline>
</glyph>
<glyph name="hookcmb" format="2">
  <unicode hex="0309"/>
  <outline>
    <contour>
      <point x="-3" y="536" type="line"/>
      <point x="167" y="548"/>
      <point x="224" y="601"/>
      <point x="224" y="662" type="curve" smooth="yes"/>
      <point x="224" y="702"/>
      <point x="190" y="732"/>
      <point x="76" y="751" type="curve"/>
      <point x="35" y="720" type="line"/>
      <point x="35" y="717" type="line"/>
      <point x="140" y="699"/>
      <point x="165" y="680"/>
      <point x="165" y="658" type="curve" smooth="yes"/>
      <point x="165" y="624"/>
      <point x="128" y="589"/>
      <point x="-6" y="575" type="curve"/>
      <point x="-7" y="574" type="line"/>
    </contour>
  </outline>
</glyph>
<glyph name="ringcmb" format="2">
  <unicode hex="030A"/>
  <anchor x="78" y="502" name="_aboveLC"/>
  <anchor x="69" y="472" name="_aboveLCx"/>
  <outline>
    <contour>
      <point x="141" y="772" type="curve" smooth="yes"/>
      <point x="42" y="772"/>
      <point x="-21" y="709"/>
      <point x="-21" y="633" type="curve" smooth="yes"/>
      <point x="-21" y="569"/>
      <point x="30" y="536"/>
      <point x="103" y="536" type="curve" smooth="yes"/>
      <point x="202" y="536"/>
      <point x="265" y="599"/>
      <point x="265" y="675" type="curve" smooth="yes"/>
      <point x="265" y="739"/>
      <point x="214" y="772"/>
    </contour>
    <contour>
      <point x="113" y="580" type="curve"/>
      <point x="56" y="580"/>
      <point x="27" y="598"/>
      <point x="27" y="634" type="curve" smooth="yes"/>
      <point x="27" y="687"/>
      <point x="72" y="728"/>
      <point x="131" y="728" type="curve" smooth="yes"/>
      <point x="188" y="728"/>
      <point x="217" y="710"/>
      <point x="217" y="674" type="curve" smooth="yes"/>
      <point x="217" y="621"/>
      <point x="172" y="580"/>
    </contour>
  </outline>
</glyph>
<glyph name="caroncmb" format="2">
  <unicode hex="030C"/>
  <anchor x="78" y="502" name="_aboveLC"/>
  <anchor x="69" y="472" name="_aboveLCx"/>
  <outline>
    <contour>
      <point x="-42" y="719" type="line"/>
      <point x="75" y="536" type="line"/>
      <point x="111" y="536" type="line"/>
      <point x="323" y="710" type="line"/>
      <point x="299" y="741" type="line"/>
      <point x="105" y="595" type="line"/>
      <point x="-7" y="741" type="line"/>
    </contour>
  </outline>
</glyph>
<glyph name="commaaboverightcmb" format="2">
  <unicode hex="0315"/>
  <anchor x="138" y="710" name="_topright"/>
  <outline>
    <contour>
      <point x="73" y="486" type="line"/>
      <point x="112" y="486" type="line"/>
      <point x="208" y="710" type="line"/>
      <point x="138" y="710" type="line"/>
    </contour>
  </outline>
</glyph>
<glyph name="dotbelowcmb" format="2">
  <unicode hex="0323"/>
  <anchor x="-76" y="-35" name="_below"/>
  <anchor x="-67" y="-5" name="_belowx"/>
  <outline>
    <contour>
      <point x="-118" y="-198" type="curve" smooth="yes"/>
      <point x="-80" y="-198"/>
      <point x="-51" y="-173"/>
      <point x="-51" y="-131" type="curve" smooth="yes"/>
      <point x="-51" y="-106"/>
      <point x="-69" y="-95"/>
      <point x="-98" y="-95" type="curve" smooth="yes"/>
      <point x="-138" y="-95"/>
      <point x="-165" y="-128"/>
      <point x="-165" y="-162" type="curve" smooth="yes"/>
      <point x="-165" y="-188"/>
      <point x="-144" y="-198"/>
    </contour>
  </outline>
</glyph>
<glyph name="dieresisbelowcmb" format="2">
  <unicode hex="0324"/>
  <outline>
    <contour>
      <point x="-230" y="-194" type="curve" smooth="yes"/>
      <point x="-185" y="-194"/>
      <point x="-165" y="-161"/>
      <point x="-165" y="-130" type="curve" smooth="yes"/>
      <point x="-165" y="-105"/>
      <point x="-184" y="-95"/>
      <point x="-210" y="-95" type="curve" smooth="yes"/>
      <point x="-246" y="-95"/>
      <point x="-275" y="-125"/>
      <point x="-275" y="-159" type="curve" smooth="yes"/>
      <point x="-275" y="-180"/>
      <point x="-261" y="-194"/>
    </contour>
    <contour>
      <point x="6" y="-194" type="curve" smooth="yes"/>
      <point x="45" y="-194"/>
      <point x="71" y="-168"/>
      <point x="71" y="-130" type="curve" smooth="yes"/>
      <point x="71" y="-109"/>
      <point x="56" y="-95"/>
      <point x="27" y="-95" type="curve" smooth="yes"/>
      <point x="-9" y="-95"/>
      <point x="-38" y="-124"/>
      <point x="-38" y="-159" type="curve" smooth="yes"/>
      <point x="-38" y="-180"/>
      <point x="-24" y="-194"/>
    </contour>
  </outline>
</glyph>
<glyph name="circumflexbelowcmb" format="2">
  <unicode hex="032D"/>
  <anchor x="-76" y="-35" name="_below"/>
  <anchor x="-67" y="-5" name="_belowx"/>
  <outline>
    <contour>
      <point x="38" y="-258" type="line"/>
      <point x="-79" y="-75" type="line"/>
      <point x="-115" y="-75" type="line"/>
      <point x="-327" y="-249" type="line"/>
      <point x="-303" y="-280" type="line"/>
      <point x="-109" y="-134" type="line"/>
      <point x="3" y="-280" type="line"/>
    </contour>
  </outline>
</glyph>
<glyph name="brevebelowcmb" format="2">
  <unicode hex="032E"/>
  <anchor x="-76" y="-35" name="_below"/>
  <anchor x="-67" y="-5" name="_belowx"/>
  <outline>
    <contour>
      <point x="-131" y="-220" type="curve" smooth="yes"/>
      <point x="-197" y="-220"/>
      <point x="-221" y="-175"/>
      <point x="-227" y="-76" type="curve"/>
      <point x="-268" y="-86" type="line"/>
      <point x="-268" y="-217"/>
      <point x="-232" y="-270"/>
      <point x="-136" y="-270" type="curve" smooth="yes"/>
      <point x="-40" y="-270"/>
      <point x="20" y="-217"/>
      <point x="91" y="-90" type="curve"/>
      <point x="47" y="-76" type="line"/>
      <point x="-15" y="-175"/>
      <point x="-65" y="-220"/>
    </contour>
  </outline>
</glyph>
<glyph name="macronbelowcmb" format="2">
  <unicode hex="0331"/>
  <anchor x="-76" y="-35" name="_below"/>
  <anchor x="-67" y="-5" name="_belowx"/>
  <outline>
    <contour>
      <point x="-280" y="-166" type="line"/>
      <point x="48" y="-166" type="line"/>
      <point x="63" y="-116" type="line"/>
      <point x="-265" y="-116" type="line"/>
    </contour>
  </outline>
</glyph>
<glyph name="bahtthai" format="2">
  <advance width="614"/>
  <unicode hex="0E3F"/>
  <outline>
    <contour>
      <point x="236" y="-142" type="line"/>
      <point x="277" y="0" type="line"/>
      <point x="281" y="0" type="line" smooth="yes"/>
      <point x="459" y="0"/>
      <point x="548" y="87"/>
      <point x="548" y="194" type="curve" smooth="yes"/>
      <point x="548" y="265"/>
      <point x="503" y="316"/>
      <point x="413" y="334" type="curve"/>
      <point x="413" y="338" type="line"/>
      <point x="568" y="372"/>
      <point x="617" y="450"/>
      <point x="617" y="529" type="curve" smooth="yes"/>
      <point x="617" y="598"/>
      <point x="569" y="648"/>
      <point x="465" y="654" type="curve"/>
      <point x="506" y="797" type="line"/>
      <point x="449" y="797" type="line"/>
      <point x="408" y="655" type="line"/>
      <point x="225" y="655" type="line"/>
      <point x="37" y="0" type="line"/>
      <point x="220" y="0" type="line"/>
      <point x="179" y="-142" type="line"/>
    </contour>
    <contour>
      <point x="317" y="364" type="curve" smooth="yes"/>
      <point x="199" y="359" type="line"/>
      <point x="270" y="606" type="line"/>
      <point x="400" y="606" type="line"/>
      <point x="331" y="365" type="line"/>
      <point x="326" y="364"/>
      <point x="322" y="364"/>
    </contour>
    <contour>
      <point x="551" y="519" type="curve" smooth="yes"/>
      <point x="551" y="458"/>
      <point x="496" y="392"/>
      <point x="378" y="371" type="curve"/>
      <point x="445" y="606" type="line"/>
      <point x="520" y="603"/>
      <point x="551" y="569"/>
    </contour>
    <contour>
      <point x="315" y="310" type="line"/>
      <point x="240" y="49" type="line"/>
      <point x="110" y="49" type="line"/>
      <point x="186" y="314" type="line"/>
    </contour>
    <contour>
      <point x="485" y="198" type="curve" smooth="yes"/>
      <point x="485" y="123"/>
      <point x="419" y="49"/>
      <point x="297" y="49" type="curve" smooth="yes"/>
      <point x="285" y="49" type="line"/>
      <point x="359" y="307" type="line"/>
      <point x="446" y="296"/>
      <point x="485" y="251"/>
    </contour>
  </outline>
</glyph>
<glyph name="Hcedilla" format="2">
  <advance width="614"/>
  <unicode hex="1E28"/>
  <outline>
    <contour>
      <point x="222" y="655" type="line"/>
      <point x="34" y="0" type="line"/>
      <point x="43" y="0" type="line"/>
      <point x="-17" y="-93" type="line"/>
      <point x="-14" y="-103" type="line"/>
      <point x="98" y="-115"/>
      <point x="119" y="-126"/>
      <point x="119" y="-150" type="curve" smooth="yes"/>
      <point x="119" y="-181"/>
      <point x="98" y="-197"/>
      <point x="-108" y="-216" type="curve"/>
      <point x="-108" y="-265" type="line"/>
      <point x="164" y="-240"/>
      <point x="183" y="-201"/>
      <point x="183" y="-146" type="curve" smooth="yes"/>
      <point x="183" y="-102"/>
      <point x="166" y="-80"/>
      <point x="49" y="-61" type="curve"/>
      <point x="87" y="0" type="line"/>
      <point x="95" y="0" type="line"/>
      <point x="183" y="305" type="line"/>
      <point x="475" y="305" type="line"/>
      <point x="387" y="0" type="line"/>
      <point x="448" y="0" type="line"/>
      <point x="636" y="655" type="line"/>
      <point x="575" y="655" type="line"/>
      <point x="489" y="356" type="line"/>
      <point x="197" y="356" type="line"/>
      <point x="283" y="655" type="line"/>
    </contour>
  </outline>
</glyph>
<glyph name="hcedilla" format="2">
  <advance width="614"/>
  <unicode hex="1E29"/>
  <outline>
    <contour>
      <point x="300" y="710" type="line"/>
      <point x="241" y="710" type="line"/>
      <point x="37" y="0" type="line"/>
      <point x="45" y="0" type="line"/>
      <point x="-15" y="-93" type="line"/>
      <point x="-12" y="-103" type="line"/>
      <point x="100" y="-115"/>
      <point x="121" y="-126"/>
      <point x="121" y="-150" type="curve" smooth="yes"/>
      <point x="121" y="-181"/>
      <point x="100" y="-197"/>
      <point x="-106" y="-216" type="curve"/>
      <point x="-106" y="-265" type="line"/>
      <point x="166" y="-240"/>
      <point x="185" y="-201"/>
      <point x="185" y="-146" type="curve" smooth="yes"/>
      <point x="185" y="-102"/>
      <point x="168" y="-80"/>
      <point x="51" y="-61" type="curve"/>
      <point x="89" y="0" type="line"/>
      <point x="96" y="0" type="line"/>
      <point x="159" y="221" type="line"/>
      <point x="329" y="392"/>
      <point x="368" y="413"/>
      <point x="422" y="413" type="curve" smooth="yes"/>
      <point x="460" y="413"/>
      <point x="485" y="395"/>
      <point x="485" y="360" type="curve" smooth="yes"/>
      <point x="485" y="347"/>
      <point x="483" y="331"/>
      <point x="472" y="292" type="curve" smooth="yes"/>
      <point x="388" y="0" type="line"/>
      <point x="447" y="0" type="line"/>
      <point x="529" y="284" type="line" smooth="yes"/>
      <point x="542" y="331"/>
      <point x="546" y="354"/>
      <point x="546" y="369" type="curve" smooth="yes"/>
      <point x="546" y="428"/>
      <point x="500" y="465"/>
      <point x="437" y="465" type="curve" smooth="yes"/>
      <point x="367" y="465"/>
      <point x="319" y="443"/>
      <point x="183" y="304" type="curve"/>
    </contour>
  </outline>
</glyph>
<glyph name="emdash" format="2">
  <advance width="614"/>
  <unicode hex="2014"/>
  <outline>
    <contour>
      <point x="73" y="309" type="line"/>
      <point x="57" y="254" type="line"/>
      <point x="571" y="254" type="line"/>
      <point x="587" y="309" type="line"/>
    </contour>
  </outline>
</glyph>
<glyph name="quoteleft" format="2">
  <advance width="614"/>
  <unicode hex="2018"/>
  <outline>
    <contour>
      <point x="560" y="710" type="line"/>
      <point x="497" y="710" type="line"/>
      <point x="372" y="626"/>
      <point x="322" y="571"/>
      <point x="289" y="456" type="curve"/>
      <point x="385" y="456" type="line"/>
      <point x="411" y="547"/>
      <point x="454" y="609"/>
      <point x="559" y="708" type="curve"/>
    </contour>
  </outline>
</glyph>
<glyph name="quoteright" format="2">
  <advance width="614"/>
  <unicode hex="2019"/>
  <outline>
    <contour>
      <point x="257" y="456" type="line"/>
      <point x="320" y="456" type="line"/>
      <point x="445" y="540"/>
      <point x="495" y="595"/>
      <point x="528" y="710" type="curve"/>
      <point x="432" y="710" type="line"/>
      <point x="405" y="619"/>
      <point x="363" y="557"/>
      <point x="257" y="458" type="curve"/>
    </contour>
  </outline>
</glyph>
<glyph name="quotedblleft" format="2">
  <advance width="614"/>
  <unicode hex="201C"/>
  <outline>
    <contour>
      <point x="436" y="710" type="line"/>
      <point x="373" y="710" type="line"/>
      <point x="234" y="607"/>
      <point x="211" y="578"/>
      <point x="160" y="446" type="curve"/>
      <point x="260" y="446" type="line"/>
      <point x="303" y="560"/>
      <point x="317" y="584"/>
      <point x="435" y="708" type="curve"/>
    </contour>
    <contour>
      <point x="681" y="710" type="line"/>
      <point x="618" y="710" type="line"/>
      <point x="479" y="607"/>
      <point x="456" y="578"/>
      <point x="405" y="446" type="curve"/>
      <point x="505" y="446" type="line"/>
      <point x="548" y="560"/>
      <point x="562" y="584"/>
      <point x="680" y="708" type="curve"/>
    </contour>
  </outline>
</glyph>
<glyph name="quotedblright" format="2">
  <advance width="614"/>
  <unicode hex="201D"/>
  <outline>
    <contour>
      <point x="378" y="446" type="line"/>
      <point x="441" y="446" type="line"/>
      <point x="579" y="549"/>
      <point x="603" y="578"/>
      <point x="654" y="710" type="curve"/>
      <point x="554" y="710" type="line"/>
      <point x="511" y="596"/>
      <point x="496" y="572"/>
      <point x="378" y="448" type="curve"/>
    </contour>
    <contour>
      <point x="133" y="446" type="line"/>
      <point x="196" y="446" type="line"/>
      <point x="334" y="549"/>
      <point x="358" y="578"/>
      <point x="409" y="710" type="curve"/>
      <point x="309" y="710" type="line"/>
      <point x="266" y="596"/>
      <point x="251" y="572"/>
      <point x="133" y="448" type="curve"/>
    </contour>
  </outline>
</glyph>
<glyph name="dagger" format="2">
  <advance width="614"/>
  <unicode hex="2020"/>
  <outline>
    <contour>
      <point x="593" y="435" type="curve"/>
      <point x="616" y="517" type="line"/>
      <point x="547" y="517"/>
      <point x="473" y="500"/>
      <point x="404" y="496" type="curve"/>
      <point x="428" y="567"/>
      <point x="466" y="640"/>
      <point x="486" y="710" type="curve"/>
      <point x="394" y="710" type="line"/>
      <point x="374" y="640"/>
      <point x="372" y="567"/>
      <point x="355" y="496" type="curve"/>
      <point x="285" y="499"/>
      <point x="217" y="517"/>
      <point x="152" y="517" type="curve"/>
      <point x="129" y="435" type="line"/>
      <point x="193" y="435"/>
      <point x="273" y="455"/>
      <point x="344" y="459" type="curve"/>
      <point x="299" y="306"/>
      <point x="234" y="152"/>
      <point x="190" y="0" type="curve"/>
      <point x="282" y="0" type="line"/>
      <point x="326" y="152"/>
      <point x="350" y="306"/>
      <point x="393" y="459" type="curve"/>
      <point x="460" y="455"/>
      <point x="525" y="435"/>
    </contour>
  </outline>
</glyph>
<glyph name="daggerdbl" format="2">
  <advance width="614"/>
  <unicode hex="2021"/>
  <outline>
    <contour>
      <point x="509" y="195" type="curve"/>
      <point x="532" y="277" type="line"/>
      <point x="468" y="277"/>
      <point x="399" y="260"/>
      <point x="334" y="256" type="curve"/>
      <point x="392" y="459" type="line"/>
      <point x="461" y="455"/>
      <point x="528" y="435"/>
      <point x="593" y="435" type="curve"/>
      <point x="616" y="517" type="line"/>
      <point x="549" y="517"/>
      <point x="473" y="499"/>
      <point x="403" y="496" type="curve"/>
      <point x="427" y="567"/>
      <point x="465" y="639"/>
      <point x="486" y="710" type="curve"/>
      <point x="394" y="710" type="line"/>
      <point x="373" y="639"/>
      <point x="372" y="567"/>
      <point x="354" y="496" type="curve"/>
      <point x="286" y="499"/>
      <point x="223" y="517"/>
      <point x="152" y="517" type="curve"/>
      <point x="129" y="435" type="line"/>
      <point x="198" y="435"/>
      <point x="274" y="455"/>
      <point x="344" y="459" type="curve"/>
      <point x="286" y="256" type="line"/>
      <point x="223" y="259"/>
      <point x="165" y="277"/>
      <point x="99" y="277" type="curve"/>
      <point x="76" y="195" type="line"/>
      <point x="142" y="195"/>
      <point x="210" y="215"/>
      <point x="275" y="219" type="curve"/>
      <point x="252" y="146"/>
      <point x="214" y="73"/>
      <point x="193" y="0" type="curve"/>
      <point x="279" y="0" type="line"/>
      <point x="300" y="73"/>
      <point x="305" y="146"/>
      <point x="324" y="219" type="curve"/>
      <point x="386" y="215"/>
      <point x="444" y="195"/>
    </contour>
  </outline>
</glyph>
<glyph name="ellipsis" format="2">
  <advance width="614"/>
  <unicode hex="2026"/>
  <outline>
    <contour>
      <point x="116" y="81" type="curve" smooth="yes"/>
      <point x="116" y="109"/>
      <point x="100" y="122"/>
      <point x="63" y="122" type="curve" smooth="yes"/>
      <point x="14" y="122"/>
      <point x="-12" y="75"/>
      <point x="-12" y="29" type="curve" smooth="yes"/>
      <point x="-12" y="-3"/>
      <point x="8" y="-15"/>
      <point x="42" y="-15" type="curve" smooth="yes"/>
      <point x="93" y="-15"/>
      <point x="116" y="35"/>
    </contour>
    <contour>
      <point x="321" y="81" type="curve" smooth="yes"/>
      <point x="321" y="109"/>
      <point x="305" y="122"/>
      <point x="268" y="122" type="curve" smooth="yes"/>
      <point x="219" y="122"/>
      <point x="193" y="75"/>
      <point x="193" y="29" type="curve" smooth="yes"/>
      <point x="193" y="-3"/>
      <point x="213" y="-15"/>
      <point x="247" y="-15" type="curve" smooth="yes"/>
      <point x="298" y="-15"/>
      <point x="321" y="35"/>
    </contour>
    <contour>
      <point x="526" y="81" type="curve" smooth="yes"/>
      <point x="526" y="109"/>
      <point x="510" y="122"/>
      <point x="473" y="122" type="curve" smooth="yes"/>
      <point x="424" y="122"/>
      <point x="398" y="75"/>
      <point x="398" y="29" type="curve" smooth="yes"/>
      <point x="398" y="-3"/>
      <point x="418" y="-15"/>
      <point x="452" y="-15" type="curve" smooth="yes"/>
      <point x="503" y="-15"/>
      <point x="526" y="35"/>
    </contour>
  </outline>
</glyph>
<glyph name="dong" format="2">
  <advance width="614"/>
  <unicode hex="20AB"/>
  <outline>
    <contour>
      <point x="399" y="0" type="line"/>
      <point x="448" y="0" type="line"/>
      <point x="595" y="513" type="line"/>
      <point x="681" y="513" type="line"/>
      <point x="695" y="561" type="line"/>
      <point x="609" y="561" type="line"/>
      <point x="636" y="655" type="line"/>
      <point x="577" y="655" type="line"/>
      <point x="550" y="561" type="line"/>
      <point x="350" y="561" type="line"/>
      <point x="336" y="513" type="line"/>
      <point x="536" y="513" type="line"/>
      <point x="505" y="404" type="line"/>
      <point x="469" y="418"/>
      <point x="427" y="428"/>
      <point x="378" y="428" type="curve" smooth="yes"/>
      <point x="176" y="428"/>
      <point x="54" y="300"/>
      <point x="54" y="148" type="curve" smooth="yes"/>
      <point x="54" y="51"/>
      <point x="116" y="-8"/>
      <point x="217" y="-8" type="curve" smooth="yes"/>
      <point x="282" y="-8"/>
      <point x="340" y="19"/>
      <point x="417" y="95" type="curve"/>
    </contour>
    <contour>
      <point x="116" y="151" type="curve" smooth="yes"/>
      <point x="116" y="253"/>
      <point x="197" y="378"/>
      <point x="377" y="378" type="curve" smooth="yes"/>
      <point x="424" y="378"/>
      <point x="461" y="369"/>
      <point x="491" y="354" type="curve"/>
      <point x="436" y="163" type="line"/>
      <point x="324" y="59"/>
      <point x="280" y="42"/>
      <point x="223" y="42" type="curve" smooth="yes"/>
      <point x="162" y="42"/>
      <point x="116" y="83"/>
    </contour>
    <contour>
      <point x="-9" y="-136" type="line"/>
      <point x="399" y="-136" type="line"/>
      <point x="413" y="-88" type="line"/>
      <point x="5" y="-88" type="line"/>
    </contour>
  </outline>
</glyph>
<glyph name="Euro" format="2">
  <advance width="614"/>
  <unicode hex="20AC"/>
  <outline>
    <contour>
      <point x="37" y="233" type="line"/>
      <point x="126" y="233" type="line"/>
      <point x="119" y="201"/>
      <point x="118" y="178"/>
      <point x="118" y="157" type="curve" smooth="yes"/>
      <point x="118" y="48"/>
      <point x="180" y="-15"/>
      <point x="308" y="-15" type="curve" smooth="yes"/>
      <point x="371" y="-15"/>
      <point x="439" y="1"/>
      <point x="512" y="42" type="curve"/>
      <point x="488" y="90" type="line"/>
      <point x="406" y="46"/>
      <point x="362" y="36"/>
      <point x="315" y="36" type="curve" smooth="yes"/>
      <point x="225" y="36"/>
      <point x="181" y="80"/>
      <point x="180" y="162" type="curve" smooth="yes"/>
      <point x="180" y="181"/>
      <point x="182" y="203"/>
      <point x="188" y="234" type="curve"/>
      <point x="426" y="234" type="line"/>
      <point x="439" y="280" type="line"/>
      <point x="200" y="280" type="line"/>
      <point x="228" y="375" type="line"/>
      <point x="467" y="375" type="line"/>
      <point x="480" y="421" type="line"/>
      <point x="241" y="421" type="line"/>
      <point x="288" y="562"/>
      <point x="365" y="619"/>
      <point x="465" y="619" type="curve" smooth="yes"/>
      <point x="507" y="619"/>
      <point x="542" y="612"/>
      <point x="621" y="569" type="curve"/>
      <point x="645" y="617" type="line"/>
      <point x="570" y="658"/>
      <point x="523" y="670"/>
      <point x="457" y="670" type="curve" smooth="yes"/>
      <point x="339" y="670"/>
      <point x="233" y="598"/>
      <point x="178" y="422" type="curve"/>
      <point x="91" y="422" type="line"/>
      <point x="77" y="374" type="line"/>
      <point x="164" y="374" type="line"/>
      <point x="138" y="281" type="line"/>
      <point x="51" y="281" type="line"/>
    </contour>
  </outline>
</glyph>
<glyph name="peso" format="2">
  <advance width="614"/>
  <unicode hex="20B1"/>
  <outline>
    <contour>
      <point x="69" y="425" type="line"/>
      <point x="166" y="425" type="line"/>
      <point x="44" y="0" type="line"/>
      <point x="105" y="0" type="line"/>
      <point x="173" y="236" type="line"/>
      <point x="277" y="236" type="line" smooth="yes"/>
      <point x="435" y="236"/>
      <point x="545" y="306"/>
      <point x="577" y="425" type="curve"/>
      <point x="658" y="425" type="line"/>
      <point x="672" y="473" type="line"/>
      <point x="585" y="473" type="line"/>
      <point x="586" y="481"/>
      <point x="586" y="490"/>
      <point x="586" y="499" type="curve" smooth="yes"/>
      <point x="586" y="590"/>
      <point x="517" y="655"/>
      <point x="396" y="655" type="curve" smooth="yes"/>
      <point x="232" y="655" type="line"/>
      <point x="180" y="473" type="line"/>
      <point x="83" y="473" type="line"/>
    </contour>
    <contour>
      <point x="383" y="604" type="line" smooth="yes"/>
      <point x="477" y="604"/>
      <point x="520" y="564"/>
      <point x="520" y="498" type="curve" smooth="yes"/>
      <point x="520" y="487"/>
      <point x="519" y="476"/>
      <point x="518" y="466" type="curve"/>
      <point x="239" y="466" type="line"/>
      <point x="279" y="604" type="line"/>
    </contour>
    <contour>
      <point x="272" y="286" type="curve" smooth="yes"/>
      <point x="187" y="286" type="line"/>
      <point x="229" y="432" type="line"/>
      <point x="511" y="432" type="line"/>
      <point x="484" y="341"/>
      <point x="400" y="286"/>
    </contour>
  </outline>
</glyph>
<glyph name="uni20BA" format="2">
  <advance width="614"/>
  <unicode hex="20BA"/>
  <outline>
    <contour>
      <point x="-7" y="133" type="line"/>
      <point x="119" y="193" type="line"/>
      <point x="64" y="0" type="line"/>
      <point x="209" y="0" type="line" smooth="yes"/>
      <point x="429" y="0"/>
      <point x="549" y="119"/>
      <point x="591" y="304" type="curve"/>
      <point x="531" y="308" type="line"/>
      <point x="491" y="133"/>
      <point x="371" y="50"/>
      <point x="200" y="50" type="curve" smooth="yes"/>
      <point x="139" y="50" type="line"/>
      <point x="188" y="221" type="line"/>
      <point x="399" y="322" type="line"/>
      <point x="416" y="382" type="line"/>
      <point x="205" y="279" type="line"/>
      <point x="234" y="378" type="line"/>
      <point x="444" y="481" type="line"/>
      <point x="462" y="541" type="line"/>
      <point x="251" y="437" type="line"/>
      <point x="313" y="655" type="line"/>
      <point x="252" y="655" type="line"/>
      <point x="182" y="410" type="line"/>
      <point x="55" y="349" type="line"/>
      <point x="37" y="289" type="line"/>
      <point x="165" y="351" type="line"/>
      <point x="136" y="252" type="line"/>
      <point x="9" y="190" type="line"/>
    </contour>
  </outline>
</glyph>
<glyph name="uni20BD" format="2">
  <advance width="614"/>
  <unicode hex="20BD"/>
  <outline>
    <contour>
      <point x="-5" y="135" type="line"/>
      <point x="104" y="135" type="line"/>
      <point x="65" y="0" type="line"/>
      <point x="126" y="0" type="line"/>
      <point x="165" y="135" type="line"/>
      <point x="407" y="135" type="line"/>
      <point x="421" y="183" type="line"/>
      <point x="179" y="183" type="line"/>
      <point x="208" y="285" type="line"/>
      <point x="343" y="285" type="line" smooth="yes"/>
      <point x="472" y="285"/>
      <point x="548" y="313"/>
      <point x="593" y="358" type="curve" smooth="yes"/>
      <point x="632" y="397"/>
      <point x="648" y="444"/>
      <point x="648" y="499" type="curve" smooth="yes"/>
      <point x="648" y="590"/>
      <point x="579" y="655"/>
      <point x="458" y="655" type="curve" smooth="yes"/>
      <point x="253" y="655" type="line"/>
      <point x="161" y="333" type="line"/>
      <point x="52" y="333" type="line"/>
      <point x="38" y="285" type="line"/>
      <point x="147" y="285" type="line"/>
      <point x="118" y="183" type="line"/>
      <point x="9" y="183" type="line"/>
    </contour>
    <contour>
      <point x="445" y="604" type="line" smooth="yes"/>
      <point x="539" y="604"/>
      <point x="582" y="564"/>
      <point x="582" y="498" type="curve" smooth="yes"/>
      <point x="582" y="397"/>
      <point x="497" y="333"/>
      <point x="355" y="333" type="curve" smooth="yes"/>
      <point x="222" y="333" type="line"/>
      <point x="299" y="604" type="line"/>
    </contour>
  </outline>
</glyph>
<glyph name="approxequal" format="2">
  <advance width="614"/>
  <unicode hex="2248"/>
  <outline>
    <contour>
      <point x="345" y="491" type="curve" smooth="yes"/>
      <point x="272" y="550"/>
      <point x="251" y="558"/>
      <point x="227" y="558" type="curve" smooth="yes"/>
      <point x="185" y="558"/>
      <point x="161" y="545"/>
      <point x="60" y="379" type="curve"/>
      <point x="108" y="350" type="line"/>
      <point x="184" y="472"/>
      <point x="201" y="497"/>
      <point x="227" y="497" type="curve" smooth="yes"/>
      <point x="242" y="497"/>
      <point x="252" y="492"/>
      <point x="328" y="430" type="curve" smooth="yes"/>
      <point x="401" y="371"/>
      <point x="422" y="363"/>
      <point x="446" y="363" type="curve" smooth="yes"/>
      <point x="488" y="363"/>
      <point x="512" y="376"/>
      <point x="613" y="542" type="curve"/>
      <point x="565" y="571" type="line"/>
      <point x="489" y="449"/>
      <point x="472" y="424"/>
      <point x="446" y="424" type="curve" smooth="yes"/>
      <point x="431" y="424"/>
      <point x="421" y="429"/>
    </contour>
    <contour>
      <point x="313" y="228" type="curve" smooth="yes"/>
      <point x="240" y="287"/>
      <point x="219" y="295"/>
      <point x="195" y="295" type="curve" smooth="yes"/>
      <point x="153" y="295"/>
      <point x="129" y="282"/>
      <point x="28" y="116" type="curve"/>
      <point x="76" y="87" type="line"/>
      <point x="152" y="209"/>
      <point x="169" y="234"/>
      <point x="195" y="234" type="curve" smooth="yes"/>
      <point x="210" y="234"/>
      <point x="220" y="229"/>
      <point x="296" y="167" type="curve" smooth="yes"/>
      <point x="369" y="108"/>
      <point x="390" y="100"/>
      <point x="414" y="100" type="curve" smooth="yes"/>
      <point x="456" y="100"/>
      <point x="480" y="113"/>
      <point x="581" y="279" type="curve"/>
      <point x="533" y="308" type="line"/>
      <point x="457" y="186"/>
      <point x="440" y="161"/>
      <point x="414" y="161" type="curve" smooth="yes"/>
      <point x="399" y="161"/>
      <point x="389" y="166"/>
    </contour>
  </outline>
</glyph>
<glyph name="lightvertbxd" format="2">
  <advance width="614"/>
  <unicode hex="2502"/>
  <outline>
    <contour>
      <point x="277" y="-420" type="line"/>
      <point x="338" y="-420" type="line"/>
      <point x="338" y="1080" type="line"/>
      <point x="277" y="1080" type="line"/>
    </contour>
  </outline>
</glyph>
<glyph name="lighttrpldashhorzbxd" format="2">
  <advance width="614"/>
  <unicode hex="2504"/>
  <outline>
    <contour>
      <point x="34" y="300" type="line"/>
      <point x="171" y="300" type="line"/>
      <point x="171" y="361" type="line"/>
      <point x="34" y="361" type="line"/>
    </contour>
    <contour>
      <point x="239" y="300" type="line"/>
      <point x="375" y="300" type="line"/>
      <point x="375" y="361" type="line"/>
      <point x="239" y="361" type="line"/>
    </contour>
    <contour>
      <point x="443" y="300" type="line"/>
      <point x="580" y="300" type="line"/>
      <point x="580" y="361" type="line"/>
      <point x="443" y="361" type="line"/>
    </contour>
  </outline>
</glyph>
<glyph name="lighttrpldashvertbxd" format="2">
  <advance width="614"/>
  <unicode hex="2506"/>
  <outline>
    <contour>
      <point x="277" y="552" type="line"/>
      <point x="338" y="552" type="line"/>
      <point x="338" y="774" type="line"/>
      <point x="277" y="774" type="line"/>
    </contour>
    <contour>
      <point x="277" y="219" type="line"/>
      <point x="338" y="219" type="line"/>
      <point x="338" y="441" type="line"/>
      <point x="277" y="441" type="line"/>
    </contour>
    <contour>
      <point x="277" y="-114" type="line"/>
      <point x="338" y="-114" type="line"/>
      <point x="338" y="108" type="line"/>
      <point x="277" y="108" type="line"/>
    </contour>
  </outline>
</glyph>
<glyph name="heavytrpldashvertbxd" format="2">
  <advance width="614"/>
  <unicode hex="2507"/>
  <outline>
    <contour>
      <point x="231" y="552" type="line"/>
      <point x="383" y="552" type="line"/>
      <point x="383" y="774" type="line"/>
      <point x="231" y="774" type="line"/>
    </contour>
    <contour>
      <point x="231" y="219" type="line"/>
      <point x="383" y="219" type="line"/>
      <point x="383" y="441" type="line"/>
      <point x="231" y="441" type="line"/>
    </contour>
    <contour>
      <point x="231" y="-114" type="line"/>
      <point x="383" y="-114" type="line"/>
      <point x="383" y="108" type="line"/>
      <point x="231" y="108" type="line"/>
    </contour>
  </outline>
</glyph>
<glyph name="heavydnrightbxd" format="2">
  <advance width="614"/>
  <unicode hex="250F"/>
  <outline>
    <contour>
      <point x="231" y="-420" type="line"/>
      <point x="383" y="-420" type="line"/>
      <point x="383" y="254" type="line"/>
      <point x="634" y="254" type="line"/>
      <point x="634" y="406" type="line"/>
      <point x="231" y="406" type="line"/>
    </contour>
  </outline>
</glyph>
<glyph name="lightdnleftbxd" format="2">
  <advance width="614"/>
  <unicode hex="2510"/>
  <outline>
    <contour>
      <point x="-20" y="300" type="line"/>
      <point x="277" y="300" type="line"/>
      <point x="277" y="-420" type="line"/>
      <point x="338" y="-420" type="line"/>
      <point x="338" y="361" type="line"/>
      <point x="-20" y="361" type="line"/>
    </contour>
  </outline>
</glyph>
<glyph name="dnheavyleftlightbxd" format="2">
  <advance width="614"/>
  <unicode hex="2512"/>
  <outline>
    <contour>
      <point x="-20" y="300" type="line"/>
      <point x="231" y="300" type="line"/>
      <point x="231" y="-420" type="line"/>
      <point x="383" y="-420" type="line"/>
      <point x="383" y="361" type="line"/>
      <point x="-20" y="361" type="line"/>
    </contour>
  </outline>
</glyph>
<glyph name="uplightrightheavybxd" format="2">
  <advance width="614"/>
  <unicode hex="2515"/>
  <outline>
    <contour>
      <point x="277" y="254" type="line"/>
      <point x="634" y="254" type="line"/>
      <point x="634" y="406" type="line"/>
      <point x="338" y="406" type="line"/>
      <point x="338" y="1080" type="line"/>
      <point x="277" y="1080" type="line"/>
    </contour>
  </outline>
</glyph>
<glyph name="lightvertrightbxd" format="2">
  <advance width="614"/>
  <unicode hex="251C"/>
  <outline>
    <contour>
      <point x="277" y="-420" type="line"/>
      <point x="338" y="-420" type="line"/>
      <point x="338" y="300" type="line"/>
      <point x="634" y="300" type="line"/>
      <point x="634" y="361" type="line"/>
      <point x="338" y="361" type="line"/>
      <point x="338" y="1080" type="line"/>
      <point x="277" y="1080" type="line"/>
    </contour>
  </outline>
</glyph>
<glyph name="vertheavyhorzlightbxd" format="2">
  <advance width="614"/>
  <unicode hex="2542"/>
  <outline>
    <contour>
      <point x="-20" y="300" type="line"/>
      <point x="231" y="300" type="line"/>
      <point x="231" y="-420" type="line"/>
      <point x="383" y="-420" type="line"/>
      <point x="383" y="300" type="line"/>
      <point x="634" y="300" type="line"/>
      <point x="634" y="361" type="line"/>
      <point x="383" y="361" type="line"/>
      <point x="383" y="1080" type="line"/>
      <point x="231" y="1080" type="line"/>
      <point x="231" y="361" type="line"/>
      <point x="-20" y="361" type="line"/>
    </contour>
  </outline>
</glyph>
<glyph name="rightdnheavyleftuplightbxd" format="2">
  <advance width="614"/>
  <unicode hex="2546"/>
  <outline>
    <contour>
      <point x="-20" y="300" type="line"/>
      <point x="231" y="300" type="line"/>
      <point x="231" y="-420" type="line"/>
      <point x="383" y="-420" type="line"/>
      <point x="383" y="254" type="line"/>
      <point x="634" y="254" type="line"/>
      <point x="634" y="406" type="line"/>
      <point x="338" y="406" type="line"/>
      <point x="338" y="1080" type="line"/>
      <point x="277" y="1080" type="line"/>
      <point x="277" y="406" type="line"/>
      <point x="231" y="406" type="line"/>
      <point x="231" y="361" type="line"/>
      <point x="-20" y="361" type="line"/>
    </contour>
  </outline>
</glyph>
<glyph name="updblleftsngbxd" format="2">
  <advance width="614"/>
  <unicode hex="255C"/>
  <outline>
    <contour>
      <point x="-20" y="300" type="line"/>
      <point x="399" y="300" type="line"/>
      <point x="399" y="1080" type="line"/>
      <point x="338" y="1080" type="line"/>
      <point x="338" y="361" type="line"/>
      <point x="277" y="361" type="line"/>
      <point x="277" y="1080" type="line"/>
      <point x="216" y="1080" type="line"/>
      <point x="216" y="361" type="line"/>
      <point x="-20" y="361" type="line"/>
    </contour>
  </outline>
</glyph>
<glyph name="lightarcdnleftbxd" format="2">
  <advance width="614"/>
  <unicode hex="256E"/>
  <outline>
    <contour>
      <point x="338" y="-420" type="line"/>
      <point x="338" y="23" type="line" smooth="yes"/>
      <point x="338" y="256"/>
      <point x="233" y="361"/>
      <point x="0" y="361" type="curve" smooth="yes"/>
      <point x="-20" y="361" type="line"/>
      <point x="-20" y="300" type="line"/>
      <point x="0" y="300" type="line" smooth="yes"/>
      <point x="191" y="300"/>
      <point x="277" y="214"/>
      <point x="277" y="23" type="curve" smooth="yes"/>
      <point x="277" y="-420" type="line"/>
    </contour>
  </outline>
</glyph>
<glyph name="heavyrightbxd" format="2">
  <advance width="614"/>
  <unicode hex="257A"/>
  <outline>
    <contour>
      <point x="277" y="254" type="line"/>
      <point x="634" y="254" type="line"/>
      <point x="634" y="406" type="line"/>
      <point x="277" y="406" type="line"/>
    </contour>
  </outline>
</glyph>
<glyph name="heavydnbxd" format="2">
  <advance width="614"/>
  <unicode hex="257B"/>
  <outline>
    <contour>
      <point x="231" y="-420" type="line"/>
      <point x="383" y="-420" type="line"/>
      <point x="383" y="361" type="line"/>
      <point x="231" y="361" type="line"/>
    </contour>
  </outline>
</glyph>
<glyph name="dnthreequartersblock" format="2">
  <advance width="614"/>
  <unicode hex="2586"/>
  <outline>
    <contour>
      <point x="0" y="-360" type="line"/>
      <point x="614" y="-360" type="line"/>
      <point x="614" y="675" type="line"/>
      <point x="0" y="675" type="line"/>
    </contour>
  </outline>
</glyph>
<glyph name="uniE0A0" format="2">
  <advance width="614"/>
  <unicode hex="E0A0"/>
  <outline>
    <contour>
      <point x="281" y="1020" type="line"/>
      <point x="58" y="241" type="line"/>
      <point x="126" y="286" type="line"/>
      <point x="336" y="1020" type="line"/>
    </contour>
    <contour>
      <point x="-68" y="-198" type="curve" smooth="yes"/>
      <point x="-114" y="-360" type="line"/>
      <point x="-59" y="-360" type="line"/>
      <point x="-16" y="-209" type="line" smooth="yes"/>
      <point x="44" y="-1"/>
      <point x="61" y="45"/>
      <point x="245" y="126" type="curve" smooth="yes"/>
      <point x="420" y="206"/>
      <point x="441" y="258"/>
      <point x="479" y="389" type="curve" smooth="yes"/>
      <point x="516" y="520" type="line"/>
      <point x="677" y="520" type="line"/>
      <point x="678" y="524" type="line"/>
      <point x="551" y="728" type="line"/>
      <point x="547" y="728" type="line"/>
      <point x="301" y="524" type="line"/>
      <point x="300" y="520" type="line"/>
      <point x="461" y="520" type="line"/>
      <point x="426" y="396" type="line" smooth="yes"/>
      <point x="390" y="273"/>
      <point x="379" y="238"/>
      <point x="227" y="171" type="curve" smooth="yes"/>
      <point x="38" y="86"/>
      <point x="-4" y="25"/>
    </contour>
  </outline>
</glyph>
<glyph name="uniE0B0" format="2">
  <advance width="614"/>
  <unicode hex="E0B0"/>
  <outline>
    <contour>
      <point x="587" y="325" type="line"/>
      <point x="588" y="329" type="line"/>
      <point x="252" y="655" type="line"/>
      <point x="248" y="655" type="line"/>
      <point x="149" y="311" type="line"/>
      <point x="149" y="311" type="line"/>
      <point x="60" y="0" type="line"/>
      <point x="64" y="0" type="line"/>
    </contour>
  </outline>
</glyph>
<glyph name="uniE0B2" format="2">
  <advance width="614"/>
  <unicode hex="E0B2"/>
  <outline>
    <contour>
      <point x="81" y="325" type="line"/>
      <point x="418" y="0" type="line"/>
      <point x="422" y="0" type="line"/>
      <point x="520" y="342" type="line"/>
      <point x="520" y="342" type="line"/>
      <point x="610" y="655" type="line"/>
      <point x="606" y="655" type="line"/>
      <point x="82" y="329" type="line"/>
    </contour>
  </outline>
</glyph>
<glyph name="acutecmb.cap" format="2">
  <guideline x="270" y="885" angle="180.0" identifier="0rsWLzZF6m"/>
  <anchor x="132" y="691" name="_aboveUC"/>
  <anchor x="124" y="661" name="_aboveUCx"/>
  <outline>
    <contour>
      <point x="68" y="769" type="line"/>
      <point x="90" y="731" type="line"/>
      <point x="354" y="869" type="line"/>
      <point x="327" y="920" type="line"/>
    </contour>
  </outline>
</glyph>
<glyph name="ampersand_ampersand.liga" format="2">
  <advance width="614"/>
  <outline>
    <contour>
      <point x="48" y="278" type="curve" smooth="yes"/>
      <point x="8" y="238"/>
      <point x="-8" y="188"/>
      <point x="-8" y="124" type="curve" smooth="yes"/>
      <point x="-8" y="38"/>
      <point x="43" y="-5"/>
      <point x="129" y="-5" type="curve" smooth="yes"/>
      <point x="223" y="-5"/>
      <point x="280" y="28"/>
      <point x="363" y="139" type="curve"/>
      <point x="422" y="0" type="line"/>
      <point x="491" y="0" type="line"/>
      <point x="406" y="191" type="line"/>
      <point x="555" y="417" type="line"/>
      <point x="503" y="439" type="line"/>
      <point x="379" y="243" type="line"/>
      <point x="298" y="429" type="line" smooth="yes"/>
      <point x="281" y="468"/>
      <point x="276" y="493"/>
      <point x="276" y="515" type="curve" smooth="yes"/>
      <point x="276" y="576"/>
      <point x="324" y="618"/>
      <point x="389" y="618" type="curve" smooth="yes"/>
      <point x="426" y="618"/>
      <point x="466" y="613"/>
      <point x="537" y="596" type="curve"/>
      <point x="552" y="647" type="line"/>
      <point x="478" y="663"/>
      <point x="433" y="669"/>
      <point x="394" y="669" type="curve" smooth="yes"/>
      <point x="285" y="669"/>
      <point x="214" y="601"/>
      <point x="214" y="517" type="curve" smooth="yes"/>
      <point x="214" y="489"/>
      <point x="223" y="453"/>
      <point x="243" y="407" type="curve" smooth="yes"/>
      <point x="260" y="368" type="line"/>
      <point x="131" y="332"/>
      <point x="79" y="309"/>
    </contour>
    <contour>
      <point x="-491" y="278" type="curve" smooth="yes"/>
      <point x="-531" y="238"/>
      <point x="-547" y="188"/>
      <point x="-547" y="124" type="curve" smooth="yes"/>
      <point x="-547" y="38"/>
      <point x="-496" y="-5"/>
      <point x="-410" y="-5" type="curve" smooth="yes"/>
      <point x="-319" y="-5"/>
      <point x="-262" y="26"/>
      <point x="-184" y="129" type="curve"/>
      <point x="-137" y="0" type="line"/>
      <point x="-68" y="0" type="line"/>
      <point x="-141" y="182" type="line"/>
      <point x="-4" y="417" type="line"/>
      <point x="-56" y="439" type="line"/>
      <point x="-167" y="236" type="line"/>
      <point x="-241" y="429" type="line" smooth="yes"/>
      <point x="-256" y="469"/>
      <point x="-263" y="493"/>
      <point x="-263" y="515" type="curve" smooth="yes"/>
      <point x="-263" y="576"/>
      <point x="-215" y="618"/>
      <point x="-150" y="618" type="curve" smooth="yes"/>
      <point x="-113" y="618"/>
      <point x="-73" y="613"/>
      <point x="-2" y="596" type="curve"/>
      <point x="13" y="647" type="line"/>
      <point x="-61" y="663"/>
      <point x="-106" y="669"/>
      <point x="-145" y="669" type="curve" smooth="yes"/>
      <point x="-254" y="669"/>
      <point x="-325" y="601"/>
      <point x="-325" y="517" type="curve" smooth="yes"/>
      <point x="-325" y="489"/>
      <point x="-314" y="454"/>
      <point x="-296" y="407" type="curve" smooth="yes"/>
      <point x="-281" y="368" type="line"/>
      <point x="-408" y="332"/>
      <point x="-460" y="309"/>
    </contour>
    <contour>
      <point x="55" y="130" type="curve" smooth="yes"/>
      <point x="55" y="177"/>
      <point x="63" y="215"/>
      <point x="92" y="244" type="curve" smooth="yes"/>
      <point x="117" y="269"/>
      <point x="154" y="286"/>
      <point x="279" y="324" type="curve"/>
      <point x="335" y="194" type="line"/>
      <point x="253" y="74"/>
      <point x="206" y="47"/>
      <point x="138" y="47" type="curve" smooth="yes"/>
      <point x="88" y="47"/>
      <point x="55" y="72"/>
    </contour>
    <contour>
      <point x="-484" y="130" type="curve" smooth="yes"/>
      <point x="-484" y="177"/>
      <point x="-476" y="215"/>
      <point x="-447" y="244" type="curve" smooth="yes"/>
      <point x="-422" y="269"/>
      <point x="-385" y="286"/>
      <point x="-263" y="323" type="curve"/>
      <point x="-209" y="186" type="line"/>
      <point x="-288" y="73"/>
      <point x="-335" y="47"/>
      <point x="-401" y="47" type="curve" smooth="yes"/>
      <point x="-451" y="47"/>
      <point x="-484" y="72"/>
    </contour>
  </outline>
</glyph>
<glyph name="asciicircum_equal.liga" format="2">
  <advance width="614"/>
  <outline>
    <contour>
      <point x="-26" y="655" type="line"/>
      <point x="-86" y="655" type="line"/>
      <point x="-443" y="271" type="line"/>
      <point x="-371" y="271" type="line"/>
      <point x="-68" y="602" type="line"/>
      <point x="6" y="392" type="line"/>
      <point x="462" y="392" type="line"/>
      <point x="477" y="443" type="line"/>
      <point x="51" y="443" type="line"/>
    </contour>
    <contour>
      <point x="-29" y="209" type="line"/>
      <point x="410" y="209" type="line"/>
      <point x="425" y="261" type="line"/>
      <point x="-14" y="261" type="line"/>
    </contour>
  </outline>
</glyph>
<glyph name="asciitilde_asciitilde_greater" format="2">
  <advance width="614"/>
  <outline>
    <contour>
      <point x="211" y="378" type="curve" smooth="yes"/>
      <point x="163" y="422"/>
      <point x="137" y="432"/>
      <point x="113" y="432" type="curve" smooth="yes"/>
      <point x="87" y="432"/>
      <point x="62" y="426"/>
      <point x="-22" y="358" type="curve" smooth="yes"/>
      <point x="-96" y="298"/>
      <point x="-110" y="298"/>
      <point x="-126" y="298" type="curve" smooth="yes"/>
      <point x="-142" y="298"/>
      <point x="-156" y="299"/>
      <point x="-237" y="365" type="curve" smooth="yes"/>
      <point x="-310" y="424"/>
      <point x="-331" y="432"/>
      <point x="-355" y="432" type="curve" smooth="yes"/>
      <point x="-381" y="432"/>
      <point x="-406" y="426"/>
      <point x="-490" y="358" type="curve" smooth="yes"/>
      <point x="-564" y="298"/>
      <point x="-578" y="298"/>
      <point x="-594" y="298" type="curve" smooth="yes"/>
      <point x="-610" y="298"/>
      <point x="-624" y="299"/>
      <point x="-705" y="365" type="curve" smooth="yes"/>
      <point x="-778" y="424"/>
      <point x="-799" y="432"/>
      <point x="-823" y="432" type="curve" smooth="yes"/>
      <point x="-867" y="432"/>
      <point x="-895" y="421"/>
      <point x="-998" y="253" type="curve"/>
      <point x="-950" y="224" type="line"/>
      <point x="-872" y="348"/>
      <point x="-851" y="371"/>
      <point x="-823" y="371" type="curve" smooth="yes"/>
      <point x="-808" y="371"/>
      <point x="-798" y="366"/>
      <point x="-722" y="304" type="curve" smooth="yes"/>
      <point x="-645" y="242"/>
      <point x="-620" y="237"/>
      <point x="-594" y="237" type="curve" smooth="yes"/>
      <point x="-568" y="237"/>
      <point x="-543" y="243"/>
      <point x="-459" y="311" type="curve" smooth="yes"/>
      <point x="-385" y="371"/>
      <point x="-371" y="371"/>
      <point x="-355" y="371" type="curve" smooth="yes"/>
      <point x="-340" y="371"/>
      <point x="-330" y="366"/>
      <point x="-254" y="304" type="curve" smooth="yes"/>
      <point x="-177" y="242"/>
      <point x="-152" y="237"/>
      <point x="-126" y="237" type="curve" smooth="yes"/>
      <point x="-100" y="237"/>
      <point x="-75" y="243"/>
      <point x="9" y="311" type="curve" smooth="yes"/>
      <point x="83" y="371"/>
      <point x="97" y="371"/>
      <point x="113" y="371" type="curve" smooth="yes"/>
      <point x="132" y="371"/>
      <point x="145" y="368"/>
      <point x="183" y="334" type="curve" smooth="yes"/>
      <point x="238" y="285"/>
      <point x="252" y="278"/>
      <point x="281" y="278" type="curve" smooth="yes"/>
      <point x="305" y="278"/>
      <point x="331" y="284"/>
      <point x="456" y="306" type="curve"/>
      <point x="77" y="27" type="line"/>
      <point x="107" y="-11" type="line"/>
      <point x="546" y="314" type="line"/>
      <point x="547" y="318" type="line"/>
      <point x="251" y="665" type="line"/>
      <point x="213" y="636" type="line"/>
      <point x="457" y="348" type="line"/>
      <point x="327" y="330"/>
      <point x="304" y="327"/>
      <point x="287" y="327" type="curve" smooth="yes"/>
      <point x="268" y="327"/>
      <point x="261" y="333"/>
    </contour>
  </outline>
</glyph>
<glyph name="asciitilde_greater.liga" format="2">
  <advance width="614"/>
  <outline>
    <contour>
      <point x="134" y="432" type="curve" smooth="yes"/>
      <point x="108" y="432"/>
      <point x="83" y="426"/>
      <point x="-1" y="358" type="curve" smooth="yes"/>
      <point x="-75" y="298"/>
      <point x="-89" y="298"/>
      <point x="-105" y="298" type="curve" smooth="yes"/>
      <point x="-121" y="298"/>
      <point x="-135" y="299"/>
      <point x="-216" y="365" type="curve" smooth="yes"/>
      <point x="-289" y="424"/>
      <point x="-310" y="432"/>
      <point x="-334" y="432" type="curve" smooth="yes"/>
      <point x="-378" y="432"/>
      <point x="-406" y="421"/>
      <point x="-509" y="253" type="curve"/>
      <point x="-461" y="224" type="line"/>
      <point x="-383" y="348"/>
      <point x="-362" y="371"/>
      <point x="-334" y="371" type="curve" smooth="yes"/>
      <point x="-319" y="371"/>
      <point x="-309" y="366"/>
      <point x="-233" y="304" type="curve" smooth="yes"/>
      <point x="-156" y="242"/>
      <point x="-131" y="237"/>
      <point x="-105" y="237" type="curve" smooth="yes"/>
      <point x="-79" y="237"/>
      <point x="-54" y="243"/>
      <point x="30" y="311" type="curve" smooth="yes"/>
      <point x="104" y="371"/>
      <point x="118" y="371"/>
      <point x="134" y="371" type="curve" smooth="yes"/>
      <point x="153" y="371"/>
      <point x="166" y="368"/>
      <point x="204" y="334" type="curve" smooth="yes"/>
      <point x="256" y="288"/>
      <point x="265" y="278"/>
      <point x="291" y="278" type="curve" smooth="yes"/>
      <point x="313" y="278"/>
      <point x="343" y="282"/>
      <point x="462" y="310" type="curve"/>
      <point x="77" y="27" type="line"/>
      <point x="107" y="-11" type="line"/>
      <point x="546" y="314" type="line"/>
      <point x="547" y="318" type="line"/>
      <point x="251" y="665" type="line"/>
      <point x="213" y="636" type="line"/>
      <point x="455" y="351" type="line"/>
      <point x="348" y="330"/>
      <point x="323" y="327"/>
      <point x="308" y="327" type="curve" smooth="yes"/>
      <point x="289" y="327"/>
      <point x="282" y="333"/>
      <point x="232" y="378" type="curve" smooth="yes"/>
      <point x="184" y="422"/>
      <point x="158" y="432"/>
    </contour>
  </outline>
</glyph>
<glyph name="bar_bar_bar_greater.liga" format="2">
  <advance width="614"/>
  <outline>
    <contour>
      <point x="-693" y="783" type="line"/>
      <point x="-751" y="783" type="line"/>
      <point x="-1013" y="-129" type="line"/>
      <point x="-955" y="-129" type="line"/>
    </contour>
    <contour>
      <point x="-1107" y="783" type="line"/>
      <point x="-1165" y="783" type="line"/>
      <point x="-1427" y="-129" type="line"/>
      <point x="-1369" y="-129" type="line"/>
    </contour>
    <contour>
      <point x="214" y="300" type="line"/>
      <point x="230" y="355" type="line"/>
      <point x="-292" y="783" type="line"/>
      <point x="-338" y="783" type="line"/>
      <point x="-600" y="-129" type="line"/>
      <point x="-554" y="-129" type="line"/>
    </contour>
    <contour>
      <point x="-300" y="714" type="line"/>
      <point x="172" y="334" type="line"/>
      <point x="-517" y="-47" type="line"/>
    </contour>
  </outline>
</glyph>
<glyph name="bar_bar_equal.liga" format="2">
  <advance width="614"/>
  <outline>
    <contour>
      <point x="510" y="209" type="line"/>
      <point x="525" y="261" type="line"/>
      <point x="-566" y="261" type="line"/>
      <point x="-528" y="392" type="line"/>
      <point x="562" y="392" type="line"/>
      <point x="577" y="443" type="line"/>
      <point x="-513" y="443" type="line"/>
      <point x="-424" y="755" type="line"/>
      <point x="-482" y="755" type="line"/>
      <point x="-727" y="-100" type="line"/>
      <point x="-669" y="-100" type="line"/>
      <point x="-580" y="209" type="line"/>
    </contour>
    <contour>
      <point x="-800" y="755" type="line"/>
      <point x="-1045" y="-100" type="line"/>
      <point x="-987" y="-100" type="line"/>
      <point x="-742" y="755" type="line"/>
    </contour>
  </outline>
</glyph>
<glyph name="bar_bar_greater.liga" format="2">
  <advance width="614"/>
  <outline>
    <contour>
      <point x="-801" y="-129" type="line"/>
      <point x="-539" y="783" type="line"/>
      <point x="-597" y="783" type="line"/>
      <point x="-859" y="-129" type="line"/>
    </contour>
    <contour>
      <point x="368" y="300" type="line"/>
      <point x="384" y="355" type="line"/>
      <point x="-138" y="783" type="line"/>
      <point x="-184" y="783" type="line"/>
      <point x="-446" y="-129" type="line"/>
      <point x="-400" y="-129" type="line"/>
    </contour>
    <contour>
      <point x="-146" y="714" type="line"/>
      <point x="326" y="334" type="line"/>
      <point x="-363" y="-47" type="line"/>
    </contour>
  </outline>
</glyph>
<glyph name="bar_braceright.liga" format="2">
  <advance width="614"/>
  <outline>
    <contour>
      <point x="271" y="-9" type="curve" smooth="yes"/>
      <point x="271" y="11"/>
      <point x="261" y="34"/>
      <point x="242" y="68" type="curve" smooth="yes"/>
      <point x="210" y="125" type="line" smooth="yes"/>
      <point x="194" y="153"/>
      <point x="190" y="167"/>
      <point x="190" y="177" type="curve" smooth="yes"/>
      <point x="190" y="211"/>
      <point x="208" y="232"/>
      <point x="486" y="301" type="curve"/>
      <point x="504" y="361" type="line"/>
      <point x="301" y="419"/>
      <point x="271" y="443"/>
      <point x="271" y="464" type="curve" smooth="yes"/>
      <point x="271" y="482"/>
      <point x="275" y="489"/>
      <point x="328" y="535" type="curve" smooth="yes"/>
      <point x="393" y="592" type="line" smooth="yes"/>
      <point x="460" y="650"/>
      <point x="474" y="673"/>
      <point x="474" y="704" type="curve" smooth="yes"/>
      <point x="474" y="734"/>
      <point x="453" y="762"/>
      <point x="399" y="766" type="curve" smooth="yes"/>
      <point x="88" y="788" type="line"/>
      <point x="74" y="740" type="line"/>
      <point x="378" y="718" type="line" smooth="yes"/>
      <point x="405" y="716"/>
      <point x="413" y="705"/>
      <point x="413" y="693" type="curve" smooth="yes"/>
      <point x="413" y="679"/>
      <point x="408" y="671"/>
      <point x="360" y="629" type="curve" smooth="yes"/>
      <point x="295" y="572" type="line" smooth="yes"/>
      <point x="219" y="505"/>
      <point x="208" y="484"/>
      <point x="208" y="460" type="curve" smooth="yes"/>
      <point x="208" y="417"/>
      <point x="232" y="400"/>
      <point x="426" y="338" type="curve"/>
      <point x="425" y="335" type="line"/>
      <point x="140" y="262"/>
      <point x="127" y="221"/>
      <point x="127" y="178" type="curve" smooth="yes"/>
      <point x="127" y="155"/>
      <point x="136" y="135"/>
      <point x="160" y="94" type="curve" smooth="yes"/>
      <point x="193" y="37" type="line" smooth="yes"/>
      <point x="208" y="11"/>
      <point x="212" y="-3"/>
      <point x="212" y="-13" type="curve" smooth="yes"/>
      <point x="212" y="-30"/>
      <point x="202" y="-50"/>
      <point x="156" y="-54" type="curve" smooth="yes"/>
      <point x="-158" y="-84" type="line"/>
      <point x="-172" y="-134" type="line"/>
      <point x="149" y="-104" type="line" smooth="yes"/>
      <point x="246" y="-95"/>
      <point x="271" y="-51"/>
    </contour>
    <contour>
      <point x="-438" y="-129" type="line"/>
      <point x="-380" y="-129" type="line"/>
      <point x="-118" y="783" type="line"/>
      <point x="-176" y="783" type="line"/>
    </contour>
  </outline>
</glyph>
<glyph name="bar_bracketright.liga" format="2">
  <advance width="614"/>
  <outline>
    <contour>
      <point x="-439" y="-129" type="line"/>
      <point x="-381" y="-129" type="line"/>
      <point x="-119" y="783" type="line"/>
      <point x="-177" y="783" type="line"/>
    </contour>
    <contour>
      <point x="-175" y="-129" type="line"/>
      <point x="186" y="-129" type="line"/>
      <point x="448" y="783" type="line"/>
      <point x="87" y="783" type="line"/>
      <point x="72" y="732" type="line"/>
      <point x="372" y="732" type="line"/>
      <point x="140" y="-78" type="line"/>
      <point x="-160" y="-78" type="line"/>
    </contour>
  </outline>
</glyph>
